<svg xmlns="http://www.w3.org/2000/svg" viewBox="0 0 400 400" width="400" height="400"><rect width="400" height="400" fill="#050000"/>
<defs>
  <filter id="glow" x="-40%" y="-40%" width="180%" height="180%">
    <feGaussianBlur stdDeviation="3" result="b"/>
    <feMerge><feMergeNode in="b"/><feMergeNode in="SourceGraphic"/></feMerge>
  </filter>
  <filter id="glow2" x="-50%" y="-50%" width="200%" height="200%">
    <feGaussianBlur stdDeviation="5" result="b"/>
    <feMerge><feMergeNode in="b"/><feMergeNode in="SourceGraphic"/></feMerge>
  </filter>
</defs>
<defs>
  <linearGradient id="g04" x1="0" y1="0" x2="0" y2="1">
    <stop offset="0%" stop-color="#FF3333"/>
    <stop offset="100%" stop-color="#CC0000"/>
  </linearGradient>
</defs>
<!-- PCB dark board background -->
<rect x="100" y="80" width="200" height="240" rx="12"
      fill="rgba(0,15,8,0.6)" stroke="rgba(255,255,255,0.06)" stroke-width="1"/>
<!-- Grid dots (PCB pattern) -->
<circle cx="110" cy="90" r="0.8" fill="rgba(255,255,255,0.08)"/><circle cx="130" cy="90" r="0.8" fill="rgba(255,255,255,0.08)"/><circle cx="150" cy="90" r="0.8" fill="rgba(255,255,255,0.08)"/><circle cx="170" cy="90" r="0.8" fill="rgba(255,255,255,0.08)"/><circle cx="190" cy="90" r="0.8" fill="rgba(255,255,255,0.08)"/><circle cx="210" cy="90" r="0.8" fill="rgba(255,255,255,0.08)"/><circle cx="230" cy="90" r="0.8" fill="rgba(255,255,255,0.08)"/><circle cx="250" cy="90" r="0.8" fill="rgba(255,255,255,0.08)"/><circle cx="270" cy="90" r="0.8" fill="rgba(255,255,255,0.08)"/><circle cx="290" cy="90" r="0.8" fill="rgba(255,255,255,0.08)"/><circle cx="110" cy="110" r="0.8" fill="rgba(255,255,255,0.08)"/><circle cx="130" cy="110" r="0.8" fill="rgba(255,255,255,0.08)"/><circle cx="150" cy="110" r="0.8" fill="rgba(255,255,255,0.08)"/><circle cx="170" cy="110" r="0.8" fill="rgba(255,255,255,0.08)"/><circle cx="190" cy="110" r="0.8" fill="rgba(255,255,255,0.08)"/><circle cx="210" cy="110" r="0.8" fill="rgba(255,255,255,0.08)"/><circle cx="230" cy="110" r="0.8" fill="rgba(255,255,255,0.08)"/><circle cx="250" cy="110" r="0.8" fill="rgba(255,255,255,0.08)"/><circle cx="270" cy="110" r="0.8" fill="rgba(255,255,255,0.08)"/><circle cx="290" cy="110" r="0.8" fill="rgba(255,255,255,0.08)"/><circle cx="110" cy="130" r="0.8" fill="rgba(255,255,255,0.08)"/><circle cx="130" cy="130" r="0.8" fill="rgba(255,255,255,0.08)"/><circle cx="150" cy="130" r="0.8" fill="rgba(255,255,255,0.08)"/><circle cx="170" cy="130" r="0.8" fill="rgba(255,255,255,0.08)"/><circle cx="190" cy="130" r="0.8" fill="rgba(255,255,255,0.08)"/><circle cx="210" cy="130" r="0.8" fill="rgba(255,255,255,0.08)"/><circle cx="230" cy="130" r="0.8" fill="rgba(255,255,255,0.08)"/><circle cx="250" cy="130" r="0.8" fill="rgba(255,255,255,0.08)"/><circle cx="270" cy="130" r="0.8" fill="rgba(255,255,255,0.08)"/><circle cx="290" cy="130" r="0.8" fill="rgba(255,255,255,0.08)"/><circle cx="110" cy="150" r="0.8" fill="rgba(255,255,255,0.08)"/><circle cx="130" cy="150" r="0.8" fill="rgba(255,255,255,0.08)"/><circle cx="150" cy="150" r="0.8" fill="rgba(255,255,255,0.08)"/><circle cx="170" cy="150" r="0.8" fill="rgba(255,255,255,0.08)"/><circle cx="190" cy="150" r="0.8" fill="rgba(255,255,255,0.08)"/><circle cx="210" cy="150" r="0.8" fill="rgba(255,255,255,0.08)"/><circle cx="230" cy="150" r="0.8" fill="rgba(255,255,255,0.08)"/><circle cx="250" cy="150" r="0.8" fill="rgba(255,255,255,0.08)"/><circle cx="270" cy="150" r="0.8" fill="rgba(255,255,255,0.08)"/><circle cx="290" cy="150" r="0.8" fill="rgba(255,255,255,0.08)"/><circle cx="110" cy="170" r="0.8" fill="rgba(255,255,255,0.08)"/><circle cx="130" cy="170" r="0.8" fill="rgba(255,255,255,0.08)"/><circle cx="150" cy="170" r="0.8" fill="rgba(255,255,255,0.08)"/><circle cx="170" cy="170" r="0.8" fill="rgba(255,255,255,0.08)"/><circle cx="190" cy="170" r="0.8" fill="rgba(255,255,255,0.08)"/><circle cx="210" cy="170" r="0.8" fill="rgba(255,255,255,0.08)"/><circle cx="230" cy="170" r="0.8" fill="rgba(255,255,255,0.08)"/><circle cx="250" cy="170" r="0.8" fill="rgba(255,255,255,0.08)"/><circle cx="270" cy="170" r="0.8" fill="rgba(255,255,255,0.08)"/><circle cx="290" cy="170" r="0.8" fill="rgba(255,255,255,0.08)"/><circle cx="110" cy="190" r="0.8" fill="rgba(255,255,255,0.08)"/><circle cx="130" cy="190" r="0.8" fill="rgba(255,255,255,0.08)"/><circle cx="150" cy="190" r="0.8" fill="rgba(255,255,255,0.08)"/><circle cx="170" cy="190" r="0.8" fill="rgba(255,255,255,0.08)"/><circle cx="190" cy="190" r="0.8" fill="rgba(255,255,255,0.08)"/><circle cx="210" cy="190" r="0.8" fill="rgba(255,255,255,0.08)"/><circle cx="230" cy="190" r="0.8" fill="rgba(255,255,255,0.08)"/><circle cx="250" cy="190" r="0.8" fill="rgba(255,255,255,0.08)"/><circle cx="270" cy="190" r="0.8" fill="rgba(255,255,255,0.08)"/><circle cx="290" cy="190" r="0.8" fill="rgba(255,255,255,0.08)"/><circle cx="110" cy="210" r="0.8" fill="rgba(255,255,255,0.08)"/><circle cx="130" cy="210" r="0.8" fill="rgba(255,255,255,0.08)"/><circle cx="150" cy="210" r="0.8" fill="rgba(255,255,255,0.08)"/><circle cx="170" cy="210" r="0.8" fill="rgba(255,255,255,0.08)"/><circle cx="190" cy="210" r="0.8" fill="rgba(255,255,255,0.08)"/><circle cx="210" cy="210" r="0.8" fill="rgba(255,255,255,0.08)"/><circle cx="230" cy="210" r="0.8" fill="rgba(255,255,255,0.08)"/><circle cx="250" cy="210" r="0.8" fill="rgba(255,255,255,0.08)"/><circle cx="270" cy="210" r="0.8" fill="rgba(255,255,255,0.08)"/><circle cx="290" cy="210" r="0.8" fill="rgba(255,255,255,0.08)"/><circle cx="110" cy="230" r="0.8" fill="rgba(255,255,255,0.08)"/><circle cx="130" cy="230" r="0.8" fill="rgba(255,255,255,0.08)"/><circle cx="150" cy="230" r="0.8" fill="rgba(255,255,255,0.08)"/><circle cx="170" cy="230" r="0.8" fill="rgba(255,255,255,0.08)"/><circle cx="190" cy="230" r="0.8" fill="rgba(255,255,255,0.08)"/><circle cx="210" cy="230" r="0.8" fill="rgba(255,255,255,0.08)"/><circle cx="230" cy="230" r="0.8" fill="rgba(255,255,255,0.08)"/><circle cx="250" cy="230" r="0.8" fill="rgba(255,255,255,0.08)"/><circle cx="270" cy="230" r="0.8" fill="rgba(255,255,255,0.08)"/><circle cx="290" cy="230" r="0.8" fill="rgba(255,255,255,0.08)"/><circle cx="110" cy="250" r="0.8" fill="rgba(255,255,255,0.08)"/><circle cx="130" cy="250" r="0.8" fill="rgba(255,255,255,0.08)"/><circle cx="150" cy="250" r="0.8" fill="rgba(255,255,255,0.08)"/><circle cx="170" cy="250" r="0.8" fill="rgba(255,255,255,0.08)"/><circle cx="190" cy="250" r="0.8" fill="rgba(255,255,255,0.08)"/><circle cx="210" cy="250" r="0.8" fill="rgba(255,255,255,0.08)"/><circle cx="230" cy="250" r="0.8" fill="rgba(255,255,255,0.08)"/><circle cx="250" cy="250" r="0.8" fill="rgba(255,255,255,0.08)"/><circle cx="270" cy="250" r="0.8" fill="rgba(255,255,255,0.08)"/><circle cx="290" cy="250" r="0.8" fill="rgba(255,255,255,0.08)"/><circle cx="110" cy="270" r="0.8" fill="rgba(255,255,255,0.08)"/><circle cx="130" cy="270" r="0.8" fill="rgba(255,255,255,0.08)"/><circle cx="150" cy="270" r="0.8" fill="rgba(255,255,255,0.08)"/><circle cx="170" cy="270" r="0.8" fill="rgba(255,255,255,0.08)"/><circle cx="190" cy="270" r="0.8" fill="rgba(255,255,255,0.08)"/><circle cx="210" cy="270" r="0.8" fill="rgba(255,255,255,0.08)"/><circle cx="230" cy="270" r="0.8" fill="rgba(255,255,255,0.08)"/><circle cx="250" cy="270" r="0.8" fill="rgba(255,255,255,0.08)"/><circle cx="270" cy="270" r="0.8" fill="rgba(255,255,255,0.08)"/><circle cx="290" cy="270" r="0.8" fill="rgba(255,255,255,0.08)"/><circle cx="110" cy="290" r="0.8" fill="rgba(255,255,255,0.08)"/><circle cx="130" cy="290" r="0.8" fill="rgba(255,255,255,0.08)"/><circle cx="150" cy="290" r="0.8" fill="rgba(255,255,255,0.08)"/><circle cx="170" cy="290" r="0.8" fill="rgba(255,255,255,0.08)"/><circle cx="190" cy="290" r="0.8" fill="rgba(255,255,255,0.08)"/><circle cx="210" cy="290" r="0.8" fill="rgba(255,255,255,0.08)"/><circle cx="230" cy="290" r="0.8" fill="rgba(255,255,255,0.08)"/><circle cx="250" cy="290" r="0.8" fill="rgba(255,255,255,0.08)"/><circle cx="270" cy="290" r="0.8" fill="rgba(255,255,255,0.08)"/><circle cx="290" cy="290" r="0.8" fill="rgba(255,255,255,0.08)"/><circle cx="110" cy="310" r="0.8" fill="rgba(255,255,255,0.08)"/><circle cx="130" cy="310" r="0.8" fill="rgba(255,255,255,0.08)"/><circle cx="150" cy="310" r="0.8" fill="rgba(255,255,255,0.08)"/><circle cx="170" cy="310" r="0.8" fill="rgba(255,255,255,0.08)"/><circle cx="190" cy="310" r="0.8" fill="rgba(255,255,255,0.08)"/><circle cx="210" cy="310" r="0.8" fill="rgba(255,255,255,0.08)"/><circle cx="230" cy="310" r="0.8" fill="rgba(255,255,255,0.08)"/><circle cx="250" cy="310" r="0.8" fill="rgba(255,255,255,0.08)"/><circle cx="270" cy="310" r="0.8" fill="rgba(255,255,255,0.08)"/><circle cx="290" cy="310" r="0.8" fill="rgba(255,255,255,0.08)"/>
<!-- K vertical spine (power rail) -->
<rect x="145" y="110" width="16" height="180" rx="3" fill="url(#g04)" filter="url(#glow)"/>
<!-- K upper arm: 90-degree trace then diagonal -->
<polyline points="161,145 230,145 260,110"
          fill="none" stroke="#FF1A1A" stroke-width="14" stroke-linecap="round"
          stroke-linejoin="round" filter="url(#glow)"/>
<!-- K lower arm -->
<polyline points="161,220 230,220 260,290"
          fill="none" stroke="#FF1A1A" stroke-width="14" stroke-linecap="round"
          stroke-linejoin="round" filter="url(#glow)" opacity="0.85"/>
<!-- Solder pads (endpoints) -->
<circle cx="260" cy="110" r="11" fill="#050000" stroke="#FF1A1A" stroke-width="3"/>
<circle cx="260" cy="110" r="4" fill="#FF1A1A"/>
<circle cx="260" cy="290" r="11" fill="#050000" stroke="#FF1A1A" stroke-width="3"/>
<circle cx="260" cy="290" r="4" fill="#FF1A1A"/>
<circle cx="145" cy="110" r="8" fill="#FF1A1A"/>
<circle cx="145" cy="290" r="8" fill="#FF1A1A"/>
<!-- Via in middle of K -->
<circle cx="195" cy="200" r="7" fill="#0A0101" stroke="rgba(255,80,80,0.7)" stroke-width="2"/>
<text x="200" y="378" text-anchor="middle" font-family="Courier New,monospace" font-size="13" fill="rgba(255,255,255,0.4)" letter-spacing="4" font-weight="bold">A3KM STUDIO</text>
</svg>