<svg xmlns="http://www.w3.org/2000/svg" viewBox="0 0 400 400" width="400" height="400"><rect width="400" height="400" fill="#050000"/>
<defs>
  <filter id="glow" x="-40%" y="-40%" width="180%" height="180%">
    <feGaussianBlur stdDeviation="3" result="b"/>
    <feMerge><feMergeNode in="b"/><feMergeNode in="SourceGraphic"/></feMerge>
  </filter>
  <filter id="glow2" x="-50%" y="-50%" width="200%" height="200%">
    <feGaussianBlur stdDeviation="5" result="b"/>
    <feMerge><feMergeNode in="b"/><feMergeNode in="SourceGraphic"/></feMerge>
  </filter>
</defs>
<defs>
  <linearGradient id="g03a" x1="0" y1="0" x2="0" y2="1">
    <stop offset="0%" stop-color="#FF3333"/>
    <stop offset="100%" stop-color="#880000"/>
  </linearGradient>
  <linearGradient id="g03b" x1="0" y1="1" x2="0" y2="0">
    <stop offset="0%" stop-color="#FF5555" stop-opacity="0.5"/>
    <stop offset="100%" stop-color="#FF1A1A" stop-opacity="0.9"/>
  </linearGradient>
</defs>
<!-- Ring body -->
<path d="M 179.16,328.18 L 175.67,327.51 L 172.19,326.73 L 168.74,325.86 L 165.32,324.88 L 161.92,323.8 L 158.56,322.62 L 155.24,321.34 L 151.96,319.96 L 148.72,318.49 L 145.52,316.92 L 142.37,315.26 L 139.28,313.5 L 136.23,311.65 L 133.24,309.72 L 130.32,307.69 L 127.45,305.58 L 124.64,303.39 L 121.91,301.11 L 119.24,298.76 L 116.64,296.32 L 114.12,293.81 L 111.67,291.23 L 109.3,288.57 L 107.01,285.84 L 104.8,283.05 L 102.67,280.19 L 100.63,277.28 L 98.68,274.3 L 96.82,271.27 L 95.05,268.18 L 93.37,265.04 L 91.78,261.85 L 90.29,258.62 L 88.9,255.34 L 87.6,252.02 L 86.4,248.67 L 85.3,245.28 L 84.31,241.87 L 83.41,238.42 L 82.62,234.95 L 81.93,231.46 L 81.35,227.94 L 80.87,224.42 L 80.49,220.88 L 80.22,217.33 L 80.06,213.77 L 80.0,210.21 L 80.05,206.65 L 80.2,203.09 L 80.46,199.54 L 80.82,196.0 L 81.29,192.47 L 81.86,188.96 L 82.54,185.46 L 83.32,181.99 L 84.2,178.54 L 85.18,175.12 L 86.27,171.72 L 87.45,168.37 L 88.74,165.05 L 90.12,161.77 L 91.6,158.53 L 93.17,155.33 L 94.84,152.19 L 96.6,149.1 L 98.46,146.05 L 100.4,143.07 L 102.43,140.15 L 104.54,137.28 L 106.74,134.48 L 109.02,131.75 L 111.39,129.08 L 113.82,126.49 L 116.34,123.97 L 118.93,121.53 L 121.59,119.16 L 124.32,116.87 L 127.11,114.67 L 129.98,112.55 L 132.9,110.52 L 135.88,108.57 L 138.92,106.71 L 142.01,104.94 L 145.15,103.27 L 148.34,101.69 L 151.57,100.2 L 154.85,98.82 L 158.17,97.53 L 161.53,96.33 L 164.92,95.24 L 168.34,94.25 L 171.78,93.36 L 175.26,92.58 L 178.75,91.9 L 182.26,91.32 L 185.79,90.84 L 189.33,90.48 L 192.88,90.21 L 196.44,90.05 L 200.0,90.0 L 203.56,90.05 L 207.12,90.21 L 210.67,90.48 L 214.21,90.84 L 217.74,91.32 L 221.25,91.9 L 224.74,92.58 L 228.22,93.36 L 231.66,94.25 L 235.08,95.24 L 238.47,96.33 L 241.83,97.53 L 245.15,98.82 L 248.43,100.2 L 251.66,101.69 L 254.85,103.27 L 257.99,104.94 L 261.08,106.71 L 264.12,108.57 L 267.1,110.52 L 270.02,112.55 L 272.89,114.67 L 275.68,116.87 L 278.41,119.16 L 281.07,121.53 L 283.66,123.97 L 286.18,126.49 L 288.61,129.08 L 290.98,131.75 L 293.26,134.48 L 295.46,137.28 L 297.57,140.15 L 299.6,143.07 L 301.54,146.05 L 303.4,149.1 L 305.16,152.19 L 306.83,155.33 L 308.4,158.53 L 309.88,161.77 L 311.26,165.05 L 312.55,168.37 L 313.73,171.72 L 314.82,175.12 L 315.8,178.54 L 316.68,181.99 L 317.46,185.46 L 318.14,188.96 L 318.71,192.47 L 319.18,196.0 L 319.54,199.54 L 319.8,203.09 L 319.95,206.65 L 320.0,210.21 L 319.94,213.77 L 319.78,217.33 L 319.51,220.88 L 319.13,224.42 L 318.65,227.94 L 318.07,231.46 L 317.38,234.95 L 316.59,238.42 L 315.69,241.87 L 314.7,245.28 L 313.6,248.67 L 312.4,252.02 L 311.1,255.34 L 309.71,258.62 L 308.22,261.85 L 306.63,265.04 L 304.95,268.18 L 303.18,271.27 L 301.32,274.3 L 299.37,277.28 L 297.33,280.19 L 295.2,283.05 L 292.99,285.84 L 290.7,288.57 L 288.33,291.23 L 285.88,293.81 L 283.36,296.32 L 280.76,298.76 L 278.09,301.11 L 275.36,303.39 L 272.55,305.58 L 269.68,307.69 L 266.76,309.72 L 263.77,311.65 L 260.72,313.5 L 257.63,315.26 L 254.48,316.92 L 251.28,318.49 L 248.04,319.96 L 244.76,321.34 L 241.44,322.62 L 238.08,323.8 L 234.68,324.88 L 231.26,325.86 L 227.81,326.73 L 224.33,327.51 L 220.84,328.18 L 214.93,294.69 L 217.44,294.21 L 219.93,293.66 L 222.4,293.03 L 224.86,292.33 L 227.29,291.56 L 229.7,290.71 L 232.08,289.79 L 234.43,288.81 L 236.75,287.75 L 239.04,286.63 L 241.3,285.43 L 243.52,284.18 L 245.7,282.85 L 247.84,281.46 L 249.94,280.01 L 252.0,278.5 L 254.0,276.93 L 255.97,275.3 L 257.88,273.61 L 259.74,271.86 L 261.55,270.06 L 263.3,268.21 L 265.0,266.31 L 266.65,264.35 L 268.23,262.35 L 269.75,260.31 L 271.21,258.21 L 272.61,256.08 L 273.95,253.91 L 275.22,251.69 L 276.42,249.44 L 277.56,247.16 L 278.63,244.84 L 279.62,242.49 L 280.55,240.12 L 281.41,237.71 L 282.2,235.29 L 282.91,232.84 L 283.55,230.37 L 284.12,227.88 L 284.61,225.38 L 285.03,222.86 L 285.38,220.33 L 285.65,217.79 L 285.84,215.25 L 285.96,212.7 L 286.0,210.15 L 285.97,207.6 L 285.86,205.05 L 285.67,202.5 L 285.41,199.97 L 285.08,197.44 L 284.67,194.92 L 284.18,192.41 L 283.62,189.92 L 282.99,187.45 L 282.29,185.0 L 281.51,182.57 L 280.66,180.16 L 279.74,177.78 L 278.75,175.43 L 277.69,173.11 L 276.56,170.82 L 275.36,168.57 L 274.1,166.35 L 272.77,164.17 L 271.38,162.03 L 269.93,159.94 L 268.41,157.88 L 266.83,155.88 L 265.2,153.92 L 263.51,152.01 L 261.76,150.15 L 259.96,148.35 L 258.1,146.59 L 256.19,144.9 L 254.24,143.26 L 252.23,141.68 L 250.18,140.16 L 248.09,138.7 L 245.95,137.31 L 243.78,135.98 L 241.56,134.71 L 239.31,133.51 L 237.02,132.38 L 234.7,131.31 L 232.36,130.32 L 229.98,129.39 L 227.57,128.54 L 225.14,127.76 L 222.69,127.05 L 220.22,126.41 L 217.73,125.85 L 215.23,125.36 L 212.71,124.94 L 210.18,124.6 L 207.64,124.34 L 205.1,124.15 L 202.55,124.04 L 200.0,124.0 L 197.45,124.04 L 194.9,124.15 L 192.36,124.34 L 189.82,124.6 L 187.29,124.94 L 184.77,125.36 L 182.27,125.85 L 179.78,126.41 L 177.31,127.05 L 174.86,127.76 L 172.43,128.54 L 170.02,129.39 L 167.64,130.32 L 165.3,131.31 L 162.98,132.38 L 160.69,133.51 L 158.44,134.71 L 156.22,135.98 L 154.05,137.31 L 151.91,138.7 L 149.82,140.16 L 147.77,141.68 L 145.76,143.26 L 143.81,144.9 L 141.9,146.59 L 140.04,148.35 L 138.24,150.15 L 136.49,152.01 L 134.8,153.92 L 133.17,155.88 L 131.59,157.88 L 130.07,159.94 L 128.62,162.03 L 127.23,164.17 L 125.9,166.35 L 124.64,168.57 L 123.44,170.82 L 122.31,173.11 L 121.25,175.43 L 120.26,177.78 L 119.34,180.16 L 118.49,182.57 L 117.71,185.0 L 117.01,187.45 L 116.38,189.92 L 115.82,192.41 L 115.33,194.92 L 114.92,197.44 L 114.59,199.97 L 114.33,202.5 L 114.14,205.05 L 114.03,207.6 L 114.0,210.15 L 114.04,212.7 L 114.16,215.25 L 114.35,217.79 L 114.62,220.33 L 114.97,222.86 L 115.39,225.38 L 115.88,227.88 L 116.45,230.37 L 117.09,232.84 L 117.8,235.29 L 118.59,237.71 L 119.45,240.12 L 120.38,242.49 L 121.37,244.84 L 122.44,247.16 L 123.58,249.44 L 124.78,251.69 L 126.05,253.91 L 127.39,256.08 L 128.79,258.21 L 130.25,260.31 L 131.77,262.35 L 133.35,264.35 L 135.0,266.31 L 136.7,268.21 L 138.45,270.06 L 140.26,271.86 L 142.12,273.61 L 144.03,275.3 L 146.0,276.93 L 148.0,278.5 L 150.06,280.01 L 152.16,281.46 L 154.3,282.85 L 156.48,284.18 L 158.7,285.43 L 160.96,286.63 L 163.25,287.75 L 165.57,288.81 L 167.92,289.79 L 170.3,290.71 L 172.71,291.56 L 175.14,292.33 L 177.6,293.03 L 180.07,293.66 L 182.56,294.21 L 185.07,294.69 Z"
      fill="none"/>
<!-- Ring (thick stroke approach) -->
<circle cx="200" cy="210" r="103" fill="none" stroke="url(#g03a)" stroke-width="34"
        stroke-dasharray="610 50" stroke-dashoffset="0"
        stroke-linecap="round" filter="url(#glow)"/>
<!-- A spine top peak — the "bite gap" makes the A peak -->
<polygon points="200,85 180,130 220,130" fill="url(#g03a)" filter="url(#glow)"/>
<!-- A crossbar at ring center -->
<rect x="155" y="210" width="90" height="12" rx="3" fill="#FF1A1A"/>
<!-- Left leg implied by ring gap -->
<polygon points="200,85 156,130 164,130" fill="#050000"/>
<polygon points="200,85 244,130 236,130" fill="#050000"/>
<!-- Eye in centre -->
<circle cx="200" cy="210" r="18" fill="rgba(255,26,26,0.15)" stroke="#FF1A1A" stroke-width="1.5"/>
<circle cx="200" cy="210" r="6" fill="#FF1A1A" filter="url(#glow2)"/>
<text x="200" y="378" text-anchor="middle" font-family="Courier New,monospace" font-size="13" fill="rgba(255,255,255,0.4)" letter-spacing="4" font-weight="bold">A3KM STUDIO</text>
</svg>