<svg xmlns="http://www.w3.org/2000/svg" viewBox="0 0 400 400" width="400" height="400"><rect width="400" height="400" fill="#050000"/>
<defs>
  <filter id="glow" x="-40%" y="-40%" width="180%" height="180%">
    <feGaussianBlur stdDeviation="3" result="b"/>
    <feMerge><feMergeNode in="b"/><feMergeNode in="SourceGraphic"/></feMerge>
  </filter>
  <filter id="glow2" x="-50%" y="-50%" width="200%" height="200%">
    <feGaussianBlur stdDeviation="5" result="b"/>
    <feMerge><feMergeNode in="b"/><feMergeNode in="SourceGraphic"/></feMerge>
  </filter>
</defs>
<defs>
  <radialGradient id="nucleus" cx="50%" cy="50%" r="50%">
    <stop offset="0%" stop-color="#FF6666"/>
    <stop offset="60%" stop-color="#CC0000"/>
    <stop offset="100%" stop-color="#660000" stop-opacity="0"/>
  </radialGradient>
  <linearGradient id="g06" x1="0" y1="0" x2="1" y2="1">
    <stop offset="0%" stop-color="#FF3333"/>
    <stop offset="100%" stop-color="#AA0000"/>
  </linearGradient>
</defs>
<!-- Three orbital rings at 0, 60, 120 degrees -->
<path d="M 330.0,200.0 L 329.8,202.4 L 329.3,204.8 L 328.4,207.2 L 327.2,209.6 L 325.6,211.9 L 323.6,214.2 L 321.4,216.5 L 318.8,218.7 L 315.8,220.9 L 312.6,223.0 L 309.0,225.1 L 305.2,227.0 L 301.0,228.9 L 296.6,230.8 L 291.9,232.5 L 287.0,234.2 L 281.8,235.7 L 276.4,237.2 L 270.8,238.6 L 265.0,239.8 L 259.0,241.0 L 252.9,242.0 L 246.6,242.9 L 240.2,243.7 L 233.6,244.4 L 227.0,245.0 L 220.3,245.4 L 213.6,245.7 L 206.8,245.9 L 200.0,246.0 L 193.2,245.9 L 186.4,245.7 L 179.7,245.4 L 173.0,245.0 L 166.4,244.4 L 159.8,243.7 L 153.4,242.9 L 147.1,242.0 L 141.0,241.0 L 135.0,239.8 L 129.2,238.6 L 123.6,237.2 L 118.2,235.7 L 113.0,234.2 L 108.1,232.5 L 103.4,230.8 L 99.0,228.9 L 94.8,227.0 L 91.0,225.1 L 87.4,223.0 L 84.2,220.9 L 81.2,218.7 L 78.6,216.5 L 76.4,214.2 L 74.4,211.9 L 72.8,209.6 L 71.6,207.2 L 70.7,204.8 L 70.2,202.4 L 70.0,200.0 L 70.2,197.6 L 70.7,195.2 L 71.6,192.8 L 72.8,190.4 L 74.4,188.1 L 76.4,185.8 L 78.6,183.5 L 81.2,181.3 L 84.2,179.1 L 87.4,177.0 L 91.0,174.9 L 94.8,173.0 L 99.0,171.1 L 103.4,169.2 L 108.1,167.5 L 113.0,165.8 L 118.2,164.3 L 123.6,162.8 L 129.2,161.4 L 135.0,160.2 L 141.0,159.0 L 147.1,158.0 L 153.4,157.1 L 159.8,156.3 L 166.4,155.6 L 173.0,155.0 L 179.7,154.6 L 186.4,154.3 L 193.2,154.1 L 200.0,154.0 L 206.8,154.1 L 213.6,154.3 L 220.3,154.6 L 227.0,155.0 L 233.6,155.6 L 240.2,156.3 L 246.6,157.1 L 252.9,158.0 L 259.0,159.0 L 265.0,160.2 L 270.8,161.4 L 276.4,162.8 L 281.8,164.3 L 287.0,165.8 L 291.9,167.5 L 296.6,169.2 L 301.0,171.1 L 305.2,173.0 L 309.0,174.9 L 312.6,177.0 L 315.8,179.1 L 318.8,181.3 L 321.4,183.5 L 323.6,185.8 L 325.6,188.1 L 327.2,190.4 L 328.4,192.8 L 329.3,195.2 L 329.8,197.6 L 330.0,200.0 Z"   fill="none" stroke="#FF1A1A" stroke-width="2" opacity="0.65" filter="url(#glow)"/>
<path d="M 265.0,312.6 L 262.8,313.6 L 260.5,314.4 L 258.0,314.8 L 255.3,314.9 L 252.5,314.7 L 249.5,314.2 L 246.4,313.3 L 243.2,312.2 L 239.8,310.8 L 236.4,309.0 L 232.8,306.9 L 229.2,304.6 L 225.4,302.0 L 221.6,299.1 L 217.8,295.9 L 213.9,292.4 L 209.9,288.7 L 206.0,284.8 L 202.0,280.6 L 198.0,276.2 L 194.0,271.6 L 190.0,266.8 L 186.1,261.8 L 182.2,256.7 L 178.3,251.4 L 174.5,245.9 L 170.8,240.3 L 167.2,234.6 L 163.6,228.9 L 160.2,223.0 L 156.8,217.1 L 153.6,211.1 L 150.5,205.1 L 147.5,199.1 L 144.7,193.1 L 142.0,187.1 L 139.5,181.1 L 137.2,175.2 L 135.0,169.4 L 133.0,163.6 L 131.2,158.0 L 129.6,152.4 L 128.1,147.0 L 126.9,141.8 L 125.9,136.7 L 125.0,131.7 L 124.4,127.0 L 124.0,122.4 L 123.8,118.1 L 123.8,114.0 L 124.0,110.1 L 124.4,106.5 L 125.0,103.1 L 125.9,100.0 L 126.9,97.2 L 128.1,94.7 L 129.6,92.4 L 131.2,90.4 L 133.0,88.8 L 135.0,87.4 L 137.2,86.4 L 139.5,85.6 L 142.0,85.2 L 144.7,85.1 L 147.5,85.3 L 150.5,85.8 L 153.6,86.7 L 156.8,87.8 L 160.2,89.2 L 163.6,91.0 L 167.2,93.1 L 170.8,95.4 L 174.6,98.0 L 178.4,100.9 L 182.2,104.1 L 186.1,107.6 L 190.1,111.3 L 194.0,115.2 L 198.0,119.4 L 202.0,123.8 L 206.0,128.4 L 210.0,133.2 L 213.9,138.2 L 217.8,143.3 L 221.7,148.6 L 225.5,154.1 L 229.2,159.7 L 232.8,165.4 L 236.4,171.1 L 239.8,177.0 L 243.2,182.9 L 246.4,188.9 L 249.5,194.9 L 252.5,200.9 L 255.3,206.9 L 258.0,212.9 L 260.5,218.9 L 262.8,224.8 L 265.0,230.6 L 267.0,236.4 L 268.8,242.0 L 270.4,247.6 L 271.9,253.0 L 273.1,258.2 L 274.1,263.3 L 275.0,268.3 L 275.6,273.0 L 276.0,277.6 L 276.2,281.9 L 276.2,286.0 L 276.0,289.9 L 275.6,293.5 L 275.0,296.9 L 274.1,300.0 L 273.1,302.8 L 271.9,305.3 L 270.4,307.6 L 268.8,309.6 L 267.0,311.2 L 265.0,312.6 Z"  fill="none" stroke="#FF1A1A" stroke-width="2" opacity="0.65" filter="url(#glow)"/>
<path d="M 135.0,312.6 L 133.0,311.2 L 131.2,309.6 L 129.6,307.6 L 128.1,305.3 L 126.9,302.8 L 125.9,300.0 L 125.0,296.9 L 124.4,293.5 L 124.0,289.9 L 123.8,286.0 L 123.8,281.9 L 124.0,277.6 L 124.4,273.0 L 125.0,268.3 L 125.9,263.3 L 126.9,258.2 L 128.1,253.0 L 129.6,247.6 L 131.2,242.0 L 133.0,236.4 L 135.0,230.6 L 137.2,224.8 L 139.5,218.9 L 142.0,212.9 L 144.7,206.9 L 147.5,200.9 L 150.5,194.9 L 153.6,188.9 L 156.8,182.9 L 160.2,177.0 L 163.6,171.1 L 167.2,165.4 L 170.8,159.7 L 174.5,154.1 L 178.3,148.6 L 182.2,143.3 L 186.1,138.2 L 190.0,133.2 L 194.0,128.4 L 198.0,123.8 L 202.0,119.4 L 206.0,115.2 L 209.9,111.3 L 213.9,107.6 L 217.8,104.1 L 221.6,100.9 L 225.4,98.0 L 229.2,95.4 L 232.8,93.1 L 236.4,91.0 L 239.8,89.2 L 243.2,87.8 L 246.4,86.7 L 249.5,85.8 L 252.5,85.3 L 255.3,85.1 L 258.0,85.2 L 260.5,85.6 L 262.8,86.4 L 265.0,87.4 L 267.0,88.8 L 268.8,90.4 L 270.4,92.4 L 271.9,94.7 L 273.1,97.2 L 274.1,100.0 L 275.0,103.1 L 275.6,106.5 L 276.0,110.1 L 276.2,114.0 L 276.2,118.1 L 276.0,122.4 L 275.6,127.0 L 275.0,131.7 L 274.1,136.7 L 273.1,141.8 L 271.9,147.0 L 270.4,152.4 L 268.8,158.0 L 267.0,163.6 L 265.0,169.4 L 262.8,175.2 L 260.5,181.1 L 258.0,187.1 L 255.3,193.1 L 252.5,199.1 L 249.5,205.1 L 246.4,211.1 L 243.2,217.1 L 239.8,223.0 L 236.4,228.9 L 232.8,234.6 L 229.2,240.3 L 225.5,245.9 L 221.7,251.4 L 217.8,256.7 L 213.9,261.8 L 210.0,266.8 L 206.0,271.6 L 202.0,276.2 L 198.0,280.6 L 194.0,284.8 L 190.1,288.7 L 186.1,292.4 L 182.2,295.9 L 178.4,299.1 L 174.6,302.0 L 170.8,304.6 L 167.2,306.9 L 163.6,309.0 L 160.2,310.8 L 156.8,312.2 L 153.6,313.3 L 150.5,314.2 L 147.5,314.7 L 144.7,314.9 L 142.0,314.8 L 139.5,314.4 L 137.2,313.6 L 135.0,312.6 Z" fill="none" stroke="#FF1A1A" stroke-width="2" opacity="0.65" filter="url(#glow)"/>
<!-- Electrons on each orbit -->
<circle cx="330" cy="200" r="7" fill="#FFFFFF" filter="url(#glow)"/>
<circle cx="265.0" cy="160.2" r="7" fill="#FFFFFF" filter="url(#glow)"/>
<circle cx="135.0" cy="239.8" r="7" fill="#FFFFFF" filter="url(#glow)"/>
<!-- Nucleus glow -->
<circle cx="200" cy="200" r="52" fill="url(#nucleus)" filter="url(#glow2)"/>
<circle cx="200" cy="200" r="34" fill="rgba(200,0,0,0.3)" stroke="#FF1A1A" stroke-width="1.5"/>
<!-- A in nucleus -->
<text x="200" y="218" text-anchor="middle" font-family="Georgia,serif"
      font-size="48" fill="#FFFFFF" font-weight="bold" filter="url(#glow)">A</text>
<text x="200" y="378" text-anchor="middle" font-family="Courier New,monospace" font-size="13" fill="rgba(255,255,255,0.4)" letter-spacing="4" font-weight="bold">A3KM STUDIO</text>
</svg>