<svg xmlns="http://www.w3.org/2000/svg" viewBox="0 0 400 400" width="400" height="400"><rect width="400" height="400" fill="#050000"/>
<defs>
  <filter id="glow" x="-40%" y="-40%" width="180%" height="180%">
    <feGaussianBlur stdDeviation="3" result="b"/>
    <feMerge><feMergeNode in="b"/><feMergeNode in="SourceGraphic"/></feMerge>
  </filter>
  <filter id="glow2" x="-50%" y="-50%" width="200%" height="200%">
    <feGaussianBlur stdDeviation="5" result="b"/>
    <feMerge><feMergeNode in="b"/><feMergeNode in="SourceGraphic"/></feMerge>
  </filter>
</defs>
<defs>
  <linearGradient id="g02" x1="0" y1="0" x2="1" y2="0">
    <stop offset="0%" stop-color="#FF4444"/>
    <stop offset="60%" stop-color="#FF1A1A"/>
    <stop offset="100%" stop-color="#AA0000"/>
  </linearGradient>
</defs>
<!-- Scope screen background -->
<rect x="90" y="110" width="220" height="180" rx="8"
      fill="rgba(0,20,0,0.35)" stroke="rgba(255,255,255,0.07)" stroke-width="1"/>
<!-- Grid lines -->
<line x1="200" y1="115" x2="200" y2="285" stroke="rgba(255,255,255,0.05)" stroke-width="0.8"/>
<line x1="95" y1="200" x2="305" y2="200" stroke="rgba(255,255,255,0.05)" stroke-width="0.8"/>
<!-- Upper waveform -->
<path d="M 120.0,165.0 120.9,163.4 121.8,161.9 122.7,160.3 123.6,158.7 124.4,157.2 125.3,155.6 126.2,154.1 127.1,152.6 128.0,151.1 128.9,149.6 129.8,148.1 130.7,146.7 131.6,145.3 132.4,143.9 133.3,142.5 134.2,141.2 135.1,139.8 136.0,138.5 136.9,137.3 137.8,136.1 138.7,134.9 139.6,133.7 140.4,132.6 141.3,131.6 142.2,130.5 143.1,129.5 144.0,128.6 144.9,127.7 145.8,126.8 146.7,126.0 147.6,125.3 148.4,124.6 149.3,123.9 150.2,123.3 151.1,122.7 152.0,122.2 152.9,121.7 153.8,121.3 154.7,121.0 155.6,120.7 156.4,120.4 157.3,120.2 158.2,120.1 159.1,120.0 160.0,120.0 160.9,120.0 161.8,120.1 162.7,120.2 163.6,120.4 164.4,120.7 165.3,121.0 166.2,121.3 167.1,121.7 168.0,122.2 168.9,122.7 169.8,123.3 170.7,123.9 171.6,124.6 172.4,125.3 173.3,126.0 174.2,126.8 175.1,127.7 176.0,128.6 176.9,129.5 177.8,130.5 178.7,131.6 179.6,132.6 180.4,133.7 181.3,134.9 182.2,136.1 183.1,137.3 184.0,138.5 184.9,139.8 185.8,141.2 186.7,142.5 187.6,143.9 188.4,145.3 189.3,146.7 190.2,148.1 191.1,149.6 192.0,151.1 192.9,152.6 193.8,154.1 194.7,155.6 195.6,157.2 196.4,158.7 197.3,160.3 198.2,161.9 199.1,163.4 200.0,165.0 200.9,166.6 201.8,168.1 202.7,169.7 203.6,171.3 204.4,172.8 205.3,174.4 206.2,175.9 207.1,177.4 208.0,178.9 208.9,180.4 209.8,181.9 210.7,183.3 211.6,184.7 212.4,186.1 213.3,187.5 214.2,188.8 215.1,190.2 216.0,191.5 216.9,192.7 217.8,193.9 218.7,195.1 219.6,196.3 220.4,197.4 221.3,198.4 222.2,199.5 223.1,200.5 224.0,201.4 224.9,202.3 225.8,203.2 226.7,204.0 227.6,204.7 228.4,205.4 229.3,206.1 230.2,206.7 231.1,207.3 232.0,207.8 232.9,208.3 233.8,208.7 234.7,209.0 235.6,209.3 236.4,209.6 237.3,209.8 238.2,209.9 239.1,210.0 240.0,210.0 240.9,210.0 241.8,209.9 242.7,209.8 243.6,209.6 244.4,209.3 245.3,209.0 246.2,208.7 247.1,208.3 248.0,207.8 248.9,207.3 249.8,206.7 250.7,206.1 251.6,205.4 252.4,204.7 253.3,204.0 254.2,203.2 255.1,202.3 256.0,201.4 256.9,200.5 257.8,199.5 258.7,198.4 259.6,197.4 260.4,196.3 261.3,195.1 262.2,193.9 263.1,192.7 264.0,191.5 264.9,190.2 265.8,188.8 266.7,187.5 267.6,186.1 268.4,184.7 269.3,183.3 270.2,181.9 271.1,180.4 272.0,178.9 272.9,177.4 273.8,175.9 274.7,174.4 275.6,172.8 276.4,171.3 277.3,169.7 278.2,168.1 279.1,166.6 280.0,165.0" fill="none" stroke="url(#g02)" stroke-width="3.5"
      stroke-linecap="round" stroke-linejoin="round" filter="url(#glow)"/>
<!-- Lower waveform (mirror) -->
<path d="M 120.0,235.0 120.9,236.6 121.8,238.1 122.7,239.7 123.6,241.3 124.4,242.8 125.3,244.4 126.2,245.9 127.1,247.4 128.0,248.9 128.9,250.4 129.8,251.9 130.7,253.3 131.6,254.7 132.4,256.1 133.3,257.5 134.2,258.8 135.1,260.2 136.0,261.5 136.9,262.7 137.8,263.9 138.7,265.1 139.6,266.3 140.4,267.4 141.3,268.4 142.2,269.5 143.1,270.5 144.0,271.4 144.9,272.3 145.8,273.2 146.7,274.0 147.6,274.7 148.4,275.4 149.3,276.1 150.2,276.7 151.1,277.3 152.0,277.8 152.9,278.3 153.8,278.7 154.7,279.0 155.6,279.3 156.4,279.6 157.3,279.8 158.2,279.9 159.1,280.0 160.0,280.0 160.9,280.0 161.8,279.9 162.7,279.8 163.6,279.6 164.4,279.3 165.3,279.0 166.2,278.7 167.1,278.3 168.0,277.8 168.9,277.3 169.8,276.7 170.7,276.1 171.6,275.4 172.4,274.7 173.3,274.0 174.2,273.2 175.1,272.3 176.0,271.4 176.9,270.5 177.8,269.5 178.7,268.4 179.6,267.4 180.4,266.3 181.3,265.1 182.2,263.9 183.1,262.7 184.0,261.5 184.9,260.2 185.8,258.8 186.7,257.5 187.6,256.1 188.4,254.7 189.3,253.3 190.2,251.9 191.1,250.4 192.0,248.9 192.9,247.4 193.8,245.9 194.7,244.4 195.6,242.8 196.4,241.3 197.3,239.7 198.2,238.1 199.1,236.6 200.0,235.0 200.9,233.4 201.8,231.9 202.7,230.3 203.6,228.7 204.4,227.2 205.3,225.6 206.2,224.1 207.1,222.6 208.0,221.1 208.9,219.6 209.8,218.1 210.7,216.7 211.6,215.3 212.4,213.9 213.3,212.5 214.2,211.2 215.1,209.8 216.0,208.5 216.9,207.3 217.8,206.1 218.7,204.9 219.6,203.7 220.4,202.6 221.3,201.6 222.2,200.5 223.1,199.5 224.0,198.6 224.9,197.7 225.8,196.8 226.7,196.0 227.6,195.3 228.4,194.6 229.3,193.9 230.2,193.3 231.1,192.7 232.0,192.2 232.9,191.7 233.8,191.3 234.7,191.0 235.6,190.7 236.4,190.4 237.3,190.2 238.2,190.1 239.1,190.0 240.0,190.0 240.9,190.0 241.8,190.1 242.7,190.2 243.6,190.4 244.4,190.7 245.3,191.0 246.2,191.3 247.1,191.7 248.0,192.2 248.9,192.7 249.8,193.3 250.7,193.9 251.6,194.6 252.4,195.3 253.3,196.0 254.2,196.8 255.1,197.7 256.0,198.6 256.9,199.5 257.8,200.5 258.7,201.6 259.6,202.6 260.4,203.7 261.3,204.9 262.2,206.1 263.1,207.3 264.0,208.5 264.9,209.8 265.8,211.2 266.7,212.5 267.6,213.9 268.4,215.3 269.3,216.7 270.2,218.1 271.1,219.6 272.0,221.1 272.9,222.6 273.8,224.1 274.7,225.6 275.6,227.2 276.4,228.7 277.3,230.3 278.2,231.9 279.1,233.4 280.0,235.0" fill="none" stroke="url(#g02)" stroke-width="3.5"
      stroke-linecap="round" stroke-linejoin="round" filter="url(#glow)" opacity="0.7"/>
<!-- Vertical connector right -->
<line x1="280" y1="155" x2="280" y2="245" stroke="#FF1A1A" stroke-width="3.5" stroke-linecap="round"/>
<!-- The "3" silhouette label -->
<text x="200" y="318" text-anchor="middle" font-family="Courier New" font-size="11"
      fill="rgba(255,80,80,0.5)" letter-spacing="3">SIGNAL · ENERGY · CODE</text>
<text x="200" y="378" text-anchor="middle" font-family="Courier New,monospace" font-size="13" fill="rgba(255,255,255,0.4)" letter-spacing="4" font-weight="bold">A3KM STUDIO</text>
</svg>