<?xml version="1.0" encoding="UTF-8"?>
<svg xmlns="http://www.w3.org/2000/svg" viewBox="0 0 200 200" width="200" height="200">
  <defs>
    <radialGradient id="gB-bg" cx="50%" cy="50%" r="50%">
      <stop offset="0%" stop-color="#0c0000"/>
      <stop offset="100%" stop-color="#030000"/>
    </radialGradient>
    <filter id="fB-g">
      <feGaussianBlur stdDeviation="2.2" result="blur"/>
      <feMerge><feMergeNode in="blur"/><feMergeNode in="SourceGraphic"/></feMerge>
    </filter>
    <filter id="fB-c">
      <feGaussianBlur stdDeviation="5" result="blur"/>
      <feMerge><feMergeNode in="blur"/><feMergeNode in="SourceGraphic"/></feMerge>
    </filter>
    <clipPath id="cB">
      <circle cx="100" cy="100" r="82"/>
    </clipPath>
  </defs>
  <circle cx="100" cy="100" r="100" fill="url(#gB-bg)"/>
  <circle cx="100" cy="100" r="82" fill="none" stroke="rgba(255,30,30,0.5)" stroke-width="1.5"/>
  <circle cx="100" cy="100" r="28" fill="none" stroke="rgba(255,30,30,0.45)" stroke-width="1.5"/>
  <g clip-path="url(#cB)" fill="none" stroke="rgba(255,40,40,0.88)" stroke-width="2.2" stroke-linecap="round" filter="url(#fB-g)">
    <path d="M 128,100 Q 149.8,76.8 182,100"/>
    <path d="M 114,124.2 Q 145,131.5 141,171"/>
    <path d="M 86,124.2 Q 95.2,154.8 59,171"/>
    <path d="M 72,100 Q 50.2,123.2 18,100"/>
    <path d="M 86,75.8 Q 55,68.5 59,29"/>
    <path d="M 114,75.8 Q 104.8,45.2 141,29"/>
  </g>
  <g fill="#FF3333" opacity="0.7">
    <circle cx="179" cy="100" r="2.5"/>
    <circle cx="140" cy="169" r="2.5"/>
    <circle cx="60"  cy="169" r="2.5"/>
    <circle cx="21"  cy="100" r="2.5"/>
    <circle cx="60"  cy="31"  r="2.5"/>
    <circle cx="140" cy="31"  r="2.5"/>
  </g>
  <circle cx="100" cy="100" r="7" fill="#FF2222" filter="url(#fB-c)"/>
  <circle cx="100" cy="100" r="3" fill="#FFFFFF" opacity="0.9"/>
  <text x="100" y="174" text-anchor="middle" font-family="Arial Black,sans-serif" font-size="14" font-weight="900" fill="#FFFFFF" letter-spacing="4">A3KM</text>
  <text x="100" y="189" text-anchor="middle" font-family="Courier New,monospace" font-size="8" font-weight="700" fill="rgba(200,0,0,0.8)" letter-spacing="4">STUDIO</text>
</svg>