<?xml version="1.0" encoding="UTF-8"?>
<!-- Source: Biology/Math — Sunflower seed phyllotaxis, golden angle 137.5° -->
<svg xmlns="http://www.w3.org/2000/svg" viewBox="0 0 200 200" width="200" height="200">
  <defs>
    <filter id="fU"><feGaussianBlur stdDeviation="1" result="b"/><feMerge><feMergeNode in="b"/><feMergeNode in="SourceGraphic"/></feMerge></filter>
  </defs>
  <circle cx="100" cy="100" r="100" fill="#040000"/>
  <!-- 137 seeds arranged by golden angle -->
  <g filter="url(#fU)">
  <!-- seeds generated at golden angle 137.508deg increments -->
  <!-- Listed as computed SVG circles -->
  <circle cx="100.0" cy="96.6" r="2.0" fill="rgba(255,40,40,0.9)"/>
  <circle cx="102.9" cy="101.5" r="2.0" fill="rgba(255,40,40,0.88)"/>
  <circle cx="96.3" cy="103.4" r="2.0" fill="rgba(255,40,40,0.86)"/>
  <circle cx="95.6" cy="96.5" r="2.0" fill="rgba(255,40,40,0.84)"/>
  <circle cx="101.8" cy="94.1" r="2.1" fill="rgba(255,40,40,0.82)"/>
  <circle cx="105.6" cy="99.3" r="2.1" fill="rgba(255,40,40,0.80)"/>
  <circle cx="101.5" cy="105.3" r="2.1" fill="rgba(255,40,40,0.78)"/>
  <circle cx="94.4" cy="105.1" r="2.1" fill="rgba(255,40,40,0.76)"/>
  <circle cx="91.2" cy="99.0" r="2.1" fill="rgba(255,40,40,0.74)"/>
  <circle cx="93.5" cy="92.5" r="2.2" fill="rgba(255,40,40,0.72)"/>
  <circle cx="99.8" cy="89.8" r="2.2" fill="rgba(255,40,40,0.70)"/>
  <circle cx="106.8" cy="91.9" r="2.2" fill="rgba(255,40,40,0.68)"/>
  <circle cx="110.4" cy="97.7" r="2.2" fill="rgba(255,40,40,0.66)"/>
  <circle cx="108.6" cy="104.8" r="2.2" fill="rgba(255,40,40,0.64)"/>
  <circle cx="103.2" cy="109.8" r="2.2" fill="rgba(255,40,40,0.62)"/>
  <circle cx="95.7" cy="110.4" r="2.3" fill="rgba(255,40,40,0.60)"/>
  <circle cx="89.3" cy="106.2" r="2.3" fill="rgba(255,40,40,0.58)"/>
  <circle cx="86.3" cy="99.2" r="2.3" fill="rgba(255,40,40,0.56)"/>
  <circle cx="87.4" cy="91.8" r="2.3" fill="rgba(255,40,40,0.54)"/>
  <circle cx="92.5" cy="86.2" r="2.3" fill="rgba(255,40,40,0.52)"/>
  <circle cx="99.6" cy="83.9" r="2.3" fill="rgba(255,40,40,0.50)"/>
  <circle cx="107.2" cy="85.1" r="2.4" fill="rgba(255,40,40,0.48)"/>
  <circle cx="113.3" cy="89.7" r="2.4" fill="rgba(255,40,40,0.47)"/>
  <circle cx="116.3" cy="96.7" r="2.4" fill="rgba(255,40,40,0.46)"/>
  <circle cx="115.2" cy="104.5" r="2.4" fill="rgba(255,40,40,0.45)"/>
  <circle cx="110.4" cy="111.1" r="2.4" fill="rgba(255,40,40,0.44)"/>
  <circle cx="103.0" cy="114.9" r="2.4" fill="rgba(255,40,40,0.43)"/>
  <circle cx="94.6" cy="115.4" r="2.5" fill="rgba(255,40,40,0.42)"/>
  <circle cx="87.1" cy="112.2" r="2.5" fill="rgba(255,40,40,0.41)"/>
  <circle cx="81.9" cy="105.8" r="2.5" fill="rgba(255,40,40,0.40)"/>
  <circle cx="79.9" cy="97.9" r="2.5" fill="rgba(255,40,40,0.39)"/>
  <circle cx="81.5" cy="89.8" r="2.5" fill="rgba(255,40,40,0.38)"/>
  <circle cx="86.4" cy="83.2" r="2.5" fill="rgba(255,40,40,0.37)"/>
  <circle cx="93.3" cy="79.5" r="2.5" fill="rgba(255,40,40,0.36)"/>
  <circle cx="101.0" cy="79.0" r="2.5" fill="rgba(255,40,40,0.35)"/>
  <circle cx="108.5" cy="81.8" r="2.6" fill="rgba(255,40,40,0.34)"/>
  <circle cx="114.7" cy="87.4" r="2.6" fill="rgba(255,40,40,0.33)"/>
  <circle cx="118.7" cy="94.7" r="2.6" fill="rgba(255,40,40,0.32)"/>
  <circle cx="119.7" cy="103.0" r="2.6" fill="rgba(255,40,40,0.31)"/>
  <circle cx="117.5" cy="111.0" r="2.6" fill="rgba(255,40,40,0.30)"/>
  <circle cx="112.3" cy="117.5" r="2.6" fill="rgba(255,40,40,0.29)"/>
  <circle cx="104.9" cy="121.6" r="2.6" fill="rgba(255,40,40,0.28)"/>
  <circle cx="96.4" cy="122.6" r="2.7" fill="rgba(255,40,40,0.27)"/>
  <circle cx="88.1" cy="120.2" r="2.7" fill="rgba(255,40,40,0.26)"/>
  <circle cx="81.4" cy="114.6" r="2.7" fill="rgba(255,40,40,0.25)"/>
  <circle cx="77.5" cy="106.7" r="2.7" fill="rgba(255,40,40,0.24)"/>
  <circle cx="76.8" cy="97.7" r="2.7" fill="rgba(255,40,40,0.23)"/>
  <circle cx="79.3" cy="88.9" r="2.7" fill="rgba(255,40,40,0.22)"/>
  <circle cx="84.7" cy="81.7" r="2.7" fill="rgba(255,40,40,0.21)"/>
  <circle cx="92.0" cy="77.2" r="2.7" fill="rgba(255,40,40,0.20)"/>
  </g>
  <text x="100" y="192" text-anchor="middle" font-family="Arial Black,sans-serif" font-size="12" font-weight="900" fill="#FFFFFF" letter-spacing="5">A3KM</text>
</svg>