<?xml version="1.0" encoding="UTF-8"?>
<svg xmlns="http://www.w3.org/2000/svg" viewBox="0 0 200 200" width="200" height="200">
  <defs>
    <radialGradient id="gG-bg" cx="50%" cy="50%" r="50%">
      <stop offset="0%" stop-color="#080000"/>
      <stop offset="100%" stop-color="#010000"/>
    </radialGradient>
    <radialGradient id="gG-node" cx="50%" cy="50%" r="50%">
      <stop offset="0%" stop-color="#FF4444"/>
      <stop offset="100%" stop-color="#AA0000"/>
    </radialGradient>
    <filter id="fG-c">
      <feGaussianBlur stdDeviation="6" result="blur"/>
      <feMerge><feMergeNode in="blur"/><feMergeNode in="SourceGraphic"/></feMerge>
    </filter>
    <filter id="fG-n">
      <feGaussianBlur stdDeviation="2.5" result="blur"/>
      <feMerge><feMergeNode in="blur"/><feMergeNode in="SourceGraphic"/></feMerge>
    </filter>
    <filter id="fG-t">
      <feGaussianBlur stdDeviation="1" result="blur"/>
      <feMerge><feMergeNode in="blur"/><feMergeNode in="SourceGraphic"/></feMerge>
    </filter>
  </defs>
  <rect width="200" height="200" rx="18" fill="url(#gG-bg)"/>
  <!-- Main branches (thickness decreases away from center) -->
  <g fill="none" stroke-linecap="round">
    <path d="M 100,100 C 112,90 128,78 148,65"    stroke="rgba(255,255,255,0.55)" stroke-width="2.4"/>
    <path d="M 100,100 C 118,97 135,95 158,95"    stroke="rgba(255,255,255,0.55)" stroke-width="2.4"/>
    <path d="M 100,100 C 110,115 122,132 138,148"  stroke="rgba(255,255,255,0.55)" stroke-width="2.4"/>
    <path d="M 100,100 C 88,114 76,128 60,142"    stroke="rgba(255,255,255,0.55)" stroke-width="2.4"/>
    <path d="M 100,100 C 82,97 65,96 44,97"       stroke="rgba(255,255,255,0.55)" stroke-width="2.4"/>
    <path d="M 100,100 C 100,84 98,72 94,54"      stroke="rgba(255,255,255,0.55)" stroke-width="2.4"/>
  </g>
  <!-- Sub-branches level 1 -->
  <g fill="none" stroke="rgba(255,255,255,0.38)" stroke-linecap="round" stroke-width="1.4">
    <path d="M 148,65  C 156,57 166,52 175,46"/>
    <path d="M 148,65  C 150,55 152,44 156,35"/>
    <path d="M 158,95  C 165,88 173,84 182,80"/>
    <path d="M 158,95  C 163,103 168,110 172,117"/>
    <path d="M 138,148 C 145,155 150,162 155,170"/>
    <path d="M 138,148 C 132,158 128,168 124,176"/>
    <path d="M 60,142  C 52,150 44,156 36,162"/>
    <path d="M 60,142  C 56,152 54,163 50,172"/>
    <path d="M 44,97   C 35,92 24,88 14,85"/>
    <path d="M 44,97   C 37,104 30,110 22,116"/>
    <path d="M 94,54   C 88,44 82,36 78,24"/>
    <path d="M 94,54   C 100,44 104,36 108,24"/>
  </g>
  <!-- Sub-branches level 2 (micro) -->
  <g fill="none" stroke="rgba(255,255,255,0.2)" stroke-linecap="round" stroke-width="0.9">
    <path d="M 175,46  C 180,40 184,34 187,28"/>
    <path d="M 156,35  C 158,26 160,18 162,12"/>
    <path d="M 182,80  C 186,74 189,68 192,62"/>
    <path d="M 172,117 C 176,124 179,130 182,136"/>
    <path d="M 155,170 C 158,176 160,182 162,188"/>
    <path d="M 124,176 C 122,182 120,187 118,193"/>
    <path d="M 36,162  C 30,168 26,173 20,178"/>
    <path d="M 50,172  C 47,178 44,183 41,188"/>
    <path d="M 14,85   C 8,81 4,76 2,71"/>
    <path d="M 22,116  C 16,121 10,125 4,128"/>
    <path d="M 78,24   C 74,16 70,10 66,4"/>
    <path d="M 108,24  C 110,16 112,10 114,4"/>
  </g>
  <!-- Fork nodes (red warm glow) -->
  <g fill="rgba(255,80,80,0.75)" filter="url(#fG-n)">
    <circle cx="148" cy="65"  r="3.2"/>
    <circle cx="158" cy="95"  r="3.2"/>
    <circle cx="138" cy="148" r="3.2"/>
    <circle cx="60"  cy="142" r="3.2"/>
    <circle cx="44"  cy="97"  r="3.2"/>
    <circle cx="94"  cy="54"  r="3.2"/>
  </g>
  <!-- Tip dots -->
  <g fill="rgba(255,255,255,0.55)" filter="url(#fG-t)">
    <circle cx="175" cy="46"  r="2"/><circle cx="156" cy="35"  r="2"/>
    <circle cx="182" cy="80"  r="2"/><circle cx="172" cy="117" r="2"/>
    <circle cx="155" cy="170" r="2"/><circle cx="124" cy="176" r="2"/>
    <circle cx="36"  cy="162" r="2"/><circle cx="50"  cy="172" r="2"/>
    <circle cx="14"  cy="85"  r="2"/><circle cx="22"  cy="116" r="2"/>
    <circle cx="78"  cy="24"  r="2"/><circle cx="108" cy="24"  r="2"/>
  </g>
  <!-- Central master node -->
  <circle cx="100" cy="100" r="14" fill="#AA0000" filter="url(#fG-c)"/>
  <circle cx="100" cy="100" r="8"  fill="url(#gG-node)"/>
  <circle cx="100" cy="100" r="3.5" fill="#FFFFFF" opacity="0.9"/>
  <text x="100" y="178" text-anchor="middle" font-family="Arial Black,sans-serif" font-size="14" font-weight="900" fill="#FFFFFF" letter-spacing="4">A3KM</text>
  <text x="100" y="192" text-anchor="middle" font-family="Courier New,monospace" font-size="8" font-weight="700" fill="rgba(200,0,0,0.8)" letter-spacing="4">STUDIO</text>
  <rect width="200" height="200" rx="18" fill="none" stroke="rgba(180,0,0,0.15)" stroke-width="1.2"/>
</svg>