<?xml version="1.0" encoding="UTF-8"?>
<!-- Source: Physics — Einstein's mass-energy equivalence 1905 + engineering -->
<svg xmlns="http://www.w3.org/2000/svg" viewBox="0 0 200 200" width="200" height="200">
  <defs>
    <linearGradient id="gY" x1="0" y1="0" x2="1" y2="0"><stop offset="0%" stop-color="#FF1111"/><stop offset="50%" stop-color="#FF4444"/><stop offset="100%" stop-color="#AA0000"/></linearGradient>
    <filter id="fY"><feGaussianBlur stdDeviation="4" result="b"/><feMerge><feMergeNode in="b"/><feMergeNode in="SourceGraphic"/></feMerge></filter>
    <filter id="fYt"><feGaussianBlur stdDeviation="1.5" result="b"/><feMerge><feMergeNode in="b"/><feMergeNode in="SourceGraphic"/></feMerge></filter>
  </defs>
  <rect width="200" height="200" rx="18" fill="#040000"/>
  <!-- Engineering graph lines -->
  <g stroke="rgba(200,0,0,0.06)" stroke-width="0.8">
    <line x1="0" y1="60" x2="200" y2="60"/><line x1="0" y1="100" x2="200" y2="100"/>
    <line x1="0" y1="140" x2="200" y2="140"/>
    <line x1="60" y1="0" x2="60" y2="200"/><line x1="100" y1="0" x2="100" y2="200"/>
    <line x1="140" y1="0" x2="140" y2="200"/>
  </g>
  <!-- E=mc² in massive glowing text -->
  <text x="100" y="116" text-anchor="middle" font-family="Georgia,serif" font-size="58" font-weight="900" fill="#FF2222" opacity="0.12" filter="url(#fY)">E=mc²</text>
  <text x="100" y="116" text-anchor="middle" font-family="Georgia,serif" font-size="58" font-weight="900" fill="url(#gY)" opacity="0.9" filter="url(#fYt)">E=mc²</text>
  <!-- Photon line streaking through -->
  <line x1="0" y1="100" x2="200" y2="100" stroke="rgba(255,255,255,0.06)" stroke-width="1"/>
  <!-- Corner bracket engineering style -->
  <path d="M 14,14 L 14,36 M 14,14 L 36,14" fill="none" stroke="rgba(255,40,40,0.45)" stroke-width="2" stroke-linecap="square"/>
  <path d="M 186,14 L 186,36 M 186,14 L 164,14" fill="none" stroke="rgba(255,40,40,0.45)" stroke-width="2" stroke-linecap="square"/>
  <text x="100" y="192" text-anchor="middle" font-family="Arial Black,sans-serif" font-size="12" font-weight="900" fill="rgba(255,255,255,0.55)" letter-spacing="5">A3KM</text>
  <rect width="200" height="200" rx="18" fill="none" stroke="rgba(180,0,0,0.18)" stroke-width="1.2"/>
</svg>