<?xml version="1.0" encoding="UTF-8"?>
<!-- Source: Math/Physics — Lissajous figures (1857, Jules Antoine Lissajous) -->
<svg xmlns="http://www.w3.org/2000/svg" viewBox="0 0 200 200" width="200" height="200">
  <defs>
    <linearGradient id="gH" x1="0" y1="0" x2="1" y2="1"><stop offset="0%" stop-color="#FF3333"/><stop offset="100%" stop-color="#880000"/></linearGradient>
    <filter id="fH"><feGaussianBlur stdDeviation="2" result="b"/><feMerge><feMergeNode in="b"/><feMergeNode in="SourceGraphic"/></feMerge></filter>
  </defs>
  <rect width="200" height="200" rx="18" fill="#050000"/>
  <line x1="100" y1="22" x2="100" y2="178" stroke="rgba(255,255,255,0.06)" stroke-width="1"/>
  <line x1="22" y1="100" x2="178" y2="100" stroke="rgba(255,255,255,0.06)" stroke-width="1"/>
  <circle cx="100" cy="100" r="72" fill="none" stroke="rgba(255,0,0,0.07)" stroke-width="1"/>
  <path d="M 150.9,100.0 L 153.3,102.3 L 155.5,104.5 L 157.6,106.8 L 159.5,109.0 L 161.4,111.3 L 163.1,113.5 L 164.7,115.7 L 166.1,117.9 L 167.4,120.1 L 168.5,122.2 L 169.4,124.4 L 170.3,126.5 L 170.9,128.6 L 171.4,130.7 L 171.8,132.7 L 172.0,134.7 L 172.0,136.7 L 171.9,138.6 L 171.6,140.5 L 171.1,142.3 L 170.5,144.1 L 169.7,145.9 L 168.8,147.6 L 167.7,149.3 L 166.5,150.9 L 165.1,152.5 L 163.6,154.0 L 162.0,155.5 L 160.2,156.9 L 158.2,158.2 L 156.2,159.5 L 154.0,160.8 L 151.7,162.0 L 149.3,163.1 L 146.8,164.2 L 144.1,165.1 L 141.4,166.1 L 138.6,166.9 L 135.7,167.7 L 132.7,168.5 L 129.6,169.1 L 126.5,169.7 L 123.3,170.3 L 120.1,170.7 L 116.8,171.1 L 113.5,171.4 L 110.1,171.7 L 106.8,171.9 L 103.4,172.0 L 100.0,172.0 L 96.6,172.0 L 93.2,171.9 L 89.9,171.7 L 86.5,171.4 L 83.2,171.1 L 79.9,170.7 L 76.7,170.3 L 73.5,169.7 L 70.4,169.1 L 67.3,168.5 L 64.3,167.7 L 61.4,166.9 L 58.6,166.1 L 55.9,165.1 L 53.2,164.2 L 50.7,163.1 L 48.3,162.0 L 46.0,160.8 L 43.8,159.5 L 41.8,158.2 L 39.8,156.9 L 38.0,155.5 L 36.4,154.0 L 34.9,152.5 L 33.5,150.9 L 32.3,149.3 L 31.2,147.6 L 30.3,145.9 L 29.5,144.1 L 28.9,142.3 L 28.4,140.5 L 28.1,138.6 L 28.0,136.7 L 28.0,134.7 L 28.2,132.7 L 28.6,130.7 L 29.1,128.6 L 29.7,126.5 L 30.6,124.4 L 31.5,122.2 L 32.6,120.1 L 33.9,117.9 L 35.3,115.7 L 36.9,113.5 L 38.6,111.3 L 40.5,109.0 L 42.4,106.8 L 44.5,104.5 L 46.7,102.3 L 49.1,100.0 L 51.5,97.7 L 54.1,95.5 L 56.8,93.2 L 59.5,91.0 L 62.4,88.7 L 65.3,86.5 L 68.3,84.3 L 71.4,82.1 L 74.5,79.9 L 77.8,77.8 L 81.0,75.6 L 84.3,73.5 L 87.6,71.4 L 91.0,69.3 L 94.4,67.3 L 97.7,65.3 L 101.1,63.3 L 104.5,61.4 L 107.9,59.5 L 111.3,57.7 L 114.6,55.9 L 117.9,54.1 L 121.2,52.4 L 124.4,50.7 L 127.6,49.1 L 130.7,47.5 L 133.7,46.0 L 136.7,44.5 L 139.5,43.1 L 142.3,41.8 L 145.0,40.5 L 147.6,39.2 L 150.1,38.0 L 152.5,36.9 L 154.7,35.8 L 156.9,34.9 L 158.9,33.9 L 160.8,33.1 L 162.5,32.3 L 164.2,31.5 L 165.6,30.9 L 166.9,30.3 L 168.1,29.7 L 169.1,29.3 L 170.0,28.9 L 170.7,28.6 L 171.3,28.3 L 171.7,28.1 L 171.9,28.0 L 172.0,28.0 L 171.9,28.0 L 171.7,28.1 L 171.3,28.3 L 170.7,28.6 L 170.0,28.9 L 169.1,29.3 L 168.1,29.7 L 166.9,30.3 L 165.6,30.9 L 164.2,31.5 L 162.5,32.3 L 160.8,33.1 L 158.9,33.9 L 156.9,34.9 L 154.7,35.8 L 152.5,36.9 L 150.1,38.0 L 147.6,39.2 L 145.0,40.5 L 142.3,41.8 L 139.5,43.1 L 136.7,44.5 L 133.7,46.0 L 130.7,47.5 L 127.6,49.1 L 124.4,50.7 L 121.2,52.4 L 117.9,54.1 L 114.6,55.9 L 111.3,57.7 L 107.9,59.5 L 104.5,61.4 L 101.1,63.3 L 97.7,65.3 L 94.4,67.3 L 91.0,69.3 L 87.6,71.4 L 84.3,73.5 L 81.0,75.6 L 77.8,77.8 L 74.5,79.9 L 71.4,82.1 L 68.3,84.3 L 65.3,86.5 L 62.4,88.7 L 59.5,91.0 L 56.8,93.2 L 54.1,95.5 L 51.5,97.7 L 49.1,100.0 L 46.7,102.3 L 44.5,104.5 L 42.4,106.8 L 40.5,109.0 L 38.6,111.3 L 36.9,113.5 L 35.3,115.7 L 33.9,117.9 L 32.6,120.1 L 31.5,122.2 L 30.6,124.4 L 29.7,126.5 L 29.1,128.6 L 28.6,130.7 L 28.2,132.7 L 28.0,134.7 L 28.0,136.7 L 28.1,138.6 L 28.4,140.5 L 28.9,142.3 L 29.5,144.1 L 30.3,145.9 L 31.2,147.6 L 32.3,149.3 L 33.5,150.9 L 34.9,152.5 L 36.4,154.0 L 38.0,155.5 L 39.8,156.9 L 41.8,158.2 L 43.8,159.5 L 46.0,160.8 L 48.3,162.0 L 50.7,163.1 L 53.2,164.2 L 55.9,165.1 L 58.6,166.1 L 61.4,166.9 L 64.3,167.7 L 67.3,168.5 L 70.4,169.1 L 73.5,169.7 L 76.7,170.3 L 79.9,170.7 L 83.2,171.1 L 86.5,171.4 L 89.9,171.7 L 93.2,171.9 L 96.6,172.0 L 100.0,172.0 L 103.4,172.0 L 106.8,171.9 L 110.1,171.7 L 113.5,171.4 L 116.8,171.1 L 120.1,170.7 L 123.3,170.3 L 126.5,169.7 L 129.6,169.1 L 132.7,168.5 L 135.7,167.7 L 138.6,166.9 L 141.4,166.1 L 144.1,165.1 L 146.8,164.2 L 149.3,163.1 L 151.7,162.0 L 154.0,160.8 L 156.2,159.5 L 158.2,158.2 L 160.2,156.9 L 162.0,155.5 L 163.6,154.0 L 165.1,152.5 L 166.5,150.9 L 167.7,149.3 L 168.8,147.6 L 169.7,145.9 L 170.5,144.1 L 171.1,142.3 L 171.6,140.5 L 171.9,138.6 L 172.0,136.7 L 172.0,134.7 L 171.8,132.7 L 171.4,130.7 L 170.9,128.6 L 170.3,126.5 L 169.4,124.4 L 168.5,122.2 L 167.4,120.1 L 166.1,117.9 L 164.7,115.7 L 163.1,113.5 L 161.4,111.3 L 159.5,109.0 L 157.6,106.8 L 155.5,104.5 L 153.3,102.3 L 150.9,100.0 L 148.5,97.7 L 145.9,95.5 L 143.2,93.2 L 140.5,91.0 L 137.6,88.7 L 134.7,86.5 L 131.7,84.3 L 128.6,82.1 L 125.5,79.9 L 122.2,77.8 L 119.0,75.6 L 115.7,73.5 L 112.4,71.4 L 109.0,69.3 L 105.6,67.3 L 102.3,65.3 L 98.9,63.3 L 95.5,61.4 L 92.1,59.5 L 88.7,57.7 L 85.4,55.9 L 82.1,54.1 L 78.8,52.4 L 75.6,50.7 L 72.4,49.1 L 69.3,47.5 L 66.3,46.0 L 63.3,44.5 L 60.5,43.1 L 57.7,41.8 L 55.0,40.5 L 52.4,39.2 L 49.9,38.0 L 47.5,36.9 L 45.3,35.8 L 43.1,34.9 L 41.1,33.9 L 39.2,33.1 L 37.5,32.3 L 35.8,31.5 L 34.4,30.9 L 33.1,30.3 L 31.9,29.7 L 30.9,29.3 L 30.0,28.9 L 29.3,28.6 L 28.7,28.3 L 28.3,28.1 L 28.1,28.0 L 28.0,28.0 L 28.1,28.0 L 28.3,28.1 L 28.7,28.3 L 29.3,28.6 L 30.0,28.9 L 30.9,29.3 L 31.9,29.7 L 33.1,30.3 L 34.4,30.9 L 35.8,31.5 L 37.5,32.3 L 39.2,33.1 L 41.1,33.9 L 43.1,34.9 L 45.3,35.8 L 47.5,36.9 L 49.9,38.0 L 52.4,39.2 L 55.0,40.5 L 57.7,41.8 L 60.5,43.1 L 63.3,44.5 L 66.3,46.0 L 69.3,47.5 L 72.4,49.1 L 75.6,50.7 L 78.8,52.4 L 82.1,54.1 L 85.4,55.9 L 88.7,57.7 L 92.1,59.5 L 95.5,61.4 L 98.9,63.3 L 102.3,65.3 L 105.6,67.3 L 109.0,69.3 L 112.4,71.4 L 115.7,73.5 L 119.0,75.6 L 122.2,77.8 L 125.5,79.9 L 128.6,82.1 L 131.7,84.3 L 134.7,86.5 L 137.6,88.7 L 140.5,91.0 L 143.2,93.2 L 145.9,95.5 L 148.5,97.7 L 150.9,100.0" fill="none" stroke="url(#gH)" stroke-width="2.2" stroke-linecap="round" stroke-linejoin="round" filter="url(#fH)"/>
  <text x="100" y="192" text-anchor="middle" font-family="Arial Black,sans-serif" font-size="12" font-weight="900" fill="#FFFFFF" letter-spacing="5">A3KM</text>
  <rect width="200" height="200" rx="18" fill="none" stroke="rgba(180,0,0,0.18)" stroke-width="1.2"/>
</svg>