<?xml version="1.0" encoding="UTF-8"?>
<!-- Source: Math — Rhodonea curve r=cos(nθ), n=5 petals -->
<svg xmlns="http://www.w3.org/2000/svg" viewBox="0 0 200 200" width="200" height="200">
  <defs>
    <radialGradient id="gI" cx="50%" cy="50%" r="50%"><stop offset="0%" stop-color="#FF4444"/><stop offset="100%" stop-color="#660000"/></radialGradient>
    <filter id="fI"><feGaussianBlur stdDeviation="2.8" result="b"/><feMerge><feMergeNode in="b"/><feMergeNode in="SourceGraphic"/></feMerge></filter>
  </defs>
  <rect width="200" height="200" rx="100" fill="#060000"/>
  <path d="M 172.0,100.0 L 171.9,100.8 L 171.6,101.5 L 171.1,102.2 L 170.4,102.9 L 169.5,103.6 L 168.3,104.3 L 167.0,104.9 L 165.5,105.5 L 163.9,106.0 L 162.0,106.5 L 160.0,106.9 L 157.8,107.3 L 155.4,107.6 L 152.9,107.8 L 150.3,108.0 L 147.5,108.0 L 144.6,108.0 L 141.6,107.9 L 138.4,107.8 L 135.2,107.5 L 131.9,107.1 L 128.5,106.7 L 125.1,106.2 L 121.6,105.5 L 118.0,104.8 L 114.4,104.0 L 110.8,103.1 L 107.2,102.2 L 103.6,101.1 L 100.0,100.0 L 103.6,101.2 L 107.1,102.5 L 110.6,103.8 L 114.0,105.2 L 117.4,106.7 L 120.7,108.2 L 123.9,109.7 L 127.0,111.3 L 130.0,113.0 L 132.9,114.6 L 135.7,116.3 L 138.3,118.0 L 140.8,119.7 L 143.2,121.4 L 145.4,123.1 L 147.4,124.8 L 149.3,126.4 L 151.0,128.1 L 152.6,129.6 L 154.0,131.2 L 155.2,132.7 L 156.3,134.1 L 157.1,135.4 L 157.8,136.7 L 158.3,137.9 L 158.7,139.0 L 158.8,140.0 L 158.8,140.9 L 158.6,141.7 L 158.2,142.3 L 157.7,142.9 L 157.0,143.3 L 156.2,143.6 L 155.2,143.7 L 154.0,143.8 L 152.8,143.6 L 151.3,143.4 L 149.8,143.0 L 148.1,142.4 L 146.3,141.7 L 144.4,140.9 L 142.5,139.9 L 140.4,138.7 L 138.2,137.4 L 136.0,136.0 L 133.7,134.4 L 131.4,132.7 L 129.0,130.9 L 126.5,128.9 L 124.1,126.8 L 121.6,124.5 L 119.1,122.2 L 116.7,119.7 L 114.2,117.1 L 111.7,114.5 L 109.3,111.7 L 106.9,108.9 L 104.6,106.0 L 102.2,103.0 L 100.0,100.0 L 102.2,103.1 L 104.3,106.2 L 106.3,109.3 L 108.3,112.5 L 110.1,115.6 L 111.9,118.8 L 113.6,121.9 L 115.2,125.0 L 116.6,128.1 L 118.0,131.2 L 119.3,134.2 L 120.4,137.1 L 121.4,139.9 L 122.3,142.7 L 123.1,145.4 L 123.8,147.9 L 124.4,150.4 L 124.8,152.7 L 125.1,154.9 L 125.4,157.0 L 125.5,158.9 L 125.5,160.6 L 125.4,162.2 L 125.2,163.7 L 124.9,164.9 L 124.5,166.0 L 124.1,166.9 L 123.5,167.6 L 122.9,168.1 L 122.2,168.5 L 121.5,168.6 L 120.7,168.5 L 119.8,168.3 L 118.9,167.8 L 118.0,167.2 L 117.0,166.3 L 116.0,165.3 L 115.0,164.0 L 114.0,162.6 L 113.0,161.0 L 111.9,159.2 L 110.9,157.2 L 109.9,155.1 L 108.9,152.8 L 108.0,150.3 L 107.0,147.7 L 106.1,144.9 L 105.3,142.0 L 104.5,139.0 L 103.8,135.8 L 103.1,132.5 L 102.5,129.2 L 101.9,125.7 L 101.4,122.2 L 101.0,118.6 L 100.6,115.0 L 100.4,111.3 L 100.2,107.5 L 100.0,103.8 L 100.0,100.0 L 100.0,103.8 L 99.8,107.5 L 99.6,111.3 L 99.4,115.0 L 99.0,118.6 L 98.6,122.2 L 98.1,125.7 L 97.5,129.2 L 96.9,132.5 L 96.2,135.8 L 95.5,139.0 L 94.7,142.0 L 93.9,144.9 L 93.0,147.7 L 92.0,150.3 L 91.1,152.8 L 90.1,155.1 L 89.1,157.2 L 88.1,159.2 L 87.0,161.0 L 86.0,162.6 L 85.0,164.0 L 84.0,165.3 L 83.0,166.3 L 82.0,167.2 L 81.1,167.8 L 80.2,168.3 L 79.3,168.5 L 78.5,168.6 L 77.8,168.5 L 77.1,168.1 L 76.5,167.6 L 75.9,166.9 L 75.5,166.0 L 75.1,164.9 L 74.8,163.7 L 74.6,162.2 L 74.5,160.6 L 74.5,158.9 L 74.6,157.0 L 74.9,154.9 L 75.2,152.7 L 75.6,150.4 L 76.2,147.9 L 76.9,145.4 L 77.7,142.7 L 78.6,139.9 L 79.6,137.1 L 80.7,134.2 L 82.0,131.2 L 83.4,128.1 L 84.8,125.0 L 86.4,121.9 L 88.1,118.8 L 89.9,115.6 L 91.7,112.5 L 93.7,109.3 L 95.7,106.2 L 97.8,103.1 L 100.0,100.0 L 97.8,103.0 L 95.4,106.0 L 93.1,108.9 L 90.7,111.7 L 88.3,114.5 L 85.8,117.1 L 83.3,119.7 L 80.9,122.2 L 78.4,124.5 L 75.9,126.8 L 73.5,128.9 L 71.0,130.9 L 68.6,132.7 L 66.3,134.4 L 64.0,136.0 L 61.8,137.4 L 59.6,138.7 L 57.5,139.9 L 55.6,140.9 L 53.7,141.7 L 51.9,142.4 L 50.2,143.0 L 48.7,143.4 L 47.2,143.6 L 46.0,143.8 L 44.8,143.7 L 43.8,143.6 L 43.0,143.3 L 42.3,142.9 L 41.8,142.3 L 41.4,141.7 L 41.2,140.9 L 41.2,140.0 L 41.3,139.0 L 41.7,137.9 L 42.2,136.7 L 42.9,135.4 L 43.7,134.1 L 44.8,132.7 L 46.0,131.2 L 47.4,129.6 L 49.0,128.1 L 50.7,126.4 L 52.6,124.8 L 54.6,123.1 L 56.8,121.4 L 59.2,119.7 L 61.7,118.0 L 64.3,116.3 L 67.1,114.6 L 70.0,113.0 L 73.0,111.3 L 76.1,109.7 L 79.3,108.2 L 82.6,106.7 L 86.0,105.2 L 89.4,103.8 L 92.9,102.5 L 96.4,101.2 L 100.0,100.0 L 96.4,101.1 L 92.8,102.2 L 89.2,103.1 L 85.6,104.0 L 82.0,104.8 L 78.4,105.5 L 74.9,106.2 L 71.5,106.7 L 68.1,107.1 L 64.8,107.5 L 61.6,107.8 L 58.4,107.9 L 55.4,108.0 L 52.5,108.0 L 49.7,108.0 L 47.1,107.8 L 44.6,107.6 L 42.2,107.3 L 40.0,106.9 L 38.0,106.5 L 36.1,106.0 L 34.5,105.5 L 33.0,104.9 L 31.7,104.3 L 30.5,103.6 L 29.6,102.9 L 28.9,102.2 L 28.4,101.5 L 28.1,100.8 L 28.0,100.0 L 28.1,99.2 L 28.4,98.5 L 28.9,97.8 L 29.6,97.1 L 30.5,96.4 L 31.7,95.7 L 33.0,95.1 L 34.5,94.5 L 36.1,94.0 L 38.0,93.5 L 40.0,93.1 L 42.2,92.7 L 44.6,92.4 L 47.1,92.2 L 49.7,92.0 L 52.5,92.0 L 55.4,92.0 L 58.4,92.1 L 61.6,92.2 L 64.8,92.5 L 68.1,92.9 L 71.5,93.3 L 74.9,93.8 L 78.4,94.5 L 82.0,95.2 L 85.6,96.0 L 89.2,96.9 L 92.8,97.8 L 96.4,98.9 L 100.0,100.0 L 96.4,98.8 L 92.9,97.5 L 89.4,96.2 L 86.0,94.8 L 82.6,93.3 L 79.3,91.8 L 76.1,90.3 L 73.0,88.7 L 70.0,87.0 L 67.1,85.4 L 64.3,83.7 L 61.7,82.0 L 59.2,80.3 L 56.8,78.6 L 54.6,76.9 L 52.6,75.2 L 50.7,73.6 L 49.0,71.9 L 47.4,70.4 L 46.0,68.8 L 44.8,67.3 L 43.7,65.9 L 42.9,64.6 L 42.2,63.3 L 41.7,62.1 L 41.3,61.0 L 41.2,60.0 L 41.2,59.1 L 41.4,58.3 L 41.8,57.7 L 42.3,57.1 L 43.0,56.7 L 43.8,56.4 L 44.8,56.3 L 46.0,56.2 L 47.2,56.4 L 48.7,56.6 L 50.2,57.0 L 51.9,57.6 L 53.7,58.3 L 55.6,59.1 L 57.5,60.1 L 59.6,61.3 L 61.8,62.6 L 64.0,64.0 L 66.3,65.6 L 68.6,67.3 L 71.0,69.1 L 73.5,71.1 L 75.9,73.2 L 78.4,75.5 L 80.9,77.8 L 83.3,80.3 L 85.8,82.9 L 88.3,85.5 L 90.7,88.3 L 93.1,91.1 L 95.4,94.0 L 97.8,97.0 L 100.0,100.0 L 97.8,96.9 L 95.7,93.8 L 93.7,90.7 L 91.7,87.5 L 89.9,84.4 L 88.1,81.2 L 86.4,78.1 L 84.8,75.0 L 83.4,71.9 L 82.0,68.8 L 80.7,65.8 L 79.6,62.9 L 78.6,60.1 L 77.7,57.3 L 76.9,54.6 L 76.2,52.1 L 75.6,49.6 L 75.2,47.3 L 74.9,45.1 L 74.6,43.0 L 74.5,41.1 L 74.5,39.4 L 74.6,37.8 L 74.8,36.3 L 75.1,35.1 L 75.5,34.0 L 75.9,33.1 L 76.5,32.4 L 77.1,31.9 L 77.8,31.5 L 78.5,31.4 L 79.3,31.5 L 80.2,31.7 L 81.1,32.2 L 82.0,32.8 L 83.0,33.7 L 84.0,34.7 L 85.0,36.0 L 86.0,37.4 L 87.0,39.0 L 88.1,40.8 L 89.1,42.8 L 90.1,44.9 L 91.1,47.2 L 92.0,49.7 L 93.0,52.3 L 93.9,55.1 L 94.7,58.0 L 95.5,61.0 L 96.2,64.2 L 96.9,67.5 L 97.5,70.8 L 98.1,74.3 L 98.6,77.8 L 99.0,81.4 L 99.4,85.0 L 99.6,88.7 L 99.8,92.5 L 100.0,96.2 L 100.0,100.0 L 100.0,96.2 L 100.2,92.5 L 100.4,88.7 L 100.6,85.0 L 101.0,81.4 L 101.4,77.8 L 101.9,74.3 L 102.5,70.8 L 103.1,67.5 L 103.8,64.2 L 104.5,61.0 L 105.3,58.0 L 106.1,55.1 L 107.0,52.3 L 108.0,49.7 L 108.9,47.2 L 109.9,44.9 L 110.9,42.8 L 111.9,40.8 L 113.0,39.0 L 114.0,37.4 L 115.0,36.0 L 116.0,34.7 L 117.0,33.7 L 118.0,32.8 L 118.9,32.2 L 119.8,31.7 L 120.7,31.5 L 121.5,31.4 L 122.2,31.5 L 122.9,31.9 L 123.5,32.4 L 124.1,33.1 L 124.5,34.0 L 124.9,35.1 L 125.2,36.3 L 125.4,37.8 L 125.5,39.4 L 125.5,41.1 L 125.4,43.0 L 125.1,45.1 L 124.8,47.3 L 124.4,49.6 L 123.8,52.1 L 123.1,54.6 L 122.3,57.3 L 121.4,60.1 L 120.4,62.9 L 119.3,65.8 L 118.0,68.8 L 116.6,71.9 L 115.2,75.0 L 113.6,78.1 L 111.9,81.2 L 110.1,84.4 L 108.3,87.5 L 106.3,90.7 L 104.3,93.8 L 102.2,96.9 L 100.0,100.0 L 102.2,97.0 L 104.6,94.0 L 106.9,91.1 L 109.3,88.3 L 111.7,85.5 L 114.2,82.9 L 116.7,80.3 L 119.1,77.8 L 121.6,75.5 L 124.1,73.2 L 126.5,71.1 L 129.0,69.1 L 131.4,67.3 L 133.7,65.6 L 136.0,64.0 L 138.2,62.6 L 140.4,61.3 L 142.5,60.1 L 144.4,59.1 L 146.3,58.3 L 148.1,57.6 L 149.8,57.0 L 151.3,56.6 L 152.8,56.4 L 154.0,56.2 L 155.2,56.3 L 156.2,56.4 L 157.0,56.7 L 157.7,57.1 L 158.2,57.7 L 158.6,58.3 L 158.8,59.1 L 158.8,60.0 L 158.7,61.0 L 158.3,62.1 L 157.8,63.3 L 157.1,64.6 L 156.3,65.9 L 155.2,67.3 L 154.0,68.8 L 152.6,70.4 L 151.0,71.9 L 149.3,73.6 L 147.4,75.2 L 145.4,76.9 L 143.2,78.6 L 140.8,80.3 L 138.3,82.0 L 135.7,83.7 L 132.9,85.4 L 130.0,87.0 L 127.0,88.7 L 123.9,90.3 L 120.7,91.8 L 117.4,93.3 L 114.0,94.8 L 110.6,96.2 L 107.1,97.5 L 103.6,98.8 L 100.0,100.0 L 103.6,98.9 L 107.2,97.8 L 110.8,96.9 L 114.4,96.0 L 118.0,95.2 L 121.6,94.5 L 125.1,93.8 L 128.5,93.3 L 131.9,92.9 L 135.2,92.5 L 138.4,92.2 L 141.6,92.1 L 144.6,92.0 L 147.5,92.0 L 150.3,92.0 L 152.9,92.2 L 155.4,92.4 L 157.8,92.7 L 160.0,93.1 L 162.0,93.5 L 163.9,94.0 L 165.5,94.5 L 167.0,95.1 L 168.3,95.7 L 169.5,96.4 L 170.4,97.1 L 171.1,97.8 L 171.6,98.5 L 171.9,99.2 L 172.0,100.0" fill="rgba(180,0,0,0.08)" stroke="url(#gI)" stroke-width="2" stroke-linecap="round" filter="url(#fI)"/>
  <circle cx="100" cy="100" r="5" fill="#FF2222" filter="url(#fI)"/>
  <circle cx="100" cy="100" r="2.2" fill="#FFFFFF" opacity="0.9"/>
  <text x="100" y="192" text-anchor="middle" font-family="Arial Black,sans-serif" font-size="12" font-weight="900" fill="#FFFFFF" letter-spacing="5">A3KM</text>
</svg>