<?xml version="1.0" encoding="UTF-8"?>
<!-- Source: Quantum Physics — Young's double-slit experiment, 1801 -->
<svg xmlns="http://www.w3.org/2000/svg" viewBox="0 0 200 200" width="200" height="200">
  <defs>
    <filter id="fK"><feGaussianBlur stdDeviation="1.2" result="b"/><feMerge><feMergeNode in="b"/><feMergeNode in="SourceGraphic"/></feMerge></filter>
  </defs>
  <rect width="200" height="200" rx="18" fill="#040000"/>
  <clipPath id="cK"><rect x="0" y="0" width="200" height="155"/></clipPath>
  <g clip-path="url(#cK)" filter="url(#fK)"><circle cx="85" cy="90" r="4" fill="none" stroke="rgba(255,40,40,0.55)" stroke-width="0.9"/><circle cx="115" cy="90" r="4" fill="none" stroke="rgba(255,40,40,0.55)" stroke-width="0.9"/><circle cx="85" cy="90" r="11" fill="none" stroke="rgba(255,40,40,0.55)" stroke-width="0.9"/><circle cx="115" cy="90" r="11" fill="none" stroke="rgba(255,40,40,0.55)" stroke-width="0.9"/><circle cx="85" cy="90" r="18" fill="none" stroke="rgba(255,40,40,0.55)" stroke-width="0.9"/><circle cx="115" cy="90" r="18" fill="none" stroke="rgba(255,40,40,0.55)" stroke-width="0.9"/><circle cx="85" cy="90" r="25" fill="none" stroke="rgba(255,40,40,0.55)" stroke-width="0.9"/><circle cx="115" cy="90" r="25" fill="none" stroke="rgba(255,40,40,0.55)" stroke-width="0.9"/><circle cx="85" cy="90" r="32" fill="none" stroke="rgba(255,40,40,0.55)" stroke-width="0.9"/><circle cx="115" cy="90" r="32" fill="none" stroke="rgba(255,40,40,0.55)" stroke-width="0.9"/><circle cx="85" cy="90" r="39" fill="none" stroke="rgba(255,40,40,0.55)" stroke-width="0.9"/><circle cx="115" cy="90" r="39" fill="none" stroke="rgba(255,40,40,0.55)" stroke-width="0.9"/><circle cx="85" cy="90" r="46" fill="none" stroke="rgba(255,40,40,0.55)" stroke-width="0.9"/><circle cx="115" cy="90" r="46" fill="none" stroke="rgba(255,40,40,0.55)" stroke-width="0.9"/><circle cx="85" cy="90" r="53" fill="none" stroke="rgba(255,40,40,0.55)" stroke-width="0.9"/><circle cx="115" cy="90" r="53" fill="none" stroke="rgba(255,40,40,0.55)" stroke-width="0.9"/><circle cx="85" cy="90" r="60" fill="none" stroke="rgba(255,40,40,0.55)" stroke-width="0.9"/><circle cx="115" cy="90" r="60" fill="none" stroke="rgba(255,40,40,0.55)" stroke-width="0.9"/><circle cx="85" cy="90" r="67" fill="none" stroke="rgba(255,40,40,0.55)" stroke-width="0.9"/><circle cx="115" cy="90" r="67" fill="none" stroke="rgba(255,40,40,0.55)" stroke-width="0.9"/></g>
  <rect x="8" y="85" width="28" height="90" rx="3" fill="#0a0000"/><rect x="164" y="85" width="28" height="90" rx="3" fill="#0a0000"/>
  <rect x="8" y="175" width="184" height="17" rx="3" fill="rgba(255,40,40,0.06)" stroke="rgba(255,40,40,0.25)" stroke-width="1"/>
  <line x1="85" y1="90" x2="85" y2="175" stroke="rgba(255,80,80,0.22)" stroke-width="2" stroke-dasharray="3 3"/>
  <line x1="115" y1="90" x2="100" y2="175" stroke="rgba(255,80,80,0.22)" stroke-width="2" stroke-dasharray="3 3"/>
  <line x1="85" y1="90" x2="100" y2="175" stroke="rgba(255,80,80,0.22)" stroke-width="2" stroke-dasharray="3 3"/>
  <line x1="115" y1="90" x2="115" y2="175" stroke="rgba(255,80,80,0.22)" stroke-width="2" stroke-dasharray="3 3"/>
  <rect x="36" y="82" width="128" height="16" rx="3" fill="#080000" stroke="rgba(255,255,255,0.18)" stroke-width="1"/>
  <rect x="81" y="82" width="8" height="16" rx="1" fill="#0a0000" stroke="rgba(255,255,255,0.55)" stroke-width="0.8"/>
  <rect x="111" y="82" width="8" height="16" rx="1" fill="#0a0000" stroke="rgba(255,255,255,0.55)" stroke-width="0.8"/>
  <text x="100" y="192" text-anchor="middle" font-family="Arial Black,sans-serif" font-size="12" font-weight="900" fill="#FFFFFF" letter-spacing="5">A3KM</text>
  <rect width="200" height="200" rx="18" fill="none" stroke="rgba(180,0,0,0.18)" stroke-width="1.2"/>
</svg>