<?xml version="1.0" encoding="UTF-8"?>
<!-- Source: Biology/Mathematics — Lepidoptera wing venation + bilateral symmetry -->
<svg xmlns="http://www.w3.org/2000/svg" viewBox="0 0 200 200" width="200" height="200">
  <defs>
    <linearGradient id="gQ1" x1="0" y1="0" x2="1" y2="1"><stop offset="0%" stop-color="#FF1111" stop-opacity="0.9"/><stop offset="100%" stop-color="#880000" stop-opacity="0.4"/></linearGradient>
    <linearGradient id="gQ2" x1="1" y1="0" x2="0" y2="1"><stop offset="0%" stop-color="#FF1111" stop-opacity="0.9"/><stop offset="100%" stop-color="#880000" stop-opacity="0.4"/></linearGradient>
    <filter id="fQ"><feGaussianBlur stdDeviation="4" result="b"/><feMerge><feMergeNode in="b"/><feMergeNode in="SourceGraphic"/></feMerge></filter>
  </defs>
  <rect width="200" height="200" rx="100" fill="#040000"/>
  <!-- Left upper wing -->
  <path d="M 100,90 C 80,60 38,30 28,55 C 18,80 52,110 100,90 Z" fill="url(#gQ1)" opacity="0.85"/>
  <!-- Right upper wing -->
  <path d="M 100,90 C 120,60 162,30 172,55 C 182,80 148,110 100,90 Z" fill="url(#gQ2)" opacity="0.85"/>
  <!-- Left lower wing -->
  <path d="M 100,105 C 75,115 35,130 30,155 C 25,175 60,165 100,138 Z" fill="url(#gQ1)" opacity="0.7"/>
  <!-- Right lower wing -->
  <path d="M 100,105 C 125,115 165,130 170,155 C 175,175 140,165 100,138 Z" fill="url(#gQ2)" opacity="0.7"/>
  <!-- Wing veins left -->
  <g fill="none" stroke="rgba(255,255,255,0.25)" stroke-width="0.9" stroke-linecap="round">
    <path d="M 100,90 C 80,70 50,48 28,55"/>
    <path d="M 85,82 C 70,68 48,52 38,60"/>
    <path d="M 92,95 C 70,95 48,90 28,55"/>
    <path d="M 100,105 C 78,118 52,130 30,155"/>
    <path d="M 92,118 C 76,125 58,135 44,150"/>
  </g>
  <!-- Wing veins right (mirror) -->
  <g fill="none" stroke="rgba(255,255,255,0.25)" stroke-width="0.9" stroke-linecap="round">
    <path d="M 100,90 C 120,70 150,48 172,55"/>
    <path d="M 115,82 C 130,68 152,52 162,60"/>
    <path d="M 108,95 C 130,95 152,90 172,55"/>
    <path d="M 100,105 C 122,118 148,130 170,155"/>
    <path d="M 108,118 C 124,125 142,135 156,150"/>
  </g>
  <!-- glow overlay -->
  <path d="M 100,90 C 80,60 38,30 28,55 C 18,80 52,110 100,90 Z" fill="none" stroke="rgba(255,60,60,0.4)" stroke-width="1.5" filter="url(#fQ)"/>
  <path d="M 100,90 C 120,60 162,30 172,55 C 182,80 148,110 100,90 Z" fill="none" stroke="rgba(255,60,60,0.4)" stroke-width="1.5" filter="url(#fQ)"/>
  <!-- Body -->
  <path d="M 100,65 C 96,80 96,130 100,148 C 104,130 104,80 100,65 Z" fill="#FFFFFF" opacity="0.65"/>
  <!-- Antennae -->
  <path d="M 100,65 C 86,48 70,38 62,28" fill="none" stroke="rgba(255,255,255,0.5)" stroke-width="1.2" stroke-linecap="round"/>
  <path d="M 100,65 C 114,48 130,38 138,28" fill="none" stroke="rgba(255,255,255,0.5)" stroke-width="1.2" stroke-linecap="round"/>
  <circle cx="62" cy="28" r="2.5" fill="#FF3333"/>
  <circle cx="138" cy="28" r="2.5" fill="#FF3333"/>
  <text x="100" y="192" text-anchor="middle" font-family="Arial Black,sans-serif" font-size="12" font-weight="900" fill="#FFFFFF" letter-spacing="5">A3KM</text>
</svg>