<?xml version="1.0" encoding="UTF-8"?>
<!-- Source: Math — Roger Penrose quasicrystal aperiodic tiling, 1974 -->
<svg xmlns="http://www.w3.org/2000/svg" viewBox="0 0 200 200" width="200" height="200">
  <defs>
    <filter id="fN"><feGaussianBlur stdDeviation="1.5" result="b"/><feMerge><feMergeNode in="b"/><feMergeNode in="SourceGraphic"/></feMerge></filter>
  </defs>
  <circle cx="100" cy="100" r="100" fill="#040000"/>
  <circle cx="100" cy="100" r="85" fill="none" stroke="rgba(255,0,0,0.12)" stroke-width="1"/>
  <polygon points="100,100 100.0,48.0 109.9,69.6 130.6,57.9" fill="rgba(255,40,40,0.75)" stroke="rgba(0,0,0,0.4)" stroke-width="0.8"/>
  <polygon points="100,100 130.6,57.9 125.9,81.2 149.5,83.9" fill="rgba(255,255,255,0.3)" stroke="rgba(0,0,0,0.4)" stroke-width="0.8"/>
  <polygon points="100,100 149.5,83.9 132.0,100.0 149.5,116.1" fill="rgba(255,40,40,0.75)" stroke="rgba(0,0,0,0.4)" stroke-width="0.8"/>
  <polygon points="100,100 149.5,116.1 125.9,118.8 130.6,142.1" fill="rgba(255,255,255,0.3)" stroke="rgba(0,0,0,0.4)" stroke-width="0.8"/>
  <polygon points="100,100 130.6,142.1 109.9,130.4 100.0,152.0" fill="rgba(255,40,40,0.75)" stroke="rgba(0,0,0,0.4)" stroke-width="0.8"/>
  <polygon points="100,100 100.0,152.0 90.1,130.4 69.4,142.1" fill="rgba(255,255,255,0.3)" stroke="rgba(0,0,0,0.4)" stroke-width="0.8"/>
  <polygon points="100,100 69.4,142.1 74.1,118.8 50.5,116.1" fill="rgba(255,40,40,0.75)" stroke="rgba(0,0,0,0.4)" stroke-width="0.8"/>
  <polygon points="100,100 50.5,116.1 68.0,100.0 50.5,83.9" fill="rgba(255,255,255,0.3)" stroke="rgba(0,0,0,0.4)" stroke-width="0.8"/>
  <polygon points="100,100 50.5,83.9 74.1,81.2 69.4,57.9" fill="rgba(255,40,40,0.75)" stroke="rgba(0,0,0,0.4)" stroke-width="0.8"/>
  <polygon points="100,100 69.4,57.9 90.1,69.6 100.0,48.0" fill="rgba(255,255,255,0.3)" stroke="rgba(0,0,0,0.4)" stroke-width="0.8"/>
  <circle cx="100" cy="100" r="10" fill="#AA0000" filter="url(#fN)"/>
  <circle cx="100" cy="100" r="5" fill="#FF3333"/>
  <circle cx="100" cy="100" r="2" fill="#FFFFFF" opacity="0.9"/>
  <text x="100" y="192" text-anchor="middle" font-family="Arial Black,sans-serif" font-size="12" font-weight="900" fill="#FFFFFF" letter-spacing="5">A3KM</text>
</svg>