<?xml version="1.0" encoding="UTF-8"?>
<!-- Source: Quantum Mechanics — Schrödinger wave equation probability density -->
<svg xmlns="http://www.w3.org/2000/svg" viewBox="0 0 200 200" width="200" height="200">
  <defs>
    <linearGradient id="gP_c" x1="0" y1="0" x2="1" y2="0"><stop offset="0%" stop-color="#FF2222" stop-opacity="0"/><stop offset="35%" stop-color="#FF2222" stop-opacity="0.9"/><stop offset="65%" stop-color="#FF2222" stop-opacity="0.9"/><stop offset="100%" stop-color="#FF2222" stop-opacity="0"/></linearGradient>
    <filter id="fP"><feGaussianBlur stdDeviation="2.5" result="b"/><feMerge><feMergeNode in="b"/><feMergeNode in="SourceGraphic"/></feMerge></filter>
  </defs>
  <rect width="200" height="200" rx="18" fill="#040000"/>
  <!-- probability density |ψ|² envelope bell curve (Gaussian) -->
  <path d="M 18,100 C 30,100 40,100 50,99 C 60,98 65,90 70,78 C 75,66 78,52 85,42 C 92,32 100,28 100,28 C 100,28 108,32 115,42 C 122,52 125,66 130,78 C 135,90 140,98 150,99 C 160,100 170,100 182,100"
        fill="none" stroke="url(#gP_c)" stroke-width="2.5" stroke-linecap="round" filter="url(#fP)"/>
  <!-- ψ standing wave inside -->
  <path d="M 40,100 C 50,70 55,55 60,70 C 65,85 70,95 75,85 C 80,75 85,55 90,50 C 95,45 100,43 105,50 C 110,57 115,75 120,85 C 125,95 130,85 135,70 C 140,55 145,70 160,100"
        fill="none" stroke="rgba(255,255,255,0.55)" stroke-width="1.5" stroke-linecap="round"/>
  <!-- base line -->
  <line x1="18" y1="100" x2="182" y2="100" stroke="rgba(255,255,255,0.12)" stroke-width="1" stroke-dasharray="4 3"/>
  <!-- peak dot -->
  <circle cx="100" cy="28" r="4" fill="#FF2222" filter="url(#fP)"/>
  <circle cx="100" cy="28" r="1.8" fill="#FFFFFF" opacity="0.9"/>
  <!-- ψ symbol -->
  <text x="16" y="24" font-family="serif" font-size="18" fill="rgba(255,60,60,0.4)" font-style="italic">ψ</text>
  <text x="100" y="192" text-anchor="middle" font-family="Arial Black,sans-serif" font-size="12" font-weight="900" fill="#FFFFFF" letter-spacing="5">A3KM</text>
  <rect width="200" height="200" rx="18" fill="none" stroke="rgba(180,0,0,0.18)" stroke-width="1.2"/>
</svg>