<?xml version="1.0" encoding="UTF-8"?>
<!-- Source: Mathematics/Topology — simplest non-trivial knot -->
<svg xmlns="http://www.w3.org/2000/svg" viewBox="0 0 200 200" width="200" height="200">
  <defs>
    <linearGradient id="gL" x1="0" y1="0" x2="1" y2="1"><stop offset="0%" stop-color="#FF2222"/><stop offset="100%" stop-color="#AA0000"/></linearGradient>
    <filter id="fL"><feGaussianBlur stdDeviation="3" result="b"/><feMerge><feMergeNode in="b"/><feMergeNode in="SourceGraphic"/></feMerge></filter>
  </defs>
  <rect width="200" height="200" rx="100" fill="#050000"/>
  <path d="M 100.0,61.0 L 102.3,61.0 L 104.6,61.1 L 106.9,61.2 L 109.2,61.3 L 111.5,61.4 L 113.8,61.6 L 116.1,61.8 L 118.4,62.1 L 120.6,62.4 L 122.9,62.7 L 125.2,63.0 L 127.4,63.4 L 129.6,63.8 L 131.9,64.3 L 134.1,64.8 L 136.3,65.3 L 138.5,65.8 L 140.6,66.4 L 142.8,67.0 L 144.9,67.6 L 147.1,68.3 L 149.2,69.0 L 151.3,69.7 L 153.3,70.5 L 155.4,71.3 L 157.4,72.1 L 159.4,73.0 L 161.4,73.8 L 163.4,74.7 L 165.3,75.7 L 167.2,76.6 L 169.1,77.6 L 171.0,78.6 L 172.8,79.6 L 174.7,80.7 L 176.4,81.8 L 178.2,82.9 L 179.9,84.0 L 181.6,85.1 L 183.3,86.3 L 184.9,87.5 L 186.5,88.7 L 188.1,90.0 L 189.7,91.2 L 191.2,92.5 L 192.6,93.8 L 194.1,95.1 L 195.5,96.4 L 196.9,97.7 L 198.2,99.1 L 199.5,100.5 L 200.8,101.9 L 202.0,103.3 L 203.2,104.7 L 204.4,106.1 L 205.5,107.5 L 206.6,109.0 L 207.6,110.5 L 208.6,111.9 L 209.6,113.4 L 210.5,114.9 L 211.4,116.4 L 212.2,117.9 L 213.0,119.4 L 213.8,120.9 L 214.5,122.4 L 215.2,123.9 L 215.8,125.5 L 216.4,127.0 L 217.0,128.5 L 217.5,130.0 L 217.9,131.5 L 218.4,133.1 L 218.8,134.6 L 219.1,136.1 L 219.4,137.6 L 219.7,139.1 L 219.9,140.6 L 220.1,142.1 L 220.2,143.6 L 220.3,145.1 L 220.4,146.6 L 220.4,148.1 L 220.3,149.5 L 220.3,151.0 L 220.2,152.4 L 220.0,153.9 L 219.8,155.3 L 219.6,156.7 L 219.3,158.1 L 219.0,159.4 L 218.6,160.8 L 218.2,162.1 L 217.8,163.5 L 217.3,164.8 L 216.8,166.0 L 216.2,167.3 L 215.6,168.6 L 215.0,169.8 L 214.3,171.0 L 213.6,172.2 L 212.9,173.3 L 212.1,174.5 L 211.3,175.6 L 210.4,176.7 L 209.5,177.8 L 208.6,178.8 L 207.6,179.8 L 206.6,180.8 L 205.6,181.8 L 204.5,182.7 L 203.4,183.6 L 202.3,184.5 L 201.2,185.3 L 200.0,186.2 L 198.7,187.0 L 197.5,187.7 L 196.2,188.4 L 194.9,189.1 L 193.6,189.8 L 192.2,190.4 L 190.8,191.0 L 189.4,191.6 L 188.0,192.1 L 186.5,192.6 L 185.0,193.1 L 183.5,193.5 L 182.0,193.9 L 180.4,194.2 L 178.8,194.5 L 177.2,194.8 L 175.6,195.1 L 174.0,195.3 L 172.3,195.4 L 170.7,195.6 L 169.0,195.7 L 167.3,195.7 L 165.5,195.7 L 163.8,195.7 L 162.1,195.7 L 160.3,195.6 L 158.5,195.4 L 156.7,195.3 L 154.9,195.1 L 153.1,194.8 L 151.3,194.5 L 149.5,194.2 L 147.7,193.8 L 145.8,193.4 L 144.0,193.0 L 142.2,192.5 L 140.3,192.0 L 138.5,191.4 L 136.6,190.8 L 134.7,190.2 L 132.9,189.5 L 131.0,188.8 L 129.2,188.1 L 127.3,187.3 L 125.5,186.5 L 123.6,185.6 L 121.8,184.7 L 119.9,183.8 L 118.1,182.8 L 116.3,181.8 L 114.4,180.8 L 112.6,179.7 L 110.8,178.6 L 109.0,177.4 L 107.2,176.2 L 105.5,175.0 L 103.7,173.8 L 102.0,172.5 L 100.2,171.2 L 98.5,169.8 L 96.8,168.4 L 95.1,167.0 L 93.4,165.6 L 91.8,164.1 L 90.1,162.6 L 88.5,161.1 L 86.9,159.5 L 85.3,157.9 L 83.7,156.3 L 82.2,154.6 L 80.7,153.0 L 79.2,151.2 L 77.7,149.5 L 76.2,147.8 L 74.8,146.0 L 73.4,144.2 L 72.0,142.4 L 70.6,140.5 L 69.3,138.6 L 68.0,136.7 L 66.7,134.8 L 65.5,132.9 L 64.3,131.0 L 63.1,129.0 L 61.9,127.0 L 60.8,125.0 L 59.7,123.0 L 58.6,120.9 L 57.5,118.9 L 56.5,116.8 L 55.5,114.8 L 54.6,112.7 L 53.6,110.6 L 52.8,108.5 L 51.9,106.3 L 51.1,104.2 L 50.3,102.1 L 49.5,99.9 L 48.8,97.8 L 48.1,95.6 L 47.5,93.4 L 46.8,91.3 L 46.3,89.1 L 45.7,86.9 L 45.2,84.8 L 44.7,82.6 L 44.2,80.4 L 43.8,78.2 L 43.5,76.1 L 43.1,73.9 L 42.8,71.7 L 42.5,69.6 L 42.3,67.4 L 42.1,65.2 L 41.9,63.1 L 41.8,61.0 L 41.7,58.8 L 41.6,56.7 L 41.6,54.6 L 41.6,52.5 L 41.7,50.4 L 41.7,48.3 L 41.8,46.3 L 42.0,44.2 L 42.2,42.2 L 42.4,40.2 L 42.6,38.2 L 42.9,36.2 L 43.2,34.3 L 43.6,32.3 L 44.0,30.4 L 44.4,28.5 L 44.8,26.6 L 45.3,24.7 L 45.8,22.9 L 46.3,21.1 L 46.9,19.3 L 47.5,17.5 L 48.1,15.8 L 48.8,14.1 L 49.5,12.4 L 50.2,10.7 L 50.9,9.1 L 51.7,7.5 L 52.5,5.9 L 53.3,4.4 L 54.2,2.9 L 55.1,1.4 L 56.0,-0.1 L 56.9,-1.5 L 57.8,-2.9 L 58.8,-4.2 L 59.8,-5.5 L 60.8,-6.8 L 61.9,-8.0 L 62.9,-9.2 L 64.0,-10.4 L 65.1,-11.6 L 66.2,-12.7 L 67.4,-13.7 L 68.5,-14.7 L 69.7,-15.7 L 70.9,-16.7 L 72.1,-17.6 L 73.4,-18.4 L 74.6,-19.3 L 75.8,-20.0 L 77.1,-20.8 L 78.4,-21.5 L 79.7,-22.2 L 81.0,-22.8 L 82.3,-23.4 L 83.6,-23.9 L 85.0,-24.4 L 86.3,-24.8 L 87.7,-25.2 L 89.0,-25.6 L 90.4,-25.9 L 91.7,-26.2 L 93.1,-26.5 L 94.5,-26.7 L 95.9,-26.8 L 97.2,-26.9 L 98.6,-27.0 L 100.0,-27.0 L 101.4,-27.0 L 102.8,-26.9 L 104.1,-26.8 L 105.5,-26.7 L 106.9,-26.5 L 108.3,-26.2 L 109.6,-25.9 L 111.0,-25.6 L 112.3,-25.2 L 113.7,-24.8 L 115.0,-24.4 L 116.4,-23.9 L 117.7,-23.4 L 119.0,-22.8 L 120.3,-22.2 L 121.6,-21.5 L 122.9,-20.8 L 124.2,-20.0 L 125.4,-19.3 L 126.6,-18.4 L 127.9,-17.6 L 129.1,-16.7 L 130.3,-15.7 L 131.5,-14.7 L 132.6,-13.7 L 133.8,-12.7 L 134.9,-11.6 L 136.0,-10.4 L 137.1,-9.2 L 138.1,-8.0 L 139.2,-6.8 L 140.2,-5.5 L 141.2,-4.2 L 142.2,-2.9 L 143.1,-1.5 L 144.0,-0.1 L 144.9,1.4 L 145.8,2.9 L 146.7,4.4 L 147.5,5.9 L 148.3,7.5 L 149.1,9.1 L 149.8,10.7 L 150.5,12.4 L 151.2,14.1 L 151.9,15.8 L 152.5,17.5 L 153.1,19.3 L 153.7,21.1 L 154.2,22.9 L 154.7,24.7 L 155.2,26.6 L 155.6,28.5 L 156.0,30.4 L 156.4,32.3 L 156.8,34.3 L 157.1,36.2 L 157.4,38.2 L 157.6,40.2 L 157.8,42.2 L 158.0,44.2 L 158.2,46.3 L 158.3,48.3 L 158.3,50.4 L 158.4,52.5 L 158.4,54.6 L 158.4,56.7 L 158.3,58.8 L 158.2,61.0 L 158.1,63.1 L 157.9,65.2 L 157.7,67.4 L 157.5,69.6 L 157.2,71.7 L 156.9,73.9 L 156.5,76.1 L 156.2,78.2 L 155.8,80.4 L 155.3,82.6 L 154.8,84.8 L 154.3,86.9 L 153.7,89.1 L 153.2,91.3 L 152.5,93.4 L 151.9,95.6 L 151.2,97.8 L 150.5,99.9 L 149.7,102.1 L 148.9,104.2 L 148.1,106.3 L 147.2,108.5 L 146.4,110.6 L 145.4,112.7 L 144.5,114.8 L 143.5,116.8 L 142.5,118.9 L 141.4,120.9 L 140.3,123.0 L 139.2,125.0 L 138.1,127.0 L 136.9,129.0 L 135.7,131.0 L 134.5,132.9 L 133.3,134.8 L 132.0,136.7 L 130.7,138.6 L 129.4,140.5 L 128.0,142.4 L 126.6,144.2 L 125.2,146.0 L 123.8,147.8 L 122.3,149.5 L 120.8,151.2 L 119.3,153.0 L 117.8,154.6 L 116.3,156.3 L 114.7,157.9 L 113.1,159.5 L 111.5,161.1 L 109.9,162.6 L 108.2,164.1 L 106.6,165.6 L 104.9,167.0 L 103.2,168.4 L 101.5,169.8 L 99.8,171.2 L 98.0,172.5 L 96.3,173.8 L 94.5,175.0 L 92.8,176.2 L 91.0,177.4 L 89.2,178.6 L 87.4,179.7 L 85.6,180.8 L 83.7,181.8 L 81.9,182.8 L 80.1,183.8 L 78.2,184.7 L 76.4,185.6 L 74.5,186.5 L 72.7,187.3 L 70.8,188.1 L 69.0,188.8 L 67.1,189.5 L 65.3,190.2 L 63.4,190.8 L 61.5,191.4 L 59.7,192.0 L 57.8,192.5 L 56.0,193.0 L 54.2,193.4 L 52.3,193.8 L 50.5,194.2 L 48.7,194.5 L 46.9,194.8 L 45.1,195.1 L 43.3,195.3 L 41.5,195.4 L 39.7,195.6 L 37.9,195.7 L 36.2,195.7 L 34.5,195.7 L 32.7,195.7 L 31.0,195.7 L 29.3,195.6 L 27.7,195.4 L 26.0,195.3 L 24.4,195.1 L 22.8,194.8 L 21.2,194.5 L 19.6,194.2 L 18.0,193.9 L 16.5,193.5 L 15.0,193.1 L 13.5,192.6 L 12.0,192.1 L 10.6,191.6 L 9.2,191.0 L 7.8,190.4 L 6.4,189.8 L 5.1,189.1 L 3.8,188.4 L 2.5,187.7 L 1.3,187.0 L 0.0,186.2 L -1.2,185.3 L -2.3,184.5 L -3.4,183.6 L -4.5,182.7 L -5.6,181.8 L -6.6,180.8 L -7.6,179.8 L -8.6,178.8 L -9.5,177.8 L -10.4,176.7 L -11.3,175.6 L -12.1,174.5 L -12.9,173.3 L -13.6,172.2 L -14.3,171.0 L -15.0,169.8 L -15.6,168.6 L -16.2,167.3 L -16.8,166.0 L -17.3,164.8 L -17.8,163.5 L -18.2,162.1 L -18.6,160.8 L -19.0,159.4 L -19.3,158.1 L -19.6,156.7 L -19.8,155.3 L -20.0,153.9 L -20.2,152.4 L -20.3,151.0 L -20.3,149.5 L -20.4,148.1 L -20.4,146.6 L -20.3,145.1 L -20.2,143.6 L -20.1,142.1 L -19.9,140.6 L -19.7,139.1 L -19.4,137.6 L -19.1,136.1 L -18.8,134.6 L -18.4,133.1 L -17.9,131.5 L -17.5,130.0 L -17.0,128.5 L -16.4,127.0 L -15.8,125.5 L -15.2,123.9 L -14.5,122.4 L -13.8,120.9 L -13.0,119.4 L -12.2,117.9 L -11.4,116.4 L -10.5,114.9 L -9.6,113.4 L -8.6,111.9 L -7.6,110.5 L -6.6,109.0 L -5.5,107.5 L -4.4,106.1 L -3.2,104.7 L -2.0,103.3 L -0.8,101.9 L 0.5,100.5 L 1.8,99.1 L 3.1,97.7 L 4.5,96.4 L 5.9,95.1 L 7.4,93.8 L 8.8,92.5 L 10.3,91.2 L 11.9,90.0 L 13.5,88.7 L 15.1,87.5 L 16.7,86.3 L 18.4,85.1 L 20.1,84.0 L 21.8,82.9 L 23.6,81.8 L 25.3,80.7 L 27.2,79.6 L 29.0,78.6 L 30.9,77.6 L 32.8,76.6 L 34.7,75.7 L 36.6,74.7 L 38.6,73.8 L 40.6,73.0 L 42.6,72.1 L 44.6,71.3 L 46.7,70.5 L 48.7,69.7 L 50.8,69.0 L 52.9,68.3 L 55.1,67.6 L 57.2,67.0 L 59.4,66.4 L 61.5,65.8 L 63.7,65.3 L 65.9,64.8 L 68.1,64.3 L 70.4,63.8 L 72.6,63.4 L 74.8,63.0 L 77.1,62.7 L 79.4,62.4 L 81.6,62.1 L 83.9,61.8 L 86.2,61.6 L 88.5,61.4 L 90.8,61.3 L 93.1,61.2 L 95.4,61.1 L 97.7,61.0 L 100.0,61.0" fill="none" stroke="url(#gL)" stroke-width="6" stroke-linecap="round" stroke-linejoin="round" opacity="0.35" filter="url(#fL)"/>
  <path d="M 100.0,61.0 L 102.3,61.0 L 104.6,61.1 L 106.9,61.2 L 109.2,61.3 L 111.5,61.4 L 113.8,61.6 L 116.1,61.8 L 118.4,62.1 L 120.6,62.4 L 122.9,62.7 L 125.2,63.0 L 127.4,63.4 L 129.6,63.8 L 131.9,64.3 L 134.1,64.8 L 136.3,65.3 L 138.5,65.8 L 140.6,66.4 L 142.8,67.0 L 144.9,67.6 L 147.1,68.3 L 149.2,69.0 L 151.3,69.7 L 153.3,70.5 L 155.4,71.3 L 157.4,72.1 L 159.4,73.0 L 161.4,73.8 L 163.4,74.7 L 165.3,75.7 L 167.2,76.6 L 169.1,77.6 L 171.0,78.6 L 172.8,79.6 L 174.7,80.7 L 176.4,81.8 L 178.2,82.9 L 179.9,84.0 L 181.6,85.1 L 183.3,86.3 L 184.9,87.5 L 186.5,88.7 L 188.1,90.0 L 189.7,91.2 L 191.2,92.5 L 192.6,93.8 L 194.1,95.1 L 195.5,96.4 L 196.9,97.7 L 198.2,99.1 L 199.5,100.5 L 200.8,101.9 L 202.0,103.3 L 203.2,104.7 L 204.4,106.1 L 205.5,107.5 L 206.6,109.0 L 207.6,110.5 L 208.6,111.9 L 209.6,113.4 L 210.5,114.9 L 211.4,116.4 L 212.2,117.9 L 213.0,119.4 L 213.8,120.9 L 214.5,122.4 L 215.2,123.9 L 215.8,125.5 L 216.4,127.0 L 217.0,128.5 L 217.5,130.0 L 217.9,131.5 L 218.4,133.1 L 218.8,134.6 L 219.1,136.1 L 219.4,137.6 L 219.7,139.1 L 219.9,140.6 L 220.1,142.1 L 220.2,143.6 L 220.3,145.1 L 220.4,146.6 L 220.4,148.1 L 220.3,149.5 L 220.3,151.0 L 220.2,152.4 L 220.0,153.9 L 219.8,155.3 L 219.6,156.7 L 219.3,158.1 L 219.0,159.4 L 218.6,160.8 L 218.2,162.1 L 217.8,163.5 L 217.3,164.8 L 216.8,166.0 L 216.2,167.3 L 215.6,168.6 L 215.0,169.8 L 214.3,171.0 L 213.6,172.2 L 212.9,173.3 L 212.1,174.5 L 211.3,175.6 L 210.4,176.7 L 209.5,177.8 L 208.6,178.8 L 207.6,179.8 L 206.6,180.8 L 205.6,181.8 L 204.5,182.7 L 203.4,183.6 L 202.3,184.5 L 201.2,185.3 L 200.0,186.2 L 198.7,187.0 L 197.5,187.7 L 196.2,188.4 L 194.9,189.1 L 193.6,189.8 L 192.2,190.4 L 190.8,191.0 L 189.4,191.6 L 188.0,192.1 L 186.5,192.6 L 185.0,193.1 L 183.5,193.5 L 182.0,193.9 L 180.4,194.2 L 178.8,194.5 L 177.2,194.8 L 175.6,195.1 L 174.0,195.3 L 172.3,195.4 L 170.7,195.6 L 169.0,195.7 L 167.3,195.7 L 165.5,195.7 L 163.8,195.7 L 162.1,195.7 L 160.3,195.6 L 158.5,195.4 L 156.7,195.3 L 154.9,195.1 L 153.1,194.8 L 151.3,194.5 L 149.5,194.2 L 147.7,193.8 L 145.8,193.4 L 144.0,193.0 L 142.2,192.5 L 140.3,192.0 L 138.5,191.4 L 136.6,190.8 L 134.7,190.2 L 132.9,189.5 L 131.0,188.8 L 129.2,188.1 L 127.3,187.3 L 125.5,186.5 L 123.6,185.6 L 121.8,184.7 L 119.9,183.8 L 118.1,182.8 L 116.3,181.8 L 114.4,180.8 L 112.6,179.7 L 110.8,178.6 L 109.0,177.4 L 107.2,176.2 L 105.5,175.0 L 103.7,173.8 L 102.0,172.5 L 100.2,171.2 L 98.5,169.8 L 96.8,168.4 L 95.1,167.0 L 93.4,165.6 L 91.8,164.1 L 90.1,162.6 L 88.5,161.1 L 86.9,159.5 L 85.3,157.9 L 83.7,156.3 L 82.2,154.6 L 80.7,153.0 L 79.2,151.2 L 77.7,149.5 L 76.2,147.8 L 74.8,146.0 L 73.4,144.2 L 72.0,142.4 L 70.6,140.5 L 69.3,138.6 L 68.0,136.7 L 66.7,134.8 L 65.5,132.9 L 64.3,131.0 L 63.1,129.0 L 61.9,127.0 L 60.8,125.0 L 59.7,123.0 L 58.6,120.9 L 57.5,118.9 L 56.5,116.8 L 55.5,114.8 L 54.6,112.7 L 53.6,110.6 L 52.8,108.5 L 51.9,106.3 L 51.1,104.2 L 50.3,102.1 L 49.5,99.9 L 48.8,97.8 L 48.1,95.6 L 47.5,93.4 L 46.8,91.3 L 46.3,89.1 L 45.7,86.9 L 45.2,84.8 L 44.7,82.6 L 44.2,80.4 L 43.8,78.2 L 43.5,76.1 L 43.1,73.9 L 42.8,71.7 L 42.5,69.6 L 42.3,67.4 L 42.1,65.2 L 41.9,63.1 L 41.8,61.0 L 41.7,58.8 L 41.6,56.7 L 41.6,54.6 L 41.6,52.5 L 41.7,50.4 L 41.7,48.3 L 41.8,46.3 L 42.0,44.2 L 42.2,42.2 L 42.4,40.2 L 42.6,38.2 L 42.9,36.2 L 43.2,34.3 L 43.6,32.3 L 44.0,30.4 L 44.4,28.5 L 44.8,26.6 L 45.3,24.7 L 45.8,22.9 L 46.3,21.1 L 46.9,19.3 L 47.5,17.5 L 48.1,15.8 L 48.8,14.1 L 49.5,12.4 L 50.2,10.7 L 50.9,9.1 L 51.7,7.5 L 52.5,5.9 L 53.3,4.4 L 54.2,2.9 L 55.1,1.4 L 56.0,-0.1 L 56.9,-1.5 L 57.8,-2.9 L 58.8,-4.2 L 59.8,-5.5 L 60.8,-6.8 L 61.9,-8.0 L 62.9,-9.2 L 64.0,-10.4 L 65.1,-11.6 L 66.2,-12.7 L 67.4,-13.7 L 68.5,-14.7 L 69.7,-15.7 L 70.9,-16.7 L 72.1,-17.6 L 73.4,-18.4 L 74.6,-19.3 L 75.8,-20.0 L 77.1,-20.8 L 78.4,-21.5 L 79.7,-22.2 L 81.0,-22.8 L 82.3,-23.4 L 83.6,-23.9 L 85.0,-24.4 L 86.3,-24.8 L 87.7,-25.2 L 89.0,-25.6 L 90.4,-25.9 L 91.7,-26.2 L 93.1,-26.5 L 94.5,-26.7 L 95.9,-26.8 L 97.2,-26.9 L 98.6,-27.0 L 100.0,-27.0 L 101.4,-27.0 L 102.8,-26.9 L 104.1,-26.8 L 105.5,-26.7 L 106.9,-26.5 L 108.3,-26.2 L 109.6,-25.9 L 111.0,-25.6 L 112.3,-25.2 L 113.7,-24.8 L 115.0,-24.4 L 116.4,-23.9 L 117.7,-23.4 L 119.0,-22.8 L 120.3,-22.2 L 121.6,-21.5 L 122.9,-20.8 L 124.2,-20.0 L 125.4,-19.3 L 126.6,-18.4 L 127.9,-17.6 L 129.1,-16.7 L 130.3,-15.7 L 131.5,-14.7 L 132.6,-13.7 L 133.8,-12.7 L 134.9,-11.6 L 136.0,-10.4 L 137.1,-9.2 L 138.1,-8.0 L 139.2,-6.8 L 140.2,-5.5 L 141.2,-4.2 L 142.2,-2.9 L 143.1,-1.5 L 144.0,-0.1 L 144.9,1.4 L 145.8,2.9 L 146.7,4.4 L 147.5,5.9 L 148.3,7.5 L 149.1,9.1 L 149.8,10.7 L 150.5,12.4 L 151.2,14.1 L 151.9,15.8 L 152.5,17.5 L 153.1,19.3 L 153.7,21.1 L 154.2,22.9 L 154.7,24.7 L 155.2,26.6 L 155.6,28.5 L 156.0,30.4 L 156.4,32.3 L 156.8,34.3 L 157.1,36.2 L 157.4,38.2 L 157.6,40.2 L 157.8,42.2 L 158.0,44.2 L 158.2,46.3 L 158.3,48.3 L 158.3,50.4 L 158.4,52.5 L 158.4,54.6 L 158.4,56.7 L 158.3,58.8 L 158.2,61.0 L 158.1,63.1 L 157.9,65.2 L 157.7,67.4 L 157.5,69.6 L 157.2,71.7 L 156.9,73.9 L 156.5,76.1 L 156.2,78.2 L 155.8,80.4 L 155.3,82.6 L 154.8,84.8 L 154.3,86.9 L 153.7,89.1 L 153.2,91.3 L 152.5,93.4 L 151.9,95.6 L 151.2,97.8 L 150.5,99.9 L 149.7,102.1 L 148.9,104.2 L 148.1,106.3 L 147.2,108.5 L 146.4,110.6 L 145.4,112.7 L 144.5,114.8 L 143.5,116.8 L 142.5,118.9 L 141.4,120.9 L 140.3,123.0 L 139.2,125.0 L 138.1,127.0 L 136.9,129.0 L 135.7,131.0 L 134.5,132.9 L 133.3,134.8 L 132.0,136.7 L 130.7,138.6 L 129.4,140.5 L 128.0,142.4 L 126.6,144.2 L 125.2,146.0 L 123.8,147.8 L 122.3,149.5 L 120.8,151.2 L 119.3,153.0 L 117.8,154.6 L 116.3,156.3 L 114.7,157.9 L 113.1,159.5 L 111.5,161.1 L 109.9,162.6 L 108.2,164.1 L 106.6,165.6 L 104.9,167.0 L 103.2,168.4 L 101.5,169.8 L 99.8,171.2 L 98.0,172.5 L 96.3,173.8 L 94.5,175.0 L 92.8,176.2 L 91.0,177.4 L 89.2,178.6 L 87.4,179.7 L 85.6,180.8 L 83.7,181.8 L 81.9,182.8 L 80.1,183.8 L 78.2,184.7 L 76.4,185.6 L 74.5,186.5 L 72.7,187.3 L 70.8,188.1 L 69.0,188.8 L 67.1,189.5 L 65.3,190.2 L 63.4,190.8 L 61.5,191.4 L 59.7,192.0 L 57.8,192.5 L 56.0,193.0 L 54.2,193.4 L 52.3,193.8 L 50.5,194.2 L 48.7,194.5 L 46.9,194.8 L 45.1,195.1 L 43.3,195.3 L 41.5,195.4 L 39.7,195.6 L 37.9,195.7 L 36.2,195.7 L 34.5,195.7 L 32.7,195.7 L 31.0,195.7 L 29.3,195.6 L 27.7,195.4 L 26.0,195.3 L 24.4,195.1 L 22.8,194.8 L 21.2,194.5 L 19.6,194.2 L 18.0,193.9 L 16.5,193.5 L 15.0,193.1 L 13.5,192.6 L 12.0,192.1 L 10.6,191.6 L 9.2,191.0 L 7.8,190.4 L 6.4,189.8 L 5.1,189.1 L 3.8,188.4 L 2.5,187.7 L 1.3,187.0 L 0.0,186.2 L -1.2,185.3 L -2.3,184.5 L -3.4,183.6 L -4.5,182.7 L -5.6,181.8 L -6.6,180.8 L -7.6,179.8 L -8.6,178.8 L -9.5,177.8 L -10.4,176.7 L -11.3,175.6 L -12.1,174.5 L -12.9,173.3 L -13.6,172.2 L -14.3,171.0 L -15.0,169.8 L -15.6,168.6 L -16.2,167.3 L -16.8,166.0 L -17.3,164.8 L -17.8,163.5 L -18.2,162.1 L -18.6,160.8 L -19.0,159.4 L -19.3,158.1 L -19.6,156.7 L -19.8,155.3 L -20.0,153.9 L -20.2,152.4 L -20.3,151.0 L -20.3,149.5 L -20.4,148.1 L -20.4,146.6 L -20.3,145.1 L -20.2,143.6 L -20.1,142.1 L -19.9,140.6 L -19.7,139.1 L -19.4,137.6 L -19.1,136.1 L -18.8,134.6 L -18.4,133.1 L -17.9,131.5 L -17.5,130.0 L -17.0,128.5 L -16.4,127.0 L -15.8,125.5 L -15.2,123.9 L -14.5,122.4 L -13.8,120.9 L -13.0,119.4 L -12.2,117.9 L -11.4,116.4 L -10.5,114.9 L -9.6,113.4 L -8.6,111.9 L -7.6,110.5 L -6.6,109.0 L -5.5,107.5 L -4.4,106.1 L -3.2,104.7 L -2.0,103.3 L -0.8,101.9 L 0.5,100.5 L 1.8,99.1 L 3.1,97.7 L 4.5,96.4 L 5.9,95.1 L 7.4,93.8 L 8.8,92.5 L 10.3,91.2 L 11.9,90.0 L 13.5,88.7 L 15.1,87.5 L 16.7,86.3 L 18.4,85.1 L 20.1,84.0 L 21.8,82.9 L 23.6,81.8 L 25.3,80.7 L 27.2,79.6 L 29.0,78.6 L 30.9,77.6 L 32.8,76.6 L 34.7,75.7 L 36.6,74.7 L 38.6,73.8 L 40.6,73.0 L 42.6,72.1 L 44.6,71.3 L 46.7,70.5 L 48.7,69.7 L 50.8,69.0 L 52.9,68.3 L 55.1,67.6 L 57.2,67.0 L 59.4,66.4 L 61.5,65.8 L 63.7,65.3 L 65.9,64.8 L 68.1,64.3 L 70.4,63.8 L 72.6,63.4 L 74.8,63.0 L 77.1,62.7 L 79.4,62.4 L 81.6,62.1 L 83.9,61.8 L 86.2,61.6 L 88.5,61.4 L 90.8,61.3 L 93.1,61.2 L 95.4,61.1 L 97.7,61.0 L 100.0,61.0" fill="none" stroke="url(#gL)" stroke-width="3" stroke-linecap="round" stroke-linejoin="round"/>
  <text x="100" y="192" text-anchor="middle" font-family="Arial Black,sans-serif" font-size="12" font-weight="900" fill="#FFFFFF" letter-spacing="5">A3KM</text>
</svg>