<?xml version="1.0" encoding="UTF-8"?>
<svg xmlns="http://www.w3.org/2000/svg" viewBox="0 0 200 200" width="200" height="200">
  <defs>
    <radialGradient id="gD-bg" cx="50%" cy="50%" r="50%">
      <stop offset="0%" stop-color="#0a0000"/>
      <stop offset="100%" stop-color="#020000"/>
    </radialGradient>
    <filter id="fD-g">
      <feGaussianBlur stdDeviation="1.5" result="blur"/>
      <feMerge><feMergeNode in="blur"/><feMergeNode in="SourceGraphic"/></feMerge>
    </filter>
  </defs>
  <rect width="200" height="200" rx="18" fill="url(#gD-bg)"/>
  <g filter="url(#fD-g)">
<circle cx="92.4" cy="38.5" r="1.4" fill="rgba(255,60,60,0.26)"/><circle cx="85.5" cy="96.8" r="0.9" fill="rgba(255,60,60,0.34)"/><circle cx="66.5" cy="113.0" r="1.2" fill="rgba(255,60,60,0.68)"/><circle cx="109.8" cy="85.3" r="1.8" fill="rgba(255,60,60,0.35)"/><circle cx="78.8" cy="114.8" r="1.6" fill="rgba(255,60,60,0.37)"/><circle cx="97.0" cy="111.0" r="1.7" fill="rgba(255,60,60,0.77)"/><circle cx="121.7" cy="92.9" r="1.7" fill="rgba(255,60,60,0.98)"/><circle cx="142.7" cy="127.3" r="1.3" fill="rgba(255,60,60,0.39)"/><circle cx="81.8" cy="36.4" r="1.0" fill="rgba(255,60,60,0.25)"/><circle cx="96.1" cy="89.0" r="0.9" fill="rgba(255,60,60,0.25)"/><circle cx="103.2" cy="47.9" r="0.8" fill="rgba(255,60,60,0.91)"/><circle cx="62.0" cy="124.2" r="1.8" fill="rgba(255,60,60,0.73)"/><circle cx="136.3" cy="120.3" r="1.5" fill="rgba(255,60,60,0.72)"/><circle cx="97.5" cy="51.8" r="1.2" fill="rgba(255,60,60,1.0)"/><circle cx="146.2" cy="128.4" r="1.9" fill="rgba(255,60,60,0.28)"/><circle cx="105.5" cy="46.0" r="2.1" fill="rgba(255,60,60,0.56)"/><circle cx="70.4" cy="101.5" r="1.3" fill="rgba(255,60,60,0.56)"/><circle cx="57.9" cy="141.0" r="1.4" fill="rgba(255,60,60,0.99)"/><circle cx="106.4" cy="69.8" r="1.5" fill="rgba(255,60,60,0.65)"/><circle cx="150.5" cy="132.5" r="1.0" fill="rgba(255,60,60,0.25)"/><circle cx="93.4" cy="38.9" r="0.9" fill="rgba(255,60,60,0.28)"/><circle cx="59.3" cy="137.7" r="1.1" fill="rgba(255,60,60,0.99)"/><circle cx="132.9" cy="148.5" r="1.1" fill="rgba(255,60,60,0.25)"/><circle cx="94.7" cy="71.4" r="2.0" fill="rgba(255,60,60,0.46)"/><circle cx="77.8" cy="122.7" r="1.5" fill="rgba(255,60,60,0.26)"/><circle cx="105.8" cy="53.1" r="2.0" fill="rgba(255,60,60,0.88)"/><circle cx="55.1" cy="129.9" r="1.4" fill="rgba(255,60,60,0.33)"/><circle cx="89.1" cy="72.4" r="1.0" fill="rgba(255,60,60,0.98)"/><circle cx="138.2" cy="128.2" r="1.6" fill="rgba(255,60,60,0.89)"/><circle cx="106.7" cy="106.6" r="1.7" fill="rgba(255,60,60,0.94)"/><circle cx="113.3" cy="108.4" r="1.0" fill="rgba(255,60,60,0.99)"/><circle cx="71.9" cy="120.7" r="1.5" fill="rgba(255,60,60,0.6)"/><circle cx="76.2" cy="93.0" r="1.4" fill="rgba(255,60,60,0.8)"/><circle cx="56.5" cy="139.0" r="2.1" fill="rgba(255,60,60,0.83)"/><circle cx="136.5" cy="148.1" r="1.1" fill="rgba(255,60,60,0.3)"/><circle cx="66.9" cy="145.4" r="1.6" fill="rgba(255,60,60,0.27)"/><circle cx="58.1" cy="130.1" r="2.0" fill="rgba(255,60,60,0.57)"/><circle cx="98.4" cy="33.0" r="1.4" fill="rgba(255,60,60,0.25)"/><circle cx="94.4" cy="66.8" r="1.2" fill="rgba(255,60,60,0.71)"/><circle cx="79.0" cy="132.5" r="1.8" fill="rgba(255,60,60,0.25)"/><circle cx="85.4" cy="77.9" r="1.6" fill="rgba(255,60,60,1.0)"/><circle cx="84.1" cy="82.2" r="0.9" fill="rgba(255,60,60,1.0)"/><circle cx="54.6" cy="131.8" r="2.0" fill="rgba(255,60,60,0.35)"/><circle cx="147.1" cy="144.8" r="1.7" fill="rgba(255,60,60,0.44)"/><circle cx="128.8" cy="108.6" r="0.9" fill="rgba(255,60,60,0.96)"/><circle cx="77.3" cy="98.0" r="1.0" fill="rgba(255,60,60,1.0)"/><circle cx="90.1" cy="80.5" r="1.3" fill="rgba(255,60,60,0.53)"/><circle cx="102.8" cy="101.1" r="1.1" fill="rgba(255,60,60,0.36)"/><circle cx="119.9" cy="81.2" r="1.7" fill="rgba(255,60,60,0.66)"/><circle cx="81.5" cy="81.3" r="1.1" fill="rgba(255,60,60,0.83)"/><circle cx="133.9" cy="120.2" r="1.1" fill="rgba(255,60,60,0.96)"/><circle cx="86.2" cy="75.6" r="1.0" fill="rgba(255,60,60,0.99)"/><circle cx="50.1" cy="142.2" r="1.8" fill="rgba(255,60,60,0.31)"/><circle cx="63.9" cy="127.9" r="1.9" fill="rgba(255,60,60,1.0)"/><circle cx="131.1" cy="104.1" r="1.2" fill="rgba(255,60,60,0.52)"/><circle cx="65.5" cy="121.9" r="0.9" fill="rgba(255,60,60,0.96)"/><circle cx="76.5" cy="99.2" r="1.8" fill="rgba(255,60,60,1.0)"/><circle cx="60.5" cy="137.9" r="1.2" fill="rgba(255,60,60,0.99)"/><circle cx="69.4" cy="128.6" r="2.1" fill="rgba(255,60,60,0.51)"/><circle cx="138.8" cy="141.6" r="1.2" fill="rgba(255,60,60,0.81)"/><circle cx="131.7" cy="145.4" r="1.6" fill="rgba(255,60,60,0.26)"/><circle cx="113.7" cy="56.6" r="1.0" fill="rgba(255,60,60,0.31)"/><circle cx="117.3" cy="54.8" r="1.2" fill="rgba(255,60,60,0.25)"/><circle cx="66.2" cy="127.0" r="0.9" fill="rgba(255,60,60,0.93)"/><circle cx="122.3" cy="80.0" r="1.2" fill="rgba(255,60,60,0.39)"/><circle cx="83.7" cy="80.8" r="2.1" fill="rgba(255,60,60,0.98)"/><circle cx="85.3" cy="91.5" r="1.2" fill="rgba(255,60,60,0.53)"/><circle cx="139.5" cy="131.2" r="1.1" fill="rgba(255,60,60,0.89)"/><circle cx="88.6" cy="93.2" r="1.0" fill="rgba(255,60,60,0.29)"/><circle cx="71.2" cy="118.4" r="0.9" fill="rgba(255,60,60,0.81)"/><circle cx="107.1" cy="122.4" r="1.9" fill="rgba(255,60,60,0.25)"/><circle cx="114.5" cy="67.4" r="1.6" fill="rgba(255,60,60,0.59)"/><circle cx="91.5" cy="110.4" r="1.4" fill="rgba(255,60,60,0.85)"/><circle cx="69.8" cy="123.2" r="1.4" fill="rgba(255,60,60,0.73)"/><circle cx="93.4" cy="92.2" r="1.6" fill="rgba(255,60,60,0.25)"/><circle cx="61.1" cy="139.4" r="1.9" fill="rgba(255,60,60,0.91)"/><circle cx="61.4" cy="144.2" r="2.0" fill="rgba(255,60,60,0.64)"/><circle cx="62.2" cy="125.8" r="1.5" fill="rgba(255,60,60,0.83)"/><circle cx="115.5" cy="73.9" r="1.5" fill="rgba(255,60,60,0.8)"/><circle cx="108.8" cy="74.0" r="1.4" fill="rgba(255,60,60,0.72)"/><circle cx="63.2" cy="120.7" r="1.9" fill="rgba(255,60,60,0.68)"/><circle cx="71.9" cy="108.0" r="1.6" fill="rgba(255,60,60,0.98)"/><circle cx="118.7" cy="68.1" r="0.8" fill="rgba(255,60,60,0.31)"/><circle cx="68.9" cy="109.7" r="0.8" fill="rgba(255,60,60,0.79)"/><circle cx="68.6" cy="101.2" r="1.1" fill="rgba(255,60,60,0.39)"/><circle cx="114.1" cy="87.9" r="2.0" fill="rgba(255,60,60,0.63)"/><circle cx="88.8" cy="62.2" r="1.6" fill="rgba(255,60,60,0.72)"/><circle cx="107.1" cy="72.7" r="1.4" fill="rgba(255,60,60,0.58)"/><circle cx="89.3" cy="59.0" r="1.8" fill="rgba(255,60,60,0.61)"/><circle cx="100.8" cy="108.3" r="1.0" fill="rgba(255,60,60,1.0)"/><circle cx="78.3" cy="66.6" r="2.0" fill="rgba(255,60,60,0.25)"/><circle cx="132.3" cy="117.3" r="1.9" fill="rgba(255,60,60,0.98)"/><circle cx="94.6" cy="57.6" r="1.1" fill="rgba(255,60,60,1.0)"/><circle cx="73.3" cy="97.6" r="1.8" fill="rgba(255,60,60,0.7)"/><circle cx="102.6" cy="62.4" r="2.1" fill="rgba(255,60,60,0.59)"/><circle cx="67.7" cy="137.4" r="1.1" fill="rgba(255,60,60,0.35)"/><circle cx="125.6" cy="99.6" r="1.1" fill="rgba(255,60,60,0.91)"/><circle cx="136.2" cy="130.0" r="0.9" fill="rgba(255,60,60,0.99)"/><circle cx="141.9" cy="141.6" r="0.9" fill="rgba(255,60,60,1.0)"/><circle cx="139.6" cy="129.1" r="1.9" fill="rgba(255,60,60,0.78)"/><circle cx="115.0" cy="65.1" r="0.9" fill="rgba(255,60,60,0.45)"/><circle cx="75.2" cy="117.3" r="1.2" fill="rgba(255,60,60,0.43)"/><circle cx="123.3" cy="95.6" r="1.9" fill="rgba(255,60,60,0.95)"/><circle cx="53.4" cy="130.0" r="0.8" fill="rgba(255,60,60,0.28)"/><circle cx="66.0" cy="123.0" r="0.8" fill="rgba(255,60,60,1.0)"/><circle cx="99.8" cy="43.4" r="0.9" fill="rgba(255,60,60,0.93)"/><circle cx="132.8" cy="115.1" r="1.6" fill="rgba(255,60,60,0.86)"/><circle cx="83.5" cy="79.0" r="2.0" fill="rgba(255,60,60,0.93)"/><circle cx="52.8" cy="138.4" r="1.1" fill="rgba(255,60,60,0.41)"/><circle cx="128.8" cy="108.8" r="1.2" fill="rgba(255,60,60,0.96)"/><circle cx="60.7" cy="132.9" r="1.8" fill="rgba(255,60,60,0.96)"/><circle cx="109.0" cy="45.4" r="2.0" fill="rgba(255,60,60,0.3)"/><circle cx="102.5" cy="49.6" r="1.0" fill="rgba(255,60,60,0.99)"/><circle cx="92.6" cy="53.9" r="0.9" fill="rgba(255,60,60,0.74)"/><circle cx="100.1" cy="107.2" r="1.0" fill="rgba(255,60,60,0.98)"/><circle cx="111.8" cy="79.4" r="2.0" fill="rgba(255,60,60,0.8)"/><circle cx="91.0" cy="57.9" r="1.9" fill="rgba(255,60,60,0.76)"/><circle cx="131.2" cy="115.4" r="1.7" fill="rgba(255,60,60,0.99)"/><circle cx="116.1" cy="85.4" r="1.6" fill="rgba(255,60,60,0.96)"/><circle cx="124.3" cy="106.8" r="1.4" fill="rgba(255,60,60,0.96)"/><circle cx="94.9" cy="105.8" r="1.7" fill="rgba(255,60,60,0.87)"/><circle cx="102.2" cy="42.3" r="1.5" fill="rgba(255,60,60,0.72)"/><circle cx="124.8" cy="92.5" r="1.9" fill="rgba(255,60,60,0.66)"/><circle cx="67.0" cy="113.5" r="1.8" fill="rgba(255,60,60,0.76)"/><circle cx="57.0" cy="150.1" r="0.9" fill="rgba(255,60,60,0.3)"/><circle cx="74.3" cy="78.8" r="1.3" fill="rgba(255,60,60,0.26)"/><circle cx="90.9" cy="115.2" r="1.1" fill="rgba(255,60,60,0.35)"/><circle cx="68.6" cy="120.5" r="1.5" fill="rgba(255,60,60,0.96)"/><circle cx="68.0" cy="127.8" r="1.1" fill="rgba(255,60,60,0.71)"/><circle cx="115.3" cy="87.2" r="1.1" fill="rgba(255,60,60,0.81)"/><circle cx="136.3" cy="129.6" r="1.2" fill="rgba(255,60,60,1.0)"/><circle cx="85.9" cy="60.9" r="1.0" fill="rgba(255,60,60,0.38)"/><circle cx="91.8" cy="107.8" r="1.3" fill="rgba(255,60,60,1.0)"/><circle cx="148.9" cy="134.2" r="1.9" fill="rgba(255,60,60,0.27)"/><circle cx="146.3" cy="125.7" r="1.9" fill="rgba(255,60,60,0.26)"/><circle cx="146.1" cy="126.6" r="2.0" fill="rgba(255,60,60,0.27)"/><circle cx="65.5" cy="114.5" r="1.8" fill="rgba(255,60,60,0.64)"/><circle cx="99.2" cy="37.1" r="1.0" fill="rgba(255,60,60,0.31)"/><circle cx="114.3" cy="71.3" r="1.3" fill="rgba(255,60,60,0.82)"/><circle cx="64.7" cy="142.4" r="1.7" fill="rgba(255,60,60,0.41)"/><circle cx="113.3" cy="106.5" r="1.6" fill="rgba(255,60,60,0.93)"/><circle cx="136.8" cy="126.0" r="1.1" fill="rgba(255,60,60,0.93)"/><circle cx="77.4" cy="81.5" r="1.4" fill="rgba(255,60,60,0.41)"/><circle cx="107.7" cy="34.8" r="1.9" fill="rgba(255,60,60,0.25)"/><circle cx="70.6" cy="119.5" r="0.9" fill="rgba(255,60,60,0.82)"/><circle cx="131.2" cy="117.1" r="1.7" fill="rgba(255,60,60,1.0)"/><circle cx="152.9" cy="117.5" r="0.8" fill="rgba(255,60,60,0.25)"/><circle cx="78.5" cy="119.0" r="1.9" fill="rgba(255,60,60,0.27)"/><circle cx="98.4" cy="37.3" r="1.5" fill="rgba(255,60,60,0.31)"/><circle cx="93.0" cy="112.6" r="1.8" fill="rgba(255,60,60,0.57)"/><circle cx="84.4" cy="108.7" r="1.3" fill="rgba(255,60,60,0.99)"/><circle cx="132.4" cy="99.2" r="0.9" fill="rgba(255,60,60,0.3)"/><circle cx="136.0" cy="138.3" r="1.9" fill="rgba(255,60,60,0.65)"/><circle cx="135.5" cy="135.8" r="1.2" fill="rgba(255,60,60,0.71)"/><circle cx="140.0" cy="128.5" r="2.0" fill="rgba(255,60,60,0.7)"/><circle cx="120.3" cy="86.8" r="1.1" fill="rgba(255,60,60,0.89)"/><circle cx="128.6" cy="126.6" r="0.9" fill="rgba(255,60,60,0.42)"/><circle cx="134.9" cy="124.2" r="1.6" fill="rgba(255,60,60,0.99)"/><circle cx="145.2" cy="138.0" r="1.4" fill="rgba(255,60,60,0.57)"/><circle cx="110.2" cy="53.1" r="1.0" fill="rgba(255,60,60,0.42)"/><circle cx="88.9" cy="93.1" r="0.9" fill="rgba(255,60,60,0.28)"/><circle cx="111.1" cy="72.1" r="0.8" fill="rgba(255,60,60,0.99)"/><circle cx="98.4" cy="99.2" r="1.8" fill="rgba(255,60,60,0.28)"/><circle cx="136.3" cy="147.5" r="0.8" fill="rgba(255,60,60,0.31)"/><circle cx="56.7" cy="147.0" r="1.5" fill="rgba(255,60,60,0.5)"/><circle cx="87.8" cy="84.7" r="2.1" fill="rgba(255,60,60,0.57)"/><circle cx="146.1" cy="132.1" r="1.8" fill="rgba(255,60,60,0.32)"/><circle cx="123.9" cy="108.9" r="0.9" fill="rgba(255,60,60,0.98)"/><circle cx="114.6" cy="85.2" r="1.9" fill="rgba(255,60,60,0.83)"/><circle cx="97.4" cy="106.6" r="1.1" fill="rgba(255,60,60,0.95)"/><circle cx="59.5" cy="136.2" r="1.3" fill="rgba(255,60,60,0.98)"/><circle cx="67.9" cy="99.7" r="1.0" fill="rgba(255,60,60,0.32)"/><circle cx="130.8" cy="116.8" r="0.9" fill="rgba(255,60,60,1.0)"/><circle cx="89.5" cy="118.0" r="1.9" fill="rgba(255,60,60,0.26)"/><circle cx="64.2" cy="131.5" r="1.0" fill="rgba(255,60,60,0.93)"/><circle cx="85.3" cy="102.6" r="1.5" fill="rgba(255,60,60,0.48)"/><circle cx="93.8" cy="92.9" r="1.7" fill="rgba(255,60,60,0.25)"/><circle cx="136.1" cy="135.6" r="1.7" fill="rgba(255,60,60,0.79)"/><circle cx="86.5" cy="121.7" r="1.9" fill="rgba(255,60,60,0.25)"/><circle cx="103.5" cy="95.6" r="2.1" fill="rgba(255,60,60,0.25)"/><circle cx="71.6" cy="129.7" r="0.9" fill="rgba(255,60,60,0.33)"/><circle cx="122.7" cy="53.8" r="1.6" fill="rgba(255,60,60,0.25)"/><circle cx="54.7" cy="136.1" r="0.9" fill="rgba(255,60,60,0.49)"/><circle cx="61.7" cy="130.8" r="1.3" fill="rgba(255,60,60,0.97)"/><circle cx="115.1" cy="74.5" r="0.9" fill="rgba(255,60,60,0.87)"/><circle cx="92.4" cy="91.6" r="1.0" fill="rgba(255,60,60,0.25)"/><circle cx="73.3" cy="112.8" r="1.5" fill="rgba(255,60,60,0.84)"/><circle cx="101.6" cy="62.7" r="1.5" fill="rgba(255,60,60,0.46)"/><circle cx="76.5" cy="79.6" r="1.1" fill="rgba(255,60,60,0.31)"/><circle cx="65.9" cy="116.7" r="1.5" fill="rgba(255,60,60,0.8)"/><circle cx="112.9" cy="87.2" r="1.1" fill="rgba(255,60,60,0.53)"/><circle cx="76.7" cy="124.2" r="0.9" fill="rgba(255,60,60,0.26)"/><circle cx="87.2" cy="83.7" r="0.9" fill="rgba(255,60,60,0.69)"/><circle cx="120.0" cy="105.2" r="1.9" fill="rgba(255,60,60,0.8)"/><circle cx="86.8" cy="69.3" r="1.9" fill="rgba(255,60,60,0.84)"/><circle cx="87.4" cy="73.6" r="1.3" fill="rgba(255,60,60,1.0)"/><circle cx="101.4" cy="43.5" r="1.7" fill="rgba(255,60,60,0.88)"/><circle cx="91.0" cy="49.1" r="1.5" fill="rgba(255,60,60,0.38)"/><circle cx="100.6" cy="52.9" r="1.6" fill="rgba(255,60,60,0.82)"/><circle cx="111.8" cy="73.1" r="1.6" fill="rgba(255,60,60,1.0)"/><circle cx="78.0" cy="114.3" r="1.2" fill="rgba(255,60,60,0.41)"/><circle cx="73.3" cy="108.9" r="2.1" fill="rgba(255,60,60,0.98)"/><circle cx="108.5" cy="80.2" r="1.0" fill="rgba(255,60,60,0.41)"/><circle cx="124.6" cy="73.2" r="1.1" fill="rgba(255,60,60,0.25)"/><circle cx="54.3" cy="140.3" r="1.3" fill="rgba(255,60,60,0.64)"/><circle cx="94.3" cy="77.1" r="2.0" fill="rgba(255,60,60,0.33)"/><circle cx="113.7" cy="60.4" r="2.0" fill="rgba(255,60,60,0.39)"/><circle cx="89.0" cy="38.0" r="1.9" fill="rgba(255,60,60,0.25)"/><circle cx="83.0" cy="59.9" r="1.2" fill="rgba(255,60,60,0.27)"/><circle cx="68.9" cy="85.2" r="1.7" fill="rgba(255,60,60,0.25)"/><circle cx="67.2" cy="136.4" r="1.5" fill="rgba(255,60,60,0.41)"/><circle cx="104.9" cy="63.0" r="1.3" fill="rgba(255,60,60,0.81)"/><circle cx="118.0" cy="99.3" r="1.3" fill="rgba(255,60,60,0.52)"/><circle cx="79.6" cy="110.9" r="1.5" fill="rgba(255,60,60,0.79)"/><circle cx="84.2" cy="91.0" r="0.9" fill="rgba(255,60,60,0.67)"/><circle cx="83.1" cy="80.3" r="1.7" fill="rgba(255,60,60,0.94)"/><circle cx="71.3" cy="133.3" r="1.6" fill="rgba(255,60,60,0.28)"/><circle cx="126.7" cy="116.9" r="0.9" fill="rgba(255,60,60,0.63)"/><circle cx="108.0" cy="117.4" r="1.4" fill="rgba(255,60,60,0.27)"/><circle cx="121.0" cy="72.6" r="1.9" fill="rgba(255,60,60,0.3)"/><circle cx="140.4" cy="104.1" r="1.1" fill="rgba(255,60,60,0.25)"/><circle cx="55.7" cy="126.6" r="2.0" fill="rgba(255,60,60,0.3)"/><circle cx="57.6" cy="123.0" r="1.7" fill="rgba(255,60,60,0.31)"/><circle cx="89.9" cy="54.6" r="1.0" fill="rgba(255,60,60,0.48)"/><circle cx="123.6" cy="111.8" r="1.1" fill="rgba(255,60,60,0.67)"/><circle cx="65.5" cy="115.6" r="0.9" fill="rgba(255,60,60,0.69)"/><circle cx="80.0" cy="87.2" r="1.0" fill="rgba(255,60,60,0.93)"/><circle cx="116.5" cy="106.6" r="1.6" fill="rgba(255,60,60,0.94)"/><circle cx="139.4" cy="143.1" r="1.8" fill="rgba(255,60,60,0.8)"/><circle cx="137.7" cy="120.6" r="1.0" fill="rgba(255,60,60,0.58)"/><circle cx="146.2" cy="145.3" r="1.4" fill="rgba(255,60,60,0.49)"/><circle cx="140.5" cy="126.0" r="1.2" fill="rgba(255,60,60,0.53)"/><circle cx="118.4" cy="92.8" r="1.2" fill="rgba(255,60,60,0.88)"/><circle cx="93.0" cy="111.3" r="2.0" fill="rgba(255,60,60,0.74)"/><circle cx="107.2" cy="72.5" r="0.9" fill="rgba(255,60,60,0.61)"/><circle cx="76.9" cy="99.7" r="1.4" fill="rgba(255,60,60,0.99)"/><circle cx="116.8" cy="66.5" r="2.0" fill="rgba(255,60,60,0.36)"/><circle cx="85.4" cy="100.9" r="1.5" fill="rgba(255,60,60,0.35)"/><circle cx="107.4" cy="78.4" r="1.0" fill="rgba(255,60,60,0.39)"/><circle cx="103.5" cy="60.7" r="1.5" fill="rgba(255,60,60,0.77)"/><circle cx="68.8" cy="99.9" r="1.5" fill="rgba(255,60,60,0.37)"/><circle cx="54.6" cy="131.3" r="1.0" fill="rgba(255,60,60,0.34)"/><circle cx="58.6" cy="124.7" r="1.1" fill="rgba(255,60,60,0.4)"/><circle cx="109.3" cy="43.9" r="0.9" fill="rgba(255,60,60,0.28)"/><circle cx="76.1" cy="113.8" r="1.0" fill="rgba(255,60,60,0.49)"/><circle cx="135.1" cy="145.7" r="1.2" fill="rgba(255,60,60,0.31)"/><circle cx="136.3" cy="112.9" r="1.4" fill="rgba(255,60,60,0.4)"/><circle cx="61.0" cy="133.1" r="1.9" fill="rgba(255,60,60,0.98)"/><circle cx="96.3" cy="100.4" r="1.3" fill="rgba(255,60,60,0.32)"/><circle cx="72.9" cy="99.4" r="2.0" fill="rgba(255,60,60,0.74)"/><circle cx="115.2" cy="107.4" r="1.2" fill="rgba(255,60,60,0.99)"/><circle cx="127.3" cy="92.1" r="1.3" fill="rgba(255,60,60,0.4)"/><circle cx="105.8" cy="79.5" r="1.2" fill="rgba(255,60,60,0.29)"/><circle cx="84.9" cy="59.7" r="1.3" fill="rgba(255,60,60,0.31)"/><circle cx="135.3" cy="136.8" r="1.0" fill="rgba(255,60,60,0.63)"/><circle cx="89.2" cy="112.8" r="0.9" fill="rgba(255,60,60,0.54)"/><circle cx="81.1" cy="90.3" r="1.1" fill="rgba(255,60,60,0.99)"/><circle cx="106.3" cy="110.2" r="1.2" fill="rgba(255,60,60,0.87)"/><circle cx="130.0" cy="124.7" r="1.8" fill="rgba(255,60,60,0.63)"/><circle cx="69.0" cy="122.3" r="0.8" fill="rgba(255,60,60,0.86)"/><circle cx="67.7" cy="99.5" r="1.9" fill="rgba(255,60,60,0.31)"/><circle cx="120.8" cy="102.9" r="1.6" fill="rgba(255,60,60,0.66)"/><circle cx="60.2" cy="119.8" r="1.0" fill="rgba(255,60,60,0.37)"/><circle cx="133.3" cy="114.1" r="1.5" fill="rgba(255,60,60,0.76)"/><circle cx="69.4" cy="82.5" r="0.8" fill="rgba(255,60,60,0.25)"/><circle cx="91.8" cy="51.8" r="1.0" fill="rgba(255,60,60,0.55)"/><circle cx="127.2" cy="91.1" r="1.3" fill="rgba(255,60,60,0.38)"/><circle cx="117.5" cy="96.4" r="1.7" fill="rgba(255,60,60,0.6)"/><circle cx="88.5" cy="68.8" r="2.1" fill="rgba(255,60,60,0.97)"/><circle cx="87.1" cy="77.0" r="1.0" fill="rgba(255,60,60,0.98)"/><circle cx="86.0" cy="59.4" r="1.0" fill="rgba(255,60,60,0.35)"/><circle cx="116.7" cy="97.0" r="2.1" fill="rgba(255,60,60,0.49)"/><circle cx="69.7" cy="106.8" r="1.3" fill="rgba(255,60,60,0.74)"/><circle cx="112.9" cy="112.6" r="1.6" fill="rgba(255,60,60,0.57)"/><circle cx="104.9" cy="57.2" r="1.1" fill="rgba(255,60,60,1.0)"/><circle cx="59.2" cy="143.1" r="1.5" fill="rgba(255,60,60,0.92)"/><circle cx="62.6" cy="130.3" r="1.6" fill="rgba(255,60,60,1.0)"/><circle cx="137.3" cy="139.1" r="0.9" fill="rgba(255,60,60,0.76)"/><circle cx="102.4" cy="85.2" r="1.3" fill="rgba(255,60,60,0.25)"/><circle cx="102.4" cy="59.0" r="1.2" fill="rgba(255,60,60,0.72)"/><circle cx="108.0" cy="37.0" r="1.7" fill="rgba(255,60,60,0.25)"/><circle cx="133.3" cy="105.4" r="0.9" fill="rgba(255,60,60,0.38)"/><circle cx="118.9" cy="70.2" r="1.8" fill="rgba(255,60,60,0.34)"/><circle cx="86.3" cy="94.1" r="2.0" fill="rgba(255,60,60,0.36)"/><circle cx="128.9" cy="98.9" r="1.7" fill="rgba(255,60,60,0.52)"/><circle cx="124.1" cy="88.9" r="1.7" fill="rgba(255,60,60,0.57)"/><circle cx="136.1" cy="136.4" r="1.2" fill="rgba(255,60,60,0.75)"/><circle cx="101.3" cy="81.3" r="1.2" fill="rgba(255,60,60,0.25)"/><circle cx="104.2" cy="75.6" r="1.4" fill="rgba(255,60,60,0.3)"/><circle cx="109.6" cy="74.6" r="1.1" fill="rgba(255,60,60,0.77)"/><circle cx="78.8" cy="95.0" r="1.5" fill="rgba(255,60,60,0.99)"/><circle cx="92.4" cy="108.0" r="1.9" fill="rgba(255,60,60,1.0)"/><circle cx="99.8" cy="112.2" r="1.2" fill="rgba(255,60,60,0.62)"/><circle cx="67.1" cy="132.3" r="2.0" fill="rgba(255,60,60,0.59)"/><circle cx="79.3" cy="98.4" r="2.0" fill="rgba(255,60,60,0.86)"/><circle cx="68.5" cy="96.6" r="1.4" fill="rgba(255,60,60,0.29)"/><circle cx="56.0" cy="131.1" r="2.0" fill="rgba(255,60,60,0.42)"/><circle cx="104.6" cy="40.8" r="1.2" fill="rgba(255,60,60,0.41)"/><circle cx="144.8" cy="133.1" r="2.0" fill="rgba(255,60,60,0.42)"/><circle cx="71.2" cy="120.6" r="1.8" fill="rgba(255,60,60,0.7)"/><circle cx="110.9" cy="86.3" r="1.5" fill="rgba(255,60,60,0.4)"/><circle cx="108.9" cy="73.1" r="1.7" fill="rgba(255,60,60,0.77)"/><circle cx="97.7" cy="48.2" r="1.9" fill="rgba(255,60,60,0.98)"/><circle cx="108.0" cy="114.1" r="1.8" fill="rgba(255,60,60,0.42)"/><circle cx="87.8" cy="93.2" r="2.0" fill="rgba(255,60,60,0.31)"/><circle cx="126.6" cy="112.8" r="1.2" fill="rgba(255,60,60,0.84)"/><circle cx="139.4" cy="126.0" r="1.7" fill="rgba(255,60,60,0.65)"/><circle cx="119.7" cy="121.0" r="1.9" fill="rgba(255,60,60,0.25)"/><circle cx="137.9" cy="127.9" r="1.4" fill="rgba(255,60,60,0.9)"/><circle cx="137.1" cy="125.7" r="1.2" fill="rgba(255,60,60,0.89)"/><circle cx="71.7" cy="132.3" r="1.1" fill="rgba(255,60,60,0.29)"/><circle cx="95.2" cy="58.9" r="2.0" fill="rgba(255,60,60,0.96)"/><circle cx="121.1" cy="116.7" r="1.8" fill="rgba(255,60,60,0.29)"/><circle cx="55.6" cy="129.1" r="1.6" fill="rgba(255,60,60,0.34)"/><circle cx="95.2" cy="70.9" r="1.3" fill="rgba(255,60,60,0.44)"/><circle cx="93.4" cy="110.6" r="1.0" fill="rgba(255,60,60,0.82)"/><circle cx="61.5" cy="94.3" r="1.0" fill="rgba(255,60,60,0.25)"/><circle cx="118.4" cy="107.1" r="1.5" fill="rgba(255,60,60,0.98)"/><circle cx="126.1" cy="121.5" r="1.2" fill="rgba(255,60,60,0.39)"/><circle cx="76.2" cy="96.4" r="2.1" fill="rgba(255,60,60,0.94)"/><circle cx="121.8" cy="63.9" r="1.5" fill="rgba(255,60,60,0.25)"/><circle cx="137.1" cy="126.8" r="1.0" fill="rgba(255,60,60,0.93)"/><circle cx="79.6" cy="83.5" r="1.1" fill="rgba(255,60,60,0.72)"/><circle cx="87.9" cy="77.0" r="1.1" fill="rgba(255,60,60,0.92)"/><circle cx="66.3" cy="140.9" r="1.9" fill="rgba(255,60,60,0.35)"/><circle cx="60.3" cy="122.4" r="1.5" fill="rgba(255,60,60,0.46)"/><circle cx="75.9" cy="106.9" r="1.8" fill="rgba(255,60,60,0.96)"/><circle cx="128.9" cy="112.7" r="1.9" fill="rgba(255,60,60,1.0)"/><circle cx="108.9" cy="79.2" r="1.2" fill="rgba(255,60,60,0.48)"/><circle cx="139.3" cy="126.2" r="1.0" fill="rgba(255,60,60,0.67)"/><circle cx="145.4" cy="139.7" r="1.9" fill="rgba(255,60,60,0.64)"/><circle cx="47.5" cy="130.9" r="1.1" fill="rgba(255,60,60,0.25)"/><circle cx="114.8" cy="71.5" r="1.5" fill="rgba(255,60,60,0.77)"/><circle cx="67.8" cy="126.8" r="1.9" fill="rgba(255,60,60,0.77)"/><circle cx="135.2" cy="95.5" r="1.8" fill="rgba(255,60,60,0.25)"/><circle cx="109.7" cy="78.8" r="1.6" fill="rgba(255,60,60,0.58)"/><circle cx="134.7" cy="147.3" r="2.1" fill="rgba(255,60,60,0.28)"/><circle cx="94.8" cy="113.3" r="1.4" fill="rgba(255,60,60,0.5)"/><circle cx="125.4" cy="117.8" r="1.1" fill="rgba(255,60,60,0.46)"/><circle cx="114.8" cy="62.2" r="1.0" fill="rgba(255,60,60,0.37)"/><circle cx="135.6" cy="132.6" r="0.8" fill="rgba(255,60,60,0.87)"/><circle cx="67.4" cy="101.4" r="0.8" fill="rgba(255,60,60,0.33)"/><circle cx="137.7" cy="125.9" r="0.9" fill="rgba(255,60,60,0.84)"/><circle cx="79.9" cy="106.2" r="1.4" fill="rgba(255,60,60,0.91)"/><circle cx="115.9" cy="55.1" r="2.0" fill="rgba(255,60,60,0.26)"/><circle cx="109.8" cy="107.6" r="1.4" fill="rgba(255,60,60,1.0)"/><circle cx="50.7" cy="118.4" r="1.4" fill="rgba(255,60,60,0.25)"/><circle cx="88.6" cy="112.1" r="1.1" fill="rgba(255,60,60,0.63)"/><circle cx="117.0" cy="114.4" r="1.0" fill="rgba(255,60,60,0.39)"/><circle cx="115.3" cy="120.5" r="0.9" fill="rgba(255,60,60,0.25)"/>
  </g>
  <text x="100" y="178" text-anchor="middle" font-family="Arial Black,sans-serif" font-size="14" font-weight="900" fill="rgba(255,255,255,0.65)" letter-spacing="4">A3KM</text>
  <text x="100" y="192" text-anchor="middle" font-family="Courier New,monospace" font-size="8" font-weight="700" fill="rgba(200,0,0,0.7)" letter-spacing="4">STUDIO</text>
  <rect width="200" height="200" rx="18" fill="none" stroke="rgba(180,0,0,0.15)" stroke-width="1.2"/>
</svg>