<?xml version="1.0" encoding="UTF-8"?>
<svg xmlns="http://www.w3.org/2000/svg" viewBox="0 0 200 200" width="200" height="200">
  <defs>
    <linearGradient id="gE-l1" x1="0" y1="155" x2="0" y2="38" gradientUnits="userSpaceOnUse">
      <stop offset="0%" stop-color="#FF5500"/>
      <stop offset="42%" stop-color="#CC1100"/>
      <stop offset="100%" stop-color="#550000"/>
    </linearGradient>
    <linearGradient id="gE-l2" x1="0" y1="155" x2="0" y2="64" gradientUnits="userSpaceOnUse">
      <stop offset="0%" stop-color="#FF4400"/>
      <stop offset="45%" stop-color="#BB0F00"/>
      <stop offset="100%" stop-color="#440000"/>
    </linearGradient>
    <linearGradient id="gE-l3" x1="0" y1="155" x2="0" y2="92" gradientUnits="userSpaceOnUse">
      <stop offset="0%" stop-color="#FF3300"/>
      <stop offset="100%" stop-color="#440000"/>
    </linearGradient>
    <linearGradient id="gE-surf" x1="0" y1="0" x2="0" y2="1">
      <stop offset="0%" stop-color="#FF4400" stop-opacity="1"/>
      <stop offset="100%" stop-color="#1a0000" stop-opacity="1"/>
    </linearGradient>
    <filter id="fE-g">
      <feGaussianBlur stdDeviation="2.5" result="blur"/>
      <feMerge><feMergeNode in="blur"/><feMergeNode in="SourceGraphic"/></feMerge>
    </filter>
    <filter id="fE-s">
      <feGaussianBlur stdDeviation="5" result="blur"/>
      <feMerge><feMergeNode in="blur"/><feMergeNode in="SourceGraphic"/></feMerge>
    </filter>
    <clipPath id="cE">
      <rect width="200" height="200" rx="18"/>
    </clipPath>
  </defs>
  <rect width="200" height="200" rx="18" fill="#030000"/>
  <g fill="rgba(255,255,255,0.5)" clip-path="url(#cE)">
    <circle cx="18" cy="22" r="0.8"/><circle cx="42" cy="8" r="0.6"/>
    <circle cx="78" cy="18" r="0.7"/><circle cx="130" cy="12" r="0.9"/>
    <circle cx="162" cy="26" r="0.6"/><circle cx="185" cy="10" r="0.8"/>
    <circle cx="25" cy="45" r="0.5"/><circle cx="165" cy="52" r="0.6"/>
    <circle cx="10" cy="75" r="0.7"/><circle cx="190" cy="68" r="0.5"/>
    <circle cx="55" cy="30" r="0.5"/><circle cx="148" cy="40" r="0.5"/>
  </g>
  <rect x="0" y="150" width="200" height="50" fill="url(#gE-surf)" clip-path="url(#cE)"/>
  <line x1="0" y1="155" x2="200" y2="155" stroke="#FF5500" stroke-width="2" opacity="0.7" filter="url(#fE-s)"/>
  <line x1="0" y1="155" x2="200" y2="155" stroke="#FF7700" stroke-width="0.8" opacity="0.9"/>
  <path d="M 85,155 C 58,28 142,22 115,155"
        fill="none" stroke="url(#gE-l1)" stroke-width="3" stroke-linecap="round" filter="url(#fE-g)"/>
  <path d="M 72,155 C 54,66 148,72 128,155"
        fill="none" stroke="url(#gE-l2)" stroke-width="2.8" stroke-linecap="round" filter="url(#fE-g)"/>
  <path d="M 52,155 C 36,96 165,100 148,155"
        fill="none" stroke="url(#gE-l3)" stroke-width="2.5" stroke-linecap="round" opacity="0.85"/>
  <circle cx="85"  cy="155" r="4" fill="#FF6600" opacity="0.85" filter="url(#fE-g)"/>
  <circle cx="115" cy="155" r="4" fill="#FF6600" opacity="0.85" filter="url(#fE-g)"/>
  <circle cx="100" cy="155" r="2.5" fill="#FFAA44" opacity="0.7"/>
  <text x="100" y="22" text-anchor="middle" font-family="Arial Black,sans-serif" font-size="14" font-weight="900" fill="#FFFFFF" letter-spacing="4" opacity="0.9">A3KM</text>
  <text x="100" y="36" text-anchor="middle" font-family="Courier New,monospace" font-size="8" font-weight="700" fill="rgba(255,120,0,0.8)" letter-spacing="4">STUDIO</text>
  <rect width="200" height="200" rx="18" fill="none" stroke="rgba(180,60,0,0.22)" stroke-width="1.2"/>
</svg>