<?xml version="1.0" encoding="UTF-8"?>
<!-- Source: Biology — Watson & Crick DNA double helix, 1953 -->
<svg xmlns="http://www.w3.org/2000/svg" viewBox="0 0 200 200" width="200" height="200">
  <defs>
    <linearGradient id="gJ1" x1="0" y1="0" x2="0" y2="1"><stop offset="0%" stop-color="#FF2222"/><stop offset="100%" stop-color="#880000"/></linearGradient>
    <linearGradient id="gJ2" x1="0" y1="0" x2="0" y2="1"><stop offset="0%" stop-color="#AAAAAA"/><stop offset="100%" stop-color="#444444"/></linearGradient>
    <filter id="fJ"><feGaussianBlur stdDeviation="1.5" result="b"/><feMerge><feMergeNode in="b"/><feMergeNode in="SourceGraphic"/></feMerge></filter>
  </defs>
  <rect width="200" height="200" rx="18" fill="#040000"/>
  <path d="M 100.0,22.0 138.0,35.6 123.5,49.2 76.5,62.8 62.0,76.4 100.0,90.0 138.0,103.6 123.5,117.2 76.5,130.8 62.0,144.4 100.0,158.0" fill="none" stroke="url(#gJ1)" stroke-width="3.5" stroke-linecap="round" stroke-linejoin="round" filter="url(#fJ)"/>
  <path d="M 100.0,22.0 62.0,35.6 76.5,49.2 123.5,62.8 138.0,76.4 100.0,90.0 62.0,103.6 76.5,117.2 123.5,130.8 138.0,144.4 100.0,158.0" fill="none" stroke="url(#gJ2)" stroke-width="3.5" stroke-linecap="round" stroke-linejoin="round"/>
  <g><line x1="100.0" y1="22.0" x2="100.0" y2="22.0" stroke="rgba(255,255,255,0.25)" stroke-width="1.2"/>
    <line x1="138.0" y1="35.6" x2="62.0" y2="35.6" stroke="rgba(255,255,255,0.25)" stroke-width="1.2"/>
    <line x1="123.5" y1="49.2" x2="76.5" y2="49.2" stroke="rgba(255,255,255,0.25)" stroke-width="1.2"/>
    <line x1="76.5" y1="62.8" x2="123.5" y2="62.8" stroke="rgba(255,255,255,0.25)" stroke-width="1.2"/>
    <line x1="62.0" y1="76.4" x2="138.0" y2="76.4" stroke="rgba(255,255,255,0.25)" stroke-width="1.2"/>
    <line x1="100.0" y1="90.0" x2="100.0" y2="90.0" stroke="rgba(255,255,255,0.25)" stroke-width="1.2"/>
    <line x1="138.0" y1="103.6" x2="62.0" y2="103.6" stroke="rgba(255,255,255,0.25)" stroke-width="1.2"/>
    <line x1="123.5" y1="117.2" x2="76.5" y2="117.2" stroke="rgba(255,255,255,0.25)" stroke-width="1.2"/>
    <line x1="76.5" y1="130.8" x2="123.5" y2="130.8" stroke="rgba(255,255,255,0.25)" stroke-width="1.2"/>
    <line x1="62.0" y1="144.4" x2="138.0" y2="144.4" stroke="rgba(255,255,255,0.25)" stroke-width="1.2"/>
    <line x1="100.0" y1="158.0" x2="100.0" y2="158.0" stroke="rgba(255,255,255,0.25)" stroke-width="1.2"/></g>
  <text x="100" y="192" text-anchor="middle" font-family="Arial Black,sans-serif" font-size="12" font-weight="900" fill="#FFFFFF" letter-spacing="5">A3KM</text>
  <rect width="200" height="200" rx="18" fill="none" stroke="rgba(180,0,0,0.18)" stroke-width="1.2"/>
</svg>