<?xml version="1.0" encoding="UTF-8"?>
<svg xmlns="http://www.w3.org/2000/svg" viewBox="0 0 200 200" width="200" height="200">
  <defs>
    <radialGradient id="gA-bg" cx="50%" cy="50%" r="50%">
      <stop offset="0%" stop-color="#0e0000"/>
      <stop offset="100%" stop-color="#040000"/>
    </radialGradient>
    <filter id="fA-p">
      <feGaussianBlur stdDeviation="4" result="blur"/>
      <feMerge><feMergeNode in="blur"/><feMergeNode in="SourceGraphic"/></feMerge>
    </filter>
    <filter id="fA-g">
      <feGaussianBlur stdDeviation="2" result="blur"/>
      <feMerge><feMergeNode in="blur"/><feMergeNode in="SourceGraphic"/></feMerge>
    </filter>
    <clipPath id="cA">
      <circle cx="100" cy="100" r="88"/>
    </clipPath>
  </defs>
  <circle cx="100" cy="100" r="100" fill="url(#gA-bg)"/>
  <g clip-path="url(#cA)">
    <path d="M 65,100 C 65,82 135,82 135,100" fill="none" stroke="#FF2222" stroke-width="2.5" opacity="0.95" filter="url(#fA-g)"/>
    <path d="M 65,100 C 65,61 135,61 135,100" fill="none" stroke="#EE1111" stroke-width="2" opacity="0.80"/>
    <path d="M 65,100 C 56,36 144,36 135,100" fill="none" stroke="#CC0000" stroke-width="1.5" opacity="0.62"/>
    <path d="M 65,100 C 38,2 162,2 135,100"   fill="none" stroke="#AA0000" stroke-width="1.1" opacity="0.44"/>
    <path d="M 65,100 C 5,-34 195,-34 135,100" fill="none" stroke="#880000" stroke-width="0.8" opacity="0.28"/>
    <path d="M 65,100 C 65,118 135,118 135,100" fill="none" stroke="#FF2222" stroke-width="2.5" opacity="0.95" filter="url(#fA-g)"/>
    <path d="M 65,100 C 65,139 135,139 135,100" fill="none" stroke="#EE1111" stroke-width="2" opacity="0.80"/>
    <path d="M 65,100 C 56,164 144,164 135,100" fill="none" stroke="#CC0000" stroke-width="1.5" opacity="0.62"/>
    <path d="M 65,100 C 38,198 162,198 135,100" fill="none" stroke="#AA0000" stroke-width="1.1" opacity="0.44"/>
    <path d="M 65,100 C 5,234 195,234 135,100"  fill="none" stroke="#880000" stroke-width="0.8" opacity="0.28"/>
    <line x1="16" y1="100" x2="62" y2="100" stroke="rgba(255,80,80,0.3)" stroke-width="1" stroke-dasharray="3 3"/>
    <line x1="138" y1="100" x2="184" y2="100" stroke="rgba(255,80,80,0.3)" stroke-width="1" stroke-dasharray="3 3"/>
  </g>
  <circle cx="65" cy="100" r="9" fill="#AA0000" filter="url(#fA-p)"/>
  <circle cx="65" cy="100" r="5.5" fill="#FF3333"/>
  <circle cx="65" cy="100" r="2" fill="#FFFFFF" opacity="0.9"/>
  <circle cx="135" cy="100" r="9" fill="#AA0000" filter="url(#fA-p)"/>
  <circle cx="135" cy="100" r="5.5" fill="#FF3333"/>
  <circle cx="135" cy="100" r="2" fill="#FFFFFF" opacity="0.9"/>
  <text x="65" y="86" text-anchor="middle" font-family="Courier New,monospace" font-size="8" font-weight="900" fill="rgba(255,130,130,0.75)">N</text>
  <text x="135" y="86" text-anchor="middle" font-family="Courier New,monospace" font-size="8" font-weight="900" fill="rgba(255,130,130,0.75)">S</text>
  <text x="100" y="174" text-anchor="middle" font-family="Arial Black,sans-serif" font-size="14" font-weight="900" fill="#FFFFFF" letter-spacing="4">A3KM</text>
  <text x="100" y="189" text-anchor="middle" font-family="Courier New,monospace" font-size="8" font-weight="700" fill="rgba(200,0,0,0.8)" letter-spacing="4">STUDIO</text>
  <circle cx="100" cy="100" r="98" fill="none" stroke="rgba(180,0,0,0.12)" stroke-width="1"/>
</svg>