<?xml version="1.0" encoding="UTF-8"?>
<!-- Source: Mathematics — Mandelbrot fractal set boundary, chaos theory -->
<svg xmlns="http://www.w3.org/2000/svg" viewBox="0 0 200 200" width="200" height="200">
  <defs>
    <radialGradient id="gS_bg" cx="42%" cy="50%" r="52%"><stop offset="0%" stop-color="#1a0000"/><stop offset="100%" stop-color="#040000"/></radialGradient>
    <filter id="fS"><feGaussianBlur stdDeviation="2" result="b"/><feMerge><feMergeNode in="b"/><feMergeNode in="SourceGraphic"/></feMerge></filter>
  </defs>
  <rect width="200" height="200" rx="18" fill="url(#gS_bg)"/>
  <!-- Simplified Mandelbrot body shape cardioid + period-2 bulb -->
  <path d="M 130,100 C 130,78 116,58 100,53 C 82,48 62,60 54,75 C 46,90 50,115 62,128 C 74,142 92,148 100,147 C 115,145 130,122 130,100 Z"
        fill="rgba(180,0,0,0.75)" stroke="rgba(255,60,60,0.6)" stroke-width="1.5" filter="url(#fS)"/>
  <!-- Period-2 bulb (top circle) -->
  <circle cx="100" cy="73" r="12" fill="rgba(140,0,0,0.85)" stroke="rgba(255,40,40,0.5)" stroke-width="1"/>
  <!-- Period-3 mini-bulb left -->
  <circle cx="60" cy="95" r="7" fill="rgba(100,0,0,0.8)" stroke="rgba(255,40,40,0.35)" stroke-width="0.8"/>
  <!-- Antenna -->
  <path d="M 130,100 L 148,96 L 160,88 M 160,88 L 168,82 M 160,88 L 164,94" 
        fill="none" stroke="rgba(255,60,60,0.55)" stroke-width="1" stroke-linecap="round"/>
  <!-- Tendrils -->
  <path d="M 60,128 C 44,135 30,138 20,130" fill="none" stroke="rgba(255,40,40,0.35)" stroke-width="0.9"/>
  <path d="M 62,75 C 48,65 38,52 34,42" fill="none" stroke="rgba(255,40,40,0.35)" stroke-width="0.9"/>
  <!-- Sparkling boundary dots -->
  <g fill="rgba(255,100,100,0.6)" filter="url(#fS)">
    <circle cx="130" cy="100" r="1.5"/><circle cx="130" cy="78" r="1.2"/>
    <circle cx="54" cy="75" r="1.2"/><circle cx="62" cy="128" r="1.2"/>
    <circle cx="100" cy="147" r="1.5"/><circle cx="168" cy="82" r="1"/>
  </g>
  <text x="100" y="192" text-anchor="middle" font-family="Arial Black,sans-serif" font-size="12" font-weight="900" fill="#FFFFFF" letter-spacing="5">A3KM</text>
  <rect width="200" height="200" rx="18" fill="none" stroke="rgba(180,0,0,0.15)" stroke-width="1.2"/>
</svg>