<?xml version="1.0" encoding="UTF-8"?>
<!-- Source: Math/Nature — Fibonacci sequence φ=1.618... golden ratio -->
<svg xmlns="http://www.w3.org/2000/svg" viewBox="0 0 200 200" width="200" height="200">
  <defs>
    <filter id="fM"><feGaussianBlur stdDeviation="1.5" result="b"/><feMerge><feMergeNode in="b"/><feMergeNode in="SourceGraphic"/></feMerge></filter>
  </defs>
  <rect width="200" height="200" rx="18" fill="#040000"/>
  <g stroke="rgba(255,255,255,0.07)" stroke-width="0.8">
    <line x1="0" y1="100" x2="200" y2="100"/><line x1="100" y1="0" x2="100" y2="200"/>
  </g>
  <path d="M65,91.0 A3.0,3.0 0 0,0 68.0,88" fill="none" stroke="rgba(255,40,40,0.3)" stroke-width="0.8" stroke-linecap="round"/>
  <path d="M68.0,88 A3.0,3.0 0 0,1 71.0,91.0" fill="none" stroke="rgba(255,40,40,0.37)" stroke-width="1.0" stroke-linecap="round"/>
  <path d="M74.0,91.0 A6.0,6.0 0 0,0 68.0,97.0" fill="none" stroke="rgba(255,40,40,0.44)" stroke-width="1.2" stroke-linecap="round"/>
  <path d="M71.0,100.0 A9.0,9.0 0 0,1 62.0,91.0" fill="none" stroke="rgba(255,40,40,0.51)" stroke-width="1.3" stroke-linecap="round"/>
  <path d="M62.0,97.0 A15.0,15.0 0 0,0 77.0,82.0" fill="none" stroke="rgba(255,40,40,0.58)" stroke-width="1.5" stroke-linecap="round"/>
  <path d="M77.0,82.0 A24.0,24.0 0 0,1 101.0,106.0" fill="none" stroke="rgba(255,40,40,0.65)" stroke-width="1.7" stroke-linecap="round"/>
  <path d="M116.0,106.0 A39.0,39.0 0 0,0 77.0,145.0" fill="none" stroke="rgba(255,40,40,0.72)" stroke-width="1.9" stroke-linecap="round"/>
  <path d="M101.0,169.0 A63.0,63.0 0 0,1 38.0,106.0" fill="none" stroke="rgba(255,40,40,0.79)" stroke-width="2.1" stroke-linecap="round"/>
  <path d="M38.0,145.0 A102.0,102.0 0 0,0 140.0,43.0" fill="none" stroke="rgba(255,40,40,0.86)" stroke-width="2.2" stroke-linecap="round"/>
  <circle cx="100" cy="100" r="3.5" fill="#FF2222" filter="url(#fM)"/>
  <circle cx="100" cy="100" r="1.5" fill="#FFFFFF"/>
  <text x="16" y="22" font-family="serif" font-size="16" fill="rgba(255,80,80,0.35)" font-weight="700">φ</text>
  <text x="100" y="192" text-anchor="middle" font-family="Arial Black,sans-serif" font-size="12" font-weight="900" fill="#FFFFFF" letter-spacing="5">A3KM</text>
  <rect width="200" height="200" rx="18" fill="none" stroke="rgba(180,0,0,0.18)" stroke-width="1.2"/>
</svg>