<?xml version="1.0" encoding="UTF-8"?>
<!-- Source: Mathematics/Biology — Voronoi diagrams found in giraffe skin, dragonfly wings, cell tissue -->
<svg xmlns="http://www.w3.org/2000/svg" viewBox="0 0 200 200" width="200" height="200">
  <defs>
    <filter id="fT"><feGaussianBlur stdDeviation="1.8" result="b"/><feMerge><feMergeNode in="b"/><feMergeNode in="SourceGraphic"/></feMerge></filter>
    <clipPath id="cT"><circle cx="100" cy="100" r="90"/></clipPath>
  </defs>
  <circle cx="100" cy="100" r="100" fill="#040000"/>
  <!-- Voronoi-like cell edges clipped to circle -->
  <g clip-path="url(#cT)" fill="none" stroke="rgba(200,0,0,0.6)" stroke-width="1.2" stroke-linecap="round">
    <path d="M 100,10 L 44,36 L 14,90 L 30,154 L 90,184 L 148,170 L 180,120 L 170,60 Z"/>
    <path d="M 44,36 L 100,10 L 100,62 Z"/>
    <path d="M 100,62 L 100,10 L 170,60 L 142,68 Z"/>
    <path d="M 142,68 L 170,60 L 180,120 L 148,100 Z"/>
    <path d="M 148,100 L 180,120 L 148,170 L 128,142 Z"/>
    <path d="M 128,142 L 148,170 L 90,184 L 90,152 Z"/>
    <path d="M 90,152 L 90,184 L 30,154 L 60,132 Z"/>
    <path d="M 60,132 L 30,154 L 14,90 L 54,90 Z"/>
    <path d="M 54,90 L 14,90 L 44,36 L 100,62 Z"/>
    <path d="M 100,62 L 54,90 L 60,132 L 90,152 L 128,142 L 148,100 L 142,68 Z"/>
    <path d="M 66,60 L 100,62 L 54,90 Z"/>
    <path d="M 120,52 L 142,68 L 100,62 Z"/>
    <path d="M 156,105 L 148,100 L 142,68 Z"/>
    <path d="M 145,148 L 128,142 L 148,100 Z"/>
    <path d="M 108,160 L 90,152 L 128,142 Z"/>
    <path d="M 72,148 L 60,132 L 90,152 Z"/>
    <path d="M 42,115 L 54,90 L 60,132 Z"/>
  </g>
  <!-- Voronoi seed points (red) -->
  <g fill="#FF3333" filter="url(#fT)">
    <circle cx="100" cy="100" r="3.5"/>
    <circle cx="66" cy="60" r="2.2"/><circle cx="120" cy="52" r="2.2"/>
    <circle cx="156" cy="105" r="2.2"/><circle cx="145" cy="148" r="2.2"/>
    <circle cx="108" cy="160" r="2.2"/><circle cx="72" cy="148" r="2.2"/>
    <circle cx="42" cy="115" r="2.2"/>
  </g>
  <circle cx="100" cy="100" r="4.5" fill="rgba(255,0,0,0.5)" filter="url(#fT)"/>
  <circle cx="100" cy="100" r="2" fill="#FFFFFF" opacity="0.9"/>
  <text x="100" y="192" text-anchor="middle" font-family="Arial Black,sans-serif" font-size="12" font-weight="900" fill="#FFFFFF" letter-spacing="5">A3KM</text>
</svg>