<?xml version="1.0" encoding="UTF-8"?>
<svg xmlns="http://www.w3.org/2000/svg" viewBox="0 0 200 200" width="200" height="200">
  <defs>
    <linearGradient id="gC-red" x1="0" y1="0" x2="1" y2="1">
      <stop offset="0%" stop-color="#FF3333"/>
      <stop offset="100%" stop-color="#990000"/>
    </linearGradient>
    <filter id="fC-g">
      <feGaussianBlur stdDeviation="1.8" result="blur"/>
      <feMerge><feMergeNode in="blur"/><feMergeNode in="SourceGraphic"/></feMerge>
    </filter>
    <filter id="fC-c">
      <feGaussianBlur stdDeviation="5" result="blur"/>
      <feMerge><feMergeNode in="blur"/><feMergeNode in="SourceGraphic"/></feMerge>
    </filter>
  </defs>
  <rect width="200" height="200" rx="18" fill="#060000"/>
  <g stroke="rgba(150,0,0,0.05)" stroke-width="0.8">
    <line x1="0" y1="100" x2="200" y2="100"/>
    <line x1="105" y1="0" x2="105" y2="200"/>
    <line x1="0" y1="50" x2="200" y2="50"/>
    <line x1="0" y1="150" x2="200" y2="150"/>
    <line x1="55" y1="0" x2="55" y2="200"/>
    <line x1="155" y1="0" x2="155" y2="200"/>
  </g>
  <path d="M 108.5,103.0 L 108.6,102.6 L 108.6,102.3 L 108.5,101.9 L 108.5,101.5 L 108.4,101.2 L 108.2,100.8 L 108.1,100.4 L 107.9,100.1 L 107.6,99.7 L 107.3,99.4 L 107.0,99.1 L 106.6,98.9 L 106.2,98.7 L 105.8,98.5 L 105.3,98.3 L 104.9,98.2 L 104.4,98.2 L 103.9,98.2 L 103.4,98.2 L 102.8,98.3 L 102.3,98.4 L 101.8,98.7 L 101.3,98.9 L 100.9,99.2 L 100.4,99.6 L 100.0,100.0 L 99.6,100.5 L 99.3,101.0 L 99.0,101.5 L 98.8,102.1 L 98.6,102.7 L 98.5,103.4 L 98.4,104.1 L 98.4,104.7 L 98.5,105.4 L 98.7,106.1 L 98.9,106.8 L 99.2,107.5 L 99.6,108.1 L 100.0,108.8 L 100.5,109.4 L 101.1,109.9 L 101.8,110.4 L 102.5,110.9 L 103.2,111.2 L 104.0,111.5 L 104.9,111.8 L 105.8,111.9 L 106.7,111.9 L 107.6,111.9 L 108.6,111.8 L 109.5,111.5 L 110.5,111.2 L 111.4,110.8 L 112.2,110.2 L 113.1,109.6 L 113.9,108.9 L 114.6,108.0 L 115.3,107.1 L 115.8,106.2 L 116.3,105.1 L 116.7,104.0 L 117.0,102.8 L 117.1,101.6 L 117.1,100.3 L 117.0,99.1 L 116.8,97.8 L 116.5,96.5 L 116.0,95.2 L 115.3,94.0 L 114.6,92.8 L 113.7,91.7 L 112.6,90.6 L 111.5,89.7 L 110.2,88.8 L 108.9,88.1 L 107.4,87.5 L 105.9,87.0 L 104.2,86.7 L 102.6,86.5 L 100.9,86.5 L 99.1,86.7 L 97.4,87.1 L 95.6,87.6 L 93.9,88.3 L 92.3,89.2 L 90.7,90.3 L 89.2,91.6 L 87.8,93.1 L 86.6,94.7 L 85.4,96.4 L 84.5,98.3 L 83.7,100.3 L 83.1,102.5 L 82.7,104.7 L 82.6,107.0 L 82.7,109.3 L 83.0,111.7 L 83.5,114.0 L 84.4,116.4 L 85.4,118.7 L 86.7,120.9 L 88.3,123.0 L 90.1,125.0 L 92.1,126.9 L 94.3,128.5 L 96.8,130.0 L 99.4,131.2 L 102.2,132.2 L 105.1,132.9 L 108.2,133.3 L 111.3,133.4 L 114.5,133.2 L 117.7,132.7 L 120.9,131.9 L 124.1,130.7 L 127.2,129.1 L 130.2,127.2 L 133.0,125.0 L 135.7,122.5 L 138.1,119.7 L 140.3,116.5 L 142.2,113.1 L 143.7,109.5 L 145.0,105.7 L 145.8,101.6 L 146.3,97.5 L 146.3,93.2 L 145.9,88.8 L 145.1,84.4 L 143.8,80.1 L 142.0,75.8 L 139.8,71.7 L 137.1,67.7 L 134.0,63.9 L 130.4,60.4 L 126.4,57.1 L 122.1,54.3 L 117.4,51.8 L 112.3,49.8 L 107.0,48.3 L 101.5,47.3 L 95.8,46.9 L 89.9,47.0 L 84.0,47.7 L 78.1,49.0 L 72.2,51.0 L 66.4,53.6 L 60.8,56.8 L 55.5,60.6 L 50.4,65.0 L 45.7,70.0 L 41.5,75.6 L 37.8,81.6 L 34.7,88.2 L 32.1,95.1 L 30.2,102.4 L 29.1,110.0 L 28.7,117.8 L 29.1,125.8 L 30.3,133.9 L 32.4,141.9"
        fill="none" stroke="url(#gC-red)" stroke-width="2.2" stroke-linecap="round" stroke-linejoin="round" filter="url(#fC-g)"/>
  <g stroke="rgba(255,255,255,0.35)" stroke-width="0.8" stroke-linecap="round">
    <line x1="105" y1="90" x2="105" y2="116"/>
    <line x1="92"  y1="103" x2="118" y2="103"/>
    <line x1="105" y1="90"  x2="105" y2="93"  stroke-width="1.5"/>
    <line x1="105" y1="113" x2="105" y2="116" stroke-width="1.5"/>
    <line x1="92"  y1="103" x2="95"  y2="103" stroke-width="1.5"/>
    <line x1="115" y1="103" x2="118" y2="103" stroke-width="1.5"/>
  </g>
  <circle cx="105" cy="103" r="6" fill="#FF1111" filter="url(#fC-c)"/>
  <circle cx="105" cy="103" r="2.5" fill="#FFFFFF" opacity="0.9"/>
  <text x="18" y="22" font-family="serif" font-size="15" fill="rgba(200,0,0,0.3)" font-style="italic">φ</text>
  <text x="100" y="178" text-anchor="middle" font-family="Arial Black,sans-serif" font-size="14" font-weight="900" fill="#FFFFFF" letter-spacing="4">A3KM</text>
  <text x="100" y="192" text-anchor="middle" font-family="Courier New,monospace" font-size="8" font-weight="700" fill="rgba(200,0,0,0.8)" letter-spacing="4">STUDIO</text>
  <rect width="200" height="200" rx="18" fill="none" stroke="rgba(180,0,0,0.2)" stroke-width="1.2"/>
</svg>