<?xml version="1.0" encoding="UTF-8"?>
<!-- Source: Marine Biology — brain coral labyrinthine groove patterns -->
<svg xmlns="http://www.w3.org/2000/svg" viewBox="0 0 200 200" width="200" height="200">
  <defs>
    <filter id="fX"><feGaussianBlur stdDeviation="0.8" result="b"/><feMerge><feMergeNode in="b"/><feMergeNode in="SourceGraphic"/></feMerge></filter>
    <radialGradient id="gX" cx="50%" cy="50%" r="50%"><stop offset="0%" stop-color="#FF3333" stop-opacity="0.7"/><stop offset="100%" stop-color="#660000" stop-opacity="0.2"/></radialGradient>
    <clipPath id="cX"><circle cx="100" cy="100" r="82"/></clipPath>
  </defs>
  <circle cx="100" cy="100" r="100" fill="#030000"/>
  <circle cx="100" cy="100" r="82" fill="rgba(20,0,0,0.5)"/>
  <!-- Brain coral labyrinth grooves — flowing organic sinuous paths -->
  <g clip-path="url(#cX)" fill="none" stroke="rgba(200,0,0,0.65)" stroke-width="1.8" stroke-linecap="round" stroke-linejoin="round" filter="url(#fX)">
    <path d="M 30,100 C 36,86 48,82 54,90 C 60,98 55,112 62,118 C 69,124 80,120 88,112 C 96,104 94,90 102,84 C 110,78 122,80 130,88 C 138,96 138,110 146,116 C 154,122 165,118 170,106"/>
    <path d="M 28,80 C 34,68 46,62 54,70 C 62,78 58,92 64,98 C 70,104 80,102 88,94 C 96,86 95,72 104,66 C 113,60 126,64 133,73 C 140,82 138,96 145,102 C 152,108 162,106 168,96 C 172,88 171,76 168,66"/>
    <path d="M 32,120 C 38,132 50,136 57,128 C 64,120 60,106 67,100 C 74,94 84,96 91,104 C 98,112 97,126 105,132 C 113,138 124,134 132,126 C 140,118 140,104 148,98 C 156,92 166,96 170,108"/>
    <path d="M 40,64 C 46,52 58,48 65,56 C 72,64 68,78 75,84 C 82,90 93,88 100,80 C 107,72 106,58 114,52 C 122,46 134,50 140,60"/>
    <path d="M 38,138 C 44,150 55,154 62,146 C 69,138 66,124 72,118 C 78,112 88,114 95,122 C 102,130 100,144 108,150 C 116,156 127,152 134,142"/>
  </g>
  <circle cx="100" cy="100" r="82" fill="url(#gX)"/>
  <circle cx="100" cy="100" r="82" fill="none" stroke="rgba(255,40,40,0.35)" stroke-width="1.5"/>
  <text x="100" y="195" text-anchor="middle" font-family="Arial Black,sans-serif" font-size="12" font-weight="900" fill="#FFFFFF" letter-spacing="5">A3KM</text>
</svg>