<?xml version="1.0" encoding="UTF-8"?>
<!-- A3KM Studio — Premium Website Logo (Final Polished Spiral) -->
<svg xmlns="http://www.w3.org/2000/svg" viewBox="0 0 200 200" width="200" height="200">
  <defs>
    <radialGradient id="bgGrad" cx="50%" cy="44%" r="70%">
      <stop offset="0%" stop-color="#3D0000"/>
      <stop offset="62%" stop-color="#210000"/>
      <stop offset="100%" stop-color="#100000"/>
    </radialGradient>
    <pattern id="grid" width="18" height="18" patternUnits="userSpaceOnUse">
      <line x1="0" y1="0" x2="0" y2="18" stroke="#6A0000" stroke-opacity="0.62" stroke-width="1"/>
      <line x1="0" y1="0" x2="18" y2="0" stroke="#6A0000" stroke-opacity="0.62" stroke-width="1"/>
    </pattern>
    <clipPath id="roundedClip">
      <circle cx="100" cy="100" r="98"/>
    </clipPath>
  </defs>

  <g clip-path="url(#roundedClip)">
    <rect width="200" height="200" fill="url(#bgGrad)"/>
    <rect width="200" height="200" fill="url(#grid)"/>
    <circle cx="100" cy="100" r="97" fill="none" stroke="#8F0000" stroke-width="1.7" stroke-opacity="0.76"/>

    <g transform="translate(11,-6)">
      <path d="M65,91.0 A3.0,3.0 0 0,0 68.0,88" fill="none" stroke="#101010" stroke-width="5.8" stroke-linecap="round"/>
      <path d="M68.0,88 A3.0,3.0 0 0,1 71.0,91.0" fill="none" stroke="#101010" stroke-width="6.0" stroke-linecap="round"/>
      <path d="M74.0,91.0 A6.0,6.0 0 0,0 68.0,97.0" fill="none" stroke="#101010" stroke-width="6.2" stroke-linecap="round"/>
      <path d="M71.0,100.0 A9.0,9.0 0 0,1 62.0,91.0" fill="none" stroke="#101010" stroke-width="6.4" stroke-linecap="round"/>
      <path d="M62.0,97.0 A15.0,15.0 0 0,0 77.0,82.0" fill="none" stroke="#101010" stroke-width="6.7" stroke-linecap="round"/>
      <path d="M77.0,82.0 A24.0,24.0 0 0,1 101.0,106.0" fill="none" stroke="#101010" stroke-width="7.0" stroke-linecap="round"/>
      <path d="M116.0,106.0 A39.0,39.0 0 0,0 77.0,145.0" fill="none" stroke="#101010" stroke-width="7.4" stroke-linecap="round"/>
      <path d="M101.0,169.0 A63.0,63.0 0 0,1 38.0,106.0" fill="none" stroke="#101010" stroke-width="7.8" stroke-linecap="round"/>
      <path d="M38.0,145.0 A102.0,102.0 0 0,0 140.0,43.0" fill="none" stroke="#101010" stroke-width="8.2" stroke-linecap="round"/>

      <path d="M65,91.0 A3.0,3.0 0 0,0 68.0,88" fill="none" stroke="#C8C8C8" stroke-opacity="0.72" stroke-width="4.8" stroke-linecap="round"/>
      <path d="M68.0,88 A3.0,3.0 0 0,1 71.0,91.0" fill="none" stroke="#CECECE" stroke-opacity="0.74" stroke-width="5.0" stroke-linecap="round"/>
      <path d="M74.0,91.0 A6.0,6.0 0 0,0 68.0,97.0" fill="none" stroke="#D4D4D4" stroke-opacity="0.76" stroke-width="5.2" stroke-linecap="round"/>
      <path d="M71.0,100.0 A9.0,9.0 0 0,1 62.0,91.0" fill="none" stroke="#D9D9D9" stroke-opacity="0.78" stroke-width="5.5" stroke-linecap="round"/>
      <path d="M62.0,97.0 A15.0,15.0 0 0,0 77.0,82.0" fill="none" stroke="#DEDEDE" stroke-opacity="0.8" stroke-width="5.8" stroke-linecap="round"/>
      <path d="M77.0,82.0 A24.0,24.0 0 0,1 101.0,106.0" fill="none" stroke="#E3E3E3" stroke-opacity="0.82" stroke-width="6.1" stroke-linecap="round"/>
      <path d="M116.0,106.0 A39.0,39.0 0 0,0 77.0,145.0" fill="none" stroke="#E7E7E7" stroke-opacity="0.84" stroke-width="6.6" stroke-linecap="round"/>
      <path d="M101.0,169.0 A63.0,63.0 0 0,1 38.0,106.0" fill="none" stroke="#EBEBEB" stroke-opacity="0.86" stroke-width="6.9" stroke-linecap="round"/>
      <path d="M38.0,145.0 A102.0,102.0 0 0,0 140.0,43.0" fill="none" stroke="#EFEFEF" stroke-opacity="0.88" stroke-width="7.2" stroke-linecap="round"/>

    </g>

    <circle cx="112" cy="98" r="5.8" fill="#5B0000"/>
    <circle cx="112" cy="98" r="3.4" fill="#A30000"/>
  </g>
</svg>