<?xml version="1.0" encoding="UTF-8"?>
<!-- Source: Math/Nature — Fibonacci sequence φ=1.618... golden ratio -->
<svg xmlns="http://www.w3.org/2000/svg" viewBox="0 0 200 200" width="200" height="200">
  <defs>
    <filter id="fM"><feGaussianBlur stdDeviation="2.5" result="b"/><feMerge><feMergeNode in="b"/><feMergeNode in="SourceGraphic"/></feMerge></filter>
    <filter id="fR"><feGaussianBlur stdDeviation="3" result="b"/><feMerge><feMergeNode in="b"/><feMergeNode in="SourceGraphic"/></feMerge></filter>
  </defs>
  <path d="M65,91.0 A3.0,3.0 0 0,0 68.0,88" fill="none" stroke="#707070" stroke-width="4.2" stroke-linecap="round"/>
  <path d="M68.0,88 A3.0,3.0 0 0,1 71.0,91.0" fill="none" stroke="#757575" stroke-width="4.4" stroke-linecap="round"/>
  <path d="M74.0,91.0 A6.0,6.0 0 0,0 68.0,97.0" fill="none" stroke="#787878" stroke-width="4.6" stroke-linecap="round"/>
  <path d="M71.0,100.0 A9.0,9.0 0 0,1 62.0,91.0" fill="none" stroke="#7B7B7B" stroke-width="4.8" stroke-linecap="round"/>
  <path d="M62.0,97.0 A15.0,15.0 0 0,0 77.0,82.0" fill="none" stroke="#7E7E7E" stroke-width="5.0" stroke-linecap="round"/>
  <path d="M77.0,82.0 A24.0,24.0 0 0,1 101.0,106.0" fill="none" stroke="#828282" stroke-width="5.3" stroke-linecap="round"/>
  <path d="M116.0,106.0 A39.0,39.0 0 0,0 77.0,145.0" fill="none" stroke="#878787" stroke-width="5.7" stroke-linecap="round"/>
  <path d="M101.0,169.0 A63.0,63.0 0 0,1 38.0,106.0" fill="none" stroke="#8C8C8C" stroke-width="6.2" stroke-linecap="round"/>
  <path d="M38.0,145.0 A102.0,102.0 0 0,0 140.0,43.0" fill="none" stroke="#909090" stroke-width="6.8" stroke-linecap="round"/>
  <circle cx="100" cy="100" r="7" fill="#8B4513" filter="url(#fR)"/>
  <circle cx="100" cy="100" r="4" fill="#A0826D"/>
</svg>