<svg xmlns="http://www.w3.org/2000/svg" viewBox="0 0 1200 630" width="1200" height="630"><defs><linearGradient id="welcome-bg" x1="0%" y1="0%" x2="100%" y2="100%"><stop offset="0%" stop-color="#1a0a0a"/><stop offset="50%" stop-color="#2d0a0a"/><stop offset="100%" stop-color="#0a0a0a"/></linearGradient><linearGradient id="welcome-red" x1="0%" y1="0%" x2="100%" y2="0%"><stop offset="0%" stop-color="#CC0000"/><stop offset="100%" stop-color="#990000"/></linearGradient></defs><rect width="1200" height="630" fill="url(#welcome-bg)"/><circle cx="100" cy="100" r="150" fill="#CC0000" opacity="0.08"/><circle cx="1100" cy="530" r="120" fill="#990000" opacity="0.08"/><circle cx="950" cy="150" r="80" fill="#CC0000" opacity="0.05"/><g transform="translate(80,180)"><rect width="100" height="100" rx="10" fill="none" stroke="url(#welcome-red)" stroke-width="3" opacity="0.7"/><line x1="-20" y1="25" x2="0" y2="25" stroke="#CC0000" stroke-width="2"/><line x1="-20" y1="50" x2="0" y2="50" stroke="#CC0000" stroke-width="2"/><line x1="-20" y1="75" x2="0" y2="75" stroke="#CC0000" stroke-width="2"/><line x1="100" y1="25" x2="120" y2="25" stroke="#CC0000" stroke-width="2"/><line x1="100" y1="50" x2="120" y2="50" stroke="#CC0000" stroke-width="2"/><line x1="100" y1="75" x2="120" y2="75" stroke="#CC0000" stroke-width="2"/><circle cx="50" cy="50" r="18" fill="url(#welcome-red)" opacity="0.4"/></g><text x="600" y="200" font-family="Arial,sans-serif" font-size="64" font-weight="bold" fill="white" text-anchor="middle">MD AKHINOOR ISLAM</text><text x="600" y="270" font-family="Arial,sans-serif" font-size="38" font-weight="600" fill="url(#welcome-red)" text-anchor="middle">Engineering Portfolio</text><text x="600" y="330" font-family="Arial,sans-serif" font-size="28" fill="rgba(255,255,255,0.7)" text-anchor="middle">Personal Blog &amp; Project Showcase</text><g transform="translate(280,390)"><rect width="150" height="50" rx="25" fill="rgba(204,0,0,0.15)" stroke="#CC0000" stroke-width="2"/><text x="75" y="33" font-family="Arial,sans-serif" font-size="18" font-weight="600" fill="white" text-anchor="middle">Arduino</text></g><g transform="translate(450,390)"><rect width="170" height="50" rx="25" fill="rgba(153,0,0,0.15)" stroke="#990000" stroke-width="2"/><text x="85" y="33" font-family="Arial,sans-serif" font-size="18" font-weight="600" fill="white" text-anchor="middle">SolidWorks</text></g><g transform="translate(640,390)"><rect width="200" height="50" rx="25" fill="rgba(204,0,0,0.12)" stroke="#CC0000" stroke-width="2"/><text x="100" y="33" font-family="Arial,sans-serif" font-size="18" font-weight="600" fill="white" text-anchor="middle">Circuit Design</text></g><text x="600" y="530" font-family="Arial,sans-serif" font-size="22" fill="rgba(255,255,255,0.4)" text-anchor="middle">A3KM STUDIO</text><line x1="350" y1="360" x2="850" y2="360" stroke="url(#welcome-red)" stroke-width="2" opacity="0.4"/><circle cx="1020" cy="500" r="28" fill="none" stroke="#CC0000" stroke-width="3" opacity="0.3"/><circle cx="1020" cy="500" r="14" fill="#CC0000" opacity="0.2"/></svg>
